{
.appVersion = "973";
DisplayStrings = (
AT
);
classes = (
{
automatic = 1;
code = "A Aacute Abreve Abreveacute Abrevedotbelow Abrevegrave Abrevehookabove Abrevetilde Acircumflex Acircumflexacute Acircumflexdotbelow Acircumflexgrave Acircumflexhookabove Acircumflextilde Adieresis Adotbelow Agrave Ahookabove Amacron Aogonek Aring Aringacute Atilde AE AEacute B C Cacute Ccaron Ccedilla Ccircumflex Cdotaccent D DZ DZcaron Eth Dcaron Dcroat Ddotbelow Dz Dzcaron E Eacute Ebreve Ecaron Ecircumflex Ecircumflexacute Ecircumflexdotbelow Ecircumflexgrave Ecircumflexhookabove Ecircumflextilde Edieresis Edotaccent Edotbelow Egrave Ehookabove Emacron Eogonek Etilde F G Gbreve Gcircumflex Gcommaaccent Gdotaccent H Hbar Hcircumflex Hdotbelow I IJ Iacute Ibreve Icircumflex Idieresis Idotaccent Idotbelow Igrave Ihookabove Imacron Iogonek Itilde J Jcircumflex K Kcommaaccent L LJ Lacute Lcaron Lcommaaccent Ldot Lj Lslash M N NJ Nacute Ncaron Ncommaaccent Ndotaccent Eng Nj Ntilde O Oacute Obreve Ocircumflex Ocircumflexacute Ocircumflexdotbelow Ocircumflexgrave Ocircumflexhookabove Ocircumflextilde Odieresis Odotbelow Ograve Ohookabove Ohorn Ohornacute Ohorndotbelow Ohorngrave Ohornhookabove Ohorntilde Ohungarumlaut Omacron Oogonek Oslash Oslashacute Otilde OE P Thorn Q R Racute Rcaron Rcommaaccent Rdotbelow S Sacute Scaron Scedilla Scircumflex Scommaaccent Sdotbelow Germandbls Schwa T Tbar Tcaron Tcedilla Tcommaaccent Tdotbelow U Uacute Ubreve Ucircumflex Udieresis Udotbelow Ugrave Uhookabove Uhorn Uhornacute Uhorndotbelow Uhorngrave Uhornhookabove Uhorntilde Uhungarumlaut Umacron Uogonek Uring Utilde V W Wacute Wcircumflex Wdieresis Wgrave X Y Yacute Ycircumflex Ydieresis Ydotbelow Ygrave Yhookabove Ytilde Z Zacute Zcaron Zdotaccent Zdotbelow Iacute_J.loclNLD Y.loclGUA Yacute.loclGUA Ycircumflex.loclGUA Ydieresis.loclGUA Ydotbelow.loclGUA Ygrave.loclGUA Yhookabove.loclGUA Ytilde.loclGUA Cacute.loclPLK Nacute.loclPLK Oacute.loclPLK Sacute.loclPLK Zacute.loclPLK Delta Omega";

glyphs = (
{
color = 4;
glyphname = A;
layers = (
{
anchors = (
{
name = bottom;
position = "{310, 0}";
},
{
name = ogonek;
position = "{584, 0}";
},
{
name = top;
position = "{307, 700}";
}
);
layerId = UUID0;
paths = (
{
closed = 1;
nodes = (
"60 -2 LINE SMOOTH",
"80 -2 OFFCURVE",
"96 2 OFFCURVE",
"100 14 CURVE SMOOTH",
"157 178 LINE",
"451 178 LINE",
"510 14 LINE SMOOTH",
"514 2 OFFCURVE",
"530 -2 OFFCURVE",
"550 -2 CURVE SMOOTH",
"558 -2 LINE SMOOTH",
"588 -2 OFFCURVE",
"601 5 OFFCURVE",
"601 15 CURVE SMOOTH",
"601 19 OFFCURVE",
"600 23 OFFCURVE",
"598 28 CURVE SMOOTH",
"361 686 LINE SMOOTH",
"357.5 696.5 OFFCURVE",
"344 702 OFFCURVE",
"321 702 CURVE SMOOTH",
"292 702 LINE SMOOTH",
"269 702 OFFCURVE",
"255.5 696.5 OFFCURVE",
"252 686 CURVE SMOOTH",
"15 29 LINE SMOOTH",
"13 23 OFFCURVE",
"12 19 OFFCURVE",
"12 15 CURVE SMOOTH",
"12 4 OFFCURVE",
"25 -2 OFFCURVE",
"55 -2 CURVE SMOOTH"
);
},
{
closed = 1;
nodes = (
"290 552 LINE SMOOTH",
"297 571 OFFCURVE",
"301 591 OFFCURVE",
"305 610 CURVE",
"307 610 LINE",
"310 591 OFFCURVE",
"313 570 OFFCURVE",
"319 552 CURVE SMOOTH",
"424 254 LINE",
"185 254 LINE"
);
}
);
width = 613;
},
{
anchors = (
{
name = bottom;
position = "{310, 0}";
},
{
name = ogonek;
position = "{552, 0}";
},
{
name = top;
position = "{307, 700}";
}
);
layerId = "2C16E7AF-C861-4509-900A-75D3055B0FF7";
paths = (
{
closed = 1;
nodes = (
"101 -2 LINE SMOOTH",
"125 -2 OFFCURVE",
"142 4 OFFCURVE",
"147 19 CURVE SMOOTH",
"187 141 LINE",
"423 141 LINE",
"463 19 LINE SMOOTH",
"468 3 OFFCURVE",
"490 -2 OFFCURVE",
"519 -2 CURVE SMOOTH",
"563 -2 LINE SMOOTH",
"598 -2 OFFCURVE",
"613 6 OFFCURVE",
"613 20 CURVE SMOOTH",
"613 25 OFFCURVE",
"612 31 OFFCURVE",
"610 38 CURVE SMOOTH",
"390 681 LINE SMOOTH",
"385 695 OFFCURVE",
"366.5 702 OFFCURVE",
"333 702 CURVE SMOOTH",
"281 702 LINE SMOOTH",
"247.5 702 OFFCURVE",
"229 695 OFFCURVE",
"224 681 CURVE SMOOTH",
"4 38 LINE SMOOTH",
"2 31 OFFCURVE",
"0 25 OFFCURVE",
"0 20 CURVE SMOOTH",
"0 6 OFFCURVE",
"19 -2 OFFCURVE",
"61 -2 CURVE SMOOTH"
);
},
{
closed = 1;
nodes = (
"289 451 LINE SMOOTH",
"296.5 472 OFFCURVE",
"300 494 OFFCURVE",
"304 515 CURVE",
"308 515 LINE",
"312 494 OFFCURVE",
"316 472 OFFCURVE",
"323 451 CURVE SMOOTH",
"380 273 LINE",
"230 273 LINE"
);
}
);
width = 613;
}
);
leftKerningGroup = A;
rightKerningGroup = A;
unicode = 0041;
userData = {
RMXScaler = {
source = A;
};
};
},
{
color = 11;
glyphname = Aringacute;
layers = (
{
anchors = (
{
name = ogonek;
position = "{558, 14}";
}
);
components = (
{
alignment = -1;
name = ringcomb;
transform = "{1, 0, 0, 1, 305, 60}";
},
{
name = acute.alt;
transform = "{1, 0, 0, 1, 209, 228}";
}
);
layerId = UUID0;
paths = (
{
closed = 1;
nodes = (
"60 -2 LINE SMOOTH",
"80 -2 OFFCURVE",
"96 2 OFFCURVE",
"100 14 CURVE SMOOTH",
"157 178 LINE",
"451 178 LINE",
"510 14 LINE SMOOTH",
"514 2 OFFCURVE",
"530 -2 OFFCURVE",
"550 -2 CURVE SMOOTH",
"558 -2 LINE SMOOTH",
"588 -2 OFFCURVE",
"601 5 OFFCURVE",
"601 15 CURVE SMOOTH",
"601 19 OFFCURVE",
"600 23 OFFCURVE",
"598 28 CURVE SMOOTH",
"369 665 LINE SMOOTH",
"363 681 OFFCURVE",
"337 655 OFFCURVE",
"321 655 CURVE SMOOTH",
"292 655 LINE SMOOTH",
"276 655 OFFCURVE",
"252 683 OFFCURVE",
"244 665 CURVE SMOOTH",
"15 29 LINE SMOOTH",
"13 23 OFFCURVE",
"12 19 OFFCURVE",
"12 15 CURVE SMOOTH",
"12 4 OFFCURVE",
"25 -2 OFFCURVE",
"55 -2 CURVE SMOOTH"
);
},
{
closed = 1;
nodes = (
"290 552 LINE SMOOTH",
"297 571 OFFCURVE",
"301 591 OFFCURVE",
"305 610 CURVE",
"307 610 LINE",
"310 591 OFFCURVE",
"313 570 OFFCURVE",
"319 552 CURVE SMOOTH",
"424 254 LINE",
"185 254 LINE"
);
}
);
width = 613;
},
{
anchors = (
{
name = ogonek;
position = "{543, 14}";
}
);
components = (
{
alignment = -1;
name = ringcomb;
transform = "{1, 0, 0, 1, 304, 47}";
},
{
name = acute.alt;
transform = "{1, 0, 0, 1, 217, 247}";
}
);
layerId = "2C16E7AF-C861-4509-900A-75D3055B0FF7";
paths = (
{
closed = 1;
nodes = (
"101 -2 LINE SMOOTH",
"125 -2 OFFCURVE",
"142 4 OFFCURVE",
"147 19 CURVE SMOOTH",
"187 141 LINE",
"423 141 LINE",
"463 19 LINE SMOOTH",
"468 3 OFFCURVE",
"490 -2 OFFCURVE",
"519 -2 CURVE SMOOTH",
"563 -2 LINE SMOOTH",
"598 -2 OFFCURVE",
"613 6 OFFCURVE",
"613 20 CURVE SMOOTH",
"613 25 OFFCURVE",
"612 31 OFFCURVE",
"610 38 CURVE SMOOTH",
"395 666 LINE SMOOTH",
"387 690 OFFCURVE",
"354 656 OFFCURVE",
"333 656 CURVE SMOOTH",
"281 656 LINE SMOOTH",
"260 656 OFFCURVE",
"230 700 OFFCURVE",
"218 666 CURVE SMOOTH",
"4 38 LINE SMOOTH",
"2 31 OFFCURVE",
"0 25 OFFCURVE",
"0 20 CURVE SMOOTH",
"0 6 OFFCURVE",
"19 -2 OFFCURVE",
"61 -2 CURVE SMOOTH"
);
},
{
closed = 1;
nodes = (
"289 451 LINE SMOOTH",
"296.5 472 OFFCURVE",
"300 494 OFFCURVE",
"304 515 CURVE",
"308 515 LINE",
"312 494 OFFCURVE",
"316 472 OFFCURVE",
"323 451 CURVE SMOOTH",
"380 273 LINE",
"230 273 LINE"
);
}
);
width = 613;
}
);
leftKerningGroup = A;
rightKerningGroup = A;
unicode = 01FA;
userData = {
RMXScaler = {
source = Aringacute;
};
};
},
{
color = 11;
glyphname = AE;
layers = (
{
anchors = (
{
name = top;
position = "{458, 700}";
}
);
layerId = UUID0;
paths = (
{
closed = 1;
nodes = (
"33 -2 LINE SMOOTH",
"52 -2 OFFCURVE",
"67.5 3 OFFCURVE",
"73 14 CURVE SMOOTH",
"153 178 LINE",
"448 178 LINE",
"480 29 LINE SMOOTH",
"484 9 OFFCURVE",
"495 0 OFFCURVE",
"516 0 CURVE SMOOTH",
"803 0 LINE SMOOTH",
"817 0 OFFCURVE",
"823 9 OFFCURVE",
"823 30 CURVE SMOOTH",
"823 46 LINE SMOOTH",
"823 67 OFFCURVE",
"817 76 OFFCURVE",
"803 76 CURVE SMOOTH",
"559 76 LINE",
"506 320 LINE",
"772 320 LINE SMOOTH",
"786 320 OFFCURVE",
"792 329 OFFCURVE",
"792 350 CURVE SMOOTH",
"792 366 LINE SMOOTH",
"792 387 OFFCURVE",
"786 396 OFFCURVE",
"772 396 CURVE SMOOTH",
"490 396 LINE",
"440 624 LINE",
"802 624 LINE SMOOTH",
"816 624 OFFCURVE",
"822 633 OFFCURVE",
"822 654 CURVE SMOOTH",
"822 670 LINE SMOOTH",
"822 691 OFFCURVE",
"816 700 OFFCURVE",
"802 700 CURVE SMOOTH",
"357 700 LINE SMOOTH",
"336 700 OFFCURVE",
"323 692 OFFCURVE",
"314 673 CURVE SMOOTH",
"-7 31 LINE SMOOTH",
"-10 25 OFFCURVE",
"-11 19 OFFCURVE",
"-11 15 CURVE SMOOTH",
"-11 4 OFFCURVE",
"-2 -2 OFFCURVE",
"28 -2 CURVE SMOOTH"
);
},
{
closed = 1;
nodes = (
"340 552 LINE",
"361 610 LINE",
"363 610 LINE",
"367 552 LINE",
"431 253 LINE",
"192 253 LINE"
);
}
);
width = 915;
},
{
anchors = (
{
name = top;
position = "{458, 700}";
}
);
layerId = "2C16E7AF-C861-4509-900A-75D3055B0FF7";
paths = (
{
closed = 1;
nodes = (
"99 -2 LINE SMOOTH",
"123 -2 OFFCURVE",
"138 5 OFFCURVE",
"145 19 CURVE SMOOTH",
"205 141 LINE",
"448 141 LINE",
"469 30 LINE SMOOTH",
"473 9 OFFCURVE",
"482 0 OFFCURVE",
"504 0 CURVE SMOOTH",
"835 0 LINE SMOOTH",
"856 0 OFFCURVE",
"865 15 OFFCURVE",
"865 50 CURVE SMOOTH",
"865 81 LINE SMOOTH",
"865 116 OFFCURVE",
"856 131 OFFCURVE",
"835 131 CURVE SMOOTH",
"602 131 LINE",
"571 293 LINE",
"807 293 LINE SMOOTH",
"828 293 OFFCURVE",
"837 308 OFFCURVE",
"837 343 CURVE SMOOTH",
"837 374 LINE SMOOTH",
"837 409 OFFCURVE",
"828 424 OFFCURVE",
"807 424 CURVE SMOOTH",
"545 424 LINE",
"517 569 LINE",
"834 569 LINE SMOOTH",
"855 569 OFFCURVE",
"864 584 OFFCURVE",
"864 619 CURVE SMOOTH",
"864 650 LINE SMOOTH",
"864 685 OFFCURVE",
"855 700 OFFCURVE",
"834 700 CURVE SMOOTH",
"370 700 LINE SMOOTH",
"349 700 OFFCURVE",
"336 692 OFFCURVE",
"326 673 CURVE SMOOTH",
"5 38 LINE SMOOTH",
"2 32 OFFCURVE",
"1 25 OFFCURVE",
"1 20 CURVE SMOOTH",
"1 6 OFFCURVE",
"20 -2 OFFCURVE",
"62 -2 CURVE SMOOTH"
);
},
{
closed = 1;
nodes = (
"359 455 LINE",
"387 537 LINE",
"391 537 LINE",
"391 454 LINE",
"424 273 LINE",
"270 273 LINE"
);
}
);
width = 915;
}
);
leftKerningGroup = AE;
rightKerningGroup = E;
unicode = 00C6;
userData = {
RMXScaler = {
source = AE;
};
};
},
{
color = 4;
glyphname = B;
layers = (
{
anchors = (
{
name = bottom;
position = "{297, 0}";
},
{
name = top;
position = "{297, 700}";
}
);
layerId = UUID0;
paths = (
{
closed = 1;
nodes = (
"299 0 LINE SMOOTH",
"467 0 OFFCURVE",
"560 62 OFFCURVE",
"560 201 CURVE SMOOTH",
"560 333 OFFCURVE",
"420 367 OFFCURVE",
"420 367 CURVE",
"420 371 LINE",
"478 387 OFFCURVE",
"530 456 OFFCURVE",
"530 523 CURVE SMOOTH",
"530 628 OFFCURVE",
"455 700 OFFCURVE",
"306 700 CURVE SMOOTH",
"127 700 LINE SMOOTH",
"106 700 OFFCURVE",
"97 691 OFFCURVE",
"97 670 CURVE SMOOTH",
"97 30 LINE SMOOTH",
"97 9 OFFCURVE",
"106 0 OFFCURVE",
"127 0 CURVE SMOOTH"
);
},
{
closed = 1;
nodes = (
"185 322 LINE",
"314 322 LINE SMOOTH",
"417 322 OFFCURVE",
"469 278 OFFCURVE",
"469 205 CURVE SMOOTH",
"469 126 OFFCURVE",
"420 76 OFFCURVE",
"331 76 CURVE SMOOTH",
"185 76 LINE"
);
},
{
closed = 1;
nodes = (
"185 624 LINE",
"297 624 LINE SMOOTH",
"397 624 OFFCURVE",
"439 589 OFFCURVE",
"439 515 CURVE SMOOTH",
"439 450 OFFCURVE",
"382 398 OFFCURVE",
"301 398 CURVE SMOOTH",
"185 398 LINE"
);
}
);
width = 593;
},
{
anchors = (
{
name = bottom;
position = "{304, 0}";
},
{
name = top;
position = "{304, 700}";
}
);
layerId = "2C16E7AF-C861-4509-900A-75D3055B0FF7";
paths = (
{
closed = 1;
nodes = (
"328 0 LINE SMOOTH",
"497 0 OFFCURVE",
"578 74 OFFCURVE",
"578 203 CURVE SMOOTH",
"578 280 OFFCURVE",
"523 351 OFFCURVE",
"443 367 CURVE",
"442 371 LINE",
"502 396 OFFCURVE",
"550 455 OFFCURVE",
"550 523 CURVE SMOOTH",
"550 628 OFFCURVE",
"483 700 OFFCURVE",
"314 700 CURVE SMOOTH",
"116 700 LINE SMOOTH",
"88 700 OFFCURVE",
"76 688 OFFCURVE",
"76 660 CURVE SMOOTH",
"76 40 LINE SMOOTH",
"76 12 OFFCURVE",
"88 0 OFFCURVE",
"116 0 CURVE SMOOTH"
);
},
{
closed = 1;
nodes = (
"230 290 LINE",
"312 290 LINE SMOOTH",
"381 290 OFFCURVE",
"420 264 OFFCURVE",
"420 212 CURVE SMOOTH",
"420 160 OFFCURVE",
"386 131 OFFCURVE",
"328 131 CURVE SMOOTH",
"230 131 LINE"
);
},
{
closed = 1;
nodes = (
"230 570 LINE",
"301 570 LINE SMOOTH",
"362 570 OFFCURVE",
"392 545 OFFCURVE",
"392 496 CURVE SMOOTH",
"392 454 OFFCURVE",
"359 421 OFFCURVE",
"299 421 CURVE SMOOTH",
"230 421 LINE"
);
}
);
width = 593;
}
);
leftMetricsKey = H;
unicode = 0042;
userData = {
RMXScaler = {
source = B;
};
};
},
{
color = 4;
glyphname = C;
layers = (
{
anchors = (
{
name = bottom;
position = "{361, 0}";
},
{
name = top;
position = "{355, 700}";
}
);
layerId = UUID0;
paths = (
{
closed = 1;
nodes = (
"454 -6 OFFCURVE",
"518 13 OFFCURVE",
"554 33 CURVE SMOOTH",
"574 44 OFFCURVE",
"586 56 OFFCURVE",
"586 66 CURVE SMOOTH",
"586 78 OFFCURVE",
"564 120 OFFCURVE",
"551 120 CURVE SMOOTH",
"538 120 OFFCURVE",
"482 70 OFFCURVE",
"379 70 CURVE SMOOTH",
"222 70 OFFCURVE",
"148 157 OFFCURVE",
"148 349 CURVE SMOOTH",
"148 546 OFFCURVE",
"223 630 OFFCURVE",
"383 630 CURVE SMOOTH",
"479 630 OFFCURVE",
"527 586 OFFCURVE",
"538 586 CURVE SMOOTH",
"551 586 OFFCURVE",
"572 627 OFFCURVE",
"572 644 CURVE SMOOTH",
"572 652 OFFCURVE",
"563 661 OFFCURVE",
"548 670 CURVE SMOOTH",
"514 689 OFFCURVE",
"449 706 OFFCURVE",
"381 706 CURVE SMOOTH",
"167 706 OFFCURVE",
"57 589 OFFCURVE",
"57 350 CURVE SMOOTH",
"57 106 OFFCURVE",
"160 -6 OFFCURVE",
"379 -6 CURVE SMOOTH"
);
}
);
width = 619;
},
{
anchors = (
{
name = bottom;
position = "{373, 0}";
},
{
name = top;
position = "{368, 700}";
}
);
layerId = "2C16E7AF-C861-4509-900A-75D3055B0FF7";
paths = (
{
closed = 1;
nodes = (
"429 -8 OFFCURVE",
"514 3 OFFCURVE",
"562 30 CURVE SMOOTH",
"583 42 OFFCURVE",
"597 57 OFFCURVE",
"597 76 CURVE SMOOTH",
"597 93 OFFCURVE",
"570 163 OFFCURVE",
"538 163 CURVE SMOOTH",
"523 163 OFFCURVE",
"469 123 OFFCURVE",
"374 123 CURVE SMOOTH",
"259 123 OFFCURVE",
"203 201 OFFCURVE",
"203 351 CURVE SMOOTH",
"203 501 OFFCURVE",
"258 576 OFFCURVE",
"376 576 CURVE SMOOTH",
"471 576 OFFCURVE",
"511 544 OFFCURVE",
"523 544 CURVE SMOOTH",
"548 544 OFFCURVE",
"588 610 OFFCURVE",
"588 638 CURVE SMOOTH",
"588 650 OFFCURVE",
"578 661 OFFCURVE",
"562 670 CURVE SMOOTH",
"522 694 OFFCURVE",
"442 708 OFFCURVE",
"379 708 CURVE SMOOTH",
"157 708 OFFCURVE",
"45 590 OFFCURVE",
"45 352 CURVE SMOOTH",
"45 105 OFFCURVE",
"150 -8 OFFCURVE",
"374 -8 CURVE SMOOTH"
);
}
);
width = 619;
}
);
leftKerningGroup = O;
rightKerningGroup = C;
unicode = 0043;
userData = {
RMXScaler = {
source = C;
};
};
},
{
color = 4;
glyphname = D;
layers = (
{
anchors = (
{
name = bottom;
position = "{327, 0}";
},
{
name = center;
position = "{141, 350}";
},
{
name = top;
position = "{312, 700}";
}
);
layerId = UUID0;
paths = (
{
closed = 1;
nodes = (
"329 0 LINE SMOOTH",
"501 0 OFFCURVE",
"638 90 OFFCURVE",
"638 350 CURVE SMOOTH",
"638 609 OFFCURVE",
"501 700 OFFCURVE",
"329 700 CURVE SMOOTH",
"127 700 LINE SMOOTH",
"106 700 OFFCURVE",
"97 691 OFFCURVE",
"97 670 CURVE SMOOTH",
"97 30 LINE SMOOTH",
"97 9 OFFCURVE",
"106 0 OFFCURVE",
"127 0 CURVE SMOOTH"
);
},
{
closed = 1;
nodes = (
"185 624 LINE",
"322 624 LINE SMOOTH",
"447 624 OFFCURVE",
"547 549 OFFCURVE",
"547 350 CURVE SMOOTH",
"547 150 OFFCURVE",
"447 76 OFFCURVE",
"322 76 CURVE SMOOTH",
"185 76 LINE"
);
}
);
width = 695;
},
{
anchors = (
{
name = bottom;
position = "{338, 0}";
},
{
name = center;
position = "{154, 350}";
},
{
name = top;
position = "{340, 700}";
}
);
layerId = "2C16E7AF-C861-4509-900A-75D3055B0FF7";
paths = (
{
closed = 1;
nodes = (
"330 0 LINE SMOOTH",
"536 0 OFFCURVE",
"650 124 OFFCURVE",
"650 350 CURVE SMOOTH",
"650 576 OFFCURVE",
"536 700 OFFCURVE",
"330 700 CURVE SMOOTH",
"116 700 LINE SMOOTH",
"88 700 OFFCURVE",
"76 688 OFFCURVE",
"76 660 CURVE SMOOTH",
"76 40 LINE SMOOTH",
"76 12 OFFCURVE",
"88 0 OFFCURVE",
"116 0 CURVE SMOOTH"
);
},
{
closed = 1;
nodes = (
"231 569 LINE",
"330 569 LINE SMOOTH",
"437 569 OFFCURVE",
"492 492 OFFCURVE",
"492 350 CURVE SMOOTH",
"492 208 OFFCURVE",
"437 131 OFFCURVE",
"330 131 CURVE SMOOTH",
"231 131 LINE"
);
}
);
width = 695;
}
);
leftMetricsKey = H;
rightKerningGroup = O;
unicode = 0044;
userData = {
RMXScaler = {
source = D;
};
};
},
{
color = 11;
glyphname = Eth;
layers = (
{
components = (
{
name = D;
}
);
layerId = UUID0;
paths = (
{
closed = 1;
nodes = (
"283 320 LINE SMOOTH",
"297 320 OFFCURVE",
"303 329 OFFCURVE",
"303 350 CURVE SMOOTH",
"303 366 LINE SMOOTH",
"303 387 OFFCURVE",
"297 396 OFFCURVE",
"283 396 CURVE SMOOTH",
"20 396 LINE SMOOTH",
"6 396 OFFCURVE",
"0 387 OFFCURVE",
"0 366 CURVE SMOOTH",
"0 350 LINE SMOOTH",
"0 329 OFFCURVE",
"6 320 OFFCURVE",
"20 320 CURVE SMOOTH"
);
}
);
width = 696;
},
{
components = (
{
name = D;
}
);
layerId = "2C16E7AF-C861-4509-900A-75D3055B0FF7";
paths = (
{
closed = 1;
nodes = (
"285 291 LINE SMOOTH",
"306 291 OFFCURVE",
"315 306 OFFCURVE",
"315 341 CURVE SMOOTH",
"315 371 LINE SMOOTH",
"315 406 OFFCURVE",
"306 421 OFFCURVE",
"285 421 CURVE SMOOTH",
"42 421 LINE SMOOTH",
"21 421 OFFCURVE",
"12 406 OFFCURVE",
"12 371 CURVE SMOOTH",
"12 341 LINE SMOOTH",
"12 306 OFFCURVE",
"21 291 OFFCURVE",
"42 291 CURVE SMOOTH"
);
}
);
width = 696;
}
);
rightKerningGroup = O;
unicode = 00D0;
userData = {
RMXScaler = {
source = Eth;
};
};
},
{
color = 4;
glyphname = E;
layers = (
{
anchors = (
{
name = bottom;
position = "{300, 0}";
},
{
name = ogonek;
position = "{457, 0}";
},
{
name = top;
position = "{296, 700}";
}
);
background = {
paths = (
{
closed = 0;
nodes = (
"495 662 LINE",
"140 662 LINE",
"140 38 LINE",
"496 38 LINE"
);
},
{
closed = 0;
nodes = (
"465 358 LINE",
"141 358 LINE"
);
}
);
};
layerId = UUID0;
paths = (
{
closed = 1;
nodes = (
"477 0 LINE SMOOTH",
"491 0 OFFCURVE",
"497 9 OFFCURVE",
"497 30 CURVE SMOOTH",
"497 46 LINE SMOOTH",
"497 67 OFFCURVE",
"491 76 OFFCURVE",
"477 76 CURVE SMOOTH",
"185 76 LINE",
"185 320 LINE",
"446 320 LINE SMOOTH",
"460 320 OFFCURVE",
"466 329 OFFCURVE",
"466 350 CURVE SMOOTH",
"466 366 LINE SMOOTH",
"466 387 OFFCURVE",
"460 396 OFFCURVE",
"446 396 CURVE SMOOTH",
"185 396 LINE",
"185 624 LINE",
"476 624 LINE SMOOTH",
"490 624 OFFCURVE",
"496 633 OFFCURVE",
"496 654 CURVE SMOOTH",
"496 670 LINE SMOOTH",
"496 691 OFFCURVE",
"490 700 OFFCURVE",
"476 700 CURVE SMOOTH",
"127 700 LINE SMOOTH",
"106 700 OFFCURVE",
"97 691 OFFCURVE",
"97 670 CURVE SMOOTH",
"97 30 LINE SMOOTH",
"97 9 OFFCURVE",
"106 0 OFFCURVE",
"127 0 CURVE SMOOTH"
);
}
);
width = 546;
},
{
anchors = (
{
name = bottom;
position = "{294, 0}";
},
{
name = ogonek;
position = "{429.5, 0}";
},
{
name = top;
position = "{302, 700}";
}
);
background = {
paths = (
{
closed = 1;
nodes = (
"229.5 132 LINE",
"229.5 568 LINE",
"476 568 LINE SMOOTH",
"499 568 OFFCURVE",
"512 581 OFFCURVE",
"512 604 CURVE SMOOTH",
"512 664 LINE SMOOTH",
"512 687 OFFCURVE",
"499 700 OFFCURVE",
"476 700 CURVE SMOOTH",
"114 700 LINE SMOOTH",
"88 700 OFFCURVE",
"75 686 OFFCURVE",
"75 660 CURVE SMOOTH",
"74.5 0 LINE",
"513 0 LINE",
"513 132 LINE"
);
},
{
closed = 1;
nodes = (
"485 292 LINE",
"485 424 LINE",
"153 424 LINE",
"153 292 LINE"
);
},
{
closed = 0;
nodes = (
"512 634 LINE",
"152 634 LINE",
"152 66 LINE",
"513 66 LINE"
);
},
{
closed = 0;
nodes = (
"485 358 LINE",
"153 358 LINE"
);
}
);
};
layerId = "2C16E7AF-C861-4509-900A-75D3055B0FF7";
paths = (
{
closed = 1;
nodes = (
"468 0 LINE SMOOTH",
"489 0 OFFCURVE",
"498 15 OFFCURVE",
"498 50 CURVE SMOOTH",
"498 81 LINE SMOOTH",
"498 116 OFFCURVE",
"489 131 OFFCURVE",
"468 131 CURVE SMOOTH",
"230 131 LINE",
"230 293 LINE",
"440 293 LINE SMOOTH",
"461 293 OFFCURVE",
"470 308 OFFCURVE",
"470 343 CURVE SMOOTH",
"470 374 LINE SMOOTH",
"470 409 OFFCURVE",
"461 424 OFFCURVE",
"440 424 CURVE SMOOTH",
"230 424 LINE",
"230 569 LINE",
"467 569 LINE SMOOTH",
"488 569 OFFCURVE",
"497 584 OFFCURVE",
"497 619 CURVE SMOOTH",
"497 650 LINE SMOOTH",
"497 685 OFFCURVE",
"488 700 OFFCURVE",
"467 700 CURVE SMOOTH",
"116 700 LINE SMOOTH",
"88 700 OFFCURVE",
"76 688 OFFCURVE",
"76 660 CURVE SMOOTH",
"76 40 LINE SMOOTH",
"76 12 OFFCURVE",
"88 0 OFFCURVE",
"116 0 CURVE SMOOTH"
);
}
);
width = 546;
}
);
leftMetricsKey = H;
rightKerningGroup = E;
unicode = 0045;
userData = {
RMXScaler = {
source = E;
};
};
},
{
color = 4;
glyphname = F;
layers = (
{
anchors = (
{
name = bottom;
position = "{141, 0}";
},
{
name = top;
position = "{284.5, 700}";
}
);
layerId = UUID0;
paths = (
{
closed = 1;
nodes = (
"145 -2 LINE SMOOTH",
"173 -2 OFFCURVE",
"185 6 OFFCURVE",
"185 20 CURVE SMOOTH",
"185 320 LINE",
"424 320 LINE SMOOTH",
"438 320 OFFCURVE",
"444 329 OFFCURVE",
"444 350 CURVE SMOOTH",
"444 366 LINE SMOOTH",
"444 387 OFFCURVE",
"438 396 OFFCURVE",
"424 396 CURVE SMOOTH",
"185 396 LINE",
"185 624 LINE",
"442 624 LINE SMOOTH",
"456 624 OFFCURVE",
"462 633 OFFCURVE",
"462 654 CURVE SMOOTH",
"462 670 LINE SMOOTH",
"462 691 OFFCURVE",
"456 700 OFFCURVE",
"442 700 CURVE SMOOTH",
"127 700 LINE SMOOTH",
"106 700 OFFCURVE",
"97 691 OFFCURVE",
"97 670 CURVE SMOOTH",
"97 20 LINE SMOOTH",
"97 6 OFFCURVE",
"109 -2 OFFCURVE",
"137 -2 CURVE SMOOTH"
);
}
);
width = 503;
},
{
anchors = (
{
name = bottom;
position = "{153, 0}";
},
{
name = top;
position = "{283, 700}";
}
);
layerId = "2C16E7AF-C861-4509-900A-75D3055B0FF7";
paths = (
{
closed = 1;
nodes = (
"170 -2 LINE SMOOTH",
"212 -2 OFFCURVE",
"230 9 OFFCURVE",
"230 30 CURVE SMOOTH",
"230 292 LINE",
"438 292 LINE SMOOTH",
"459 292 OFFCURVE",
"468 307 OFFCURVE",
"468 342 CURVE SMOOTH",
"468 373 LINE SMOOTH",
"468 408 OFFCURVE",
"459 423 OFFCURVE",
"438 423 CURVE SMOOTH",
"230 423 LINE",
"230 569 LINE",
"445 569 LINE SMOOTH",
"466 569 OFFCURVE",
"475 584 OFFCURVE",
"475 619 CURVE SMOOTH",
"475 650 LINE SMOOTH",
"475 685 OFFCURVE",
"466 700 OFFCURVE",
"445 700 CURVE SMOOTH",
"116 700 LINE SMOOTH",
"88 700 OFFCURVE",
"76 688 OFFCURVE",
"76 660 CURVE SMOOTH",
"76 30 LINE SMOOTH",
"76 9 OFFCURVE",
"94 -2 OFFCURVE",
"136 -2 CURVE SMOOTH"
);
}
);
width = 503;
}
);
leftMetricsKey = H;
rightKerningGroup = F;
unicode = 0046;
userData = {
RMXScaler = {
source = F;
};
};
},
{
color = 4;
glyphname = G;
layers = (
{
anchors = (
{
name = bottom;
position = "{387, 0}";
},
{
name = top;
position = "{336, 700}";
}
);
layerId = UUID0;
paths = (
{
closed = 1;
nodes = (
"480 -6 OFFCURVE",
"589 10 OFFCURVE",
"589 66 CURVE SMOOTH",
"589 331 LINE SMOOTH",
"589 352 OFFCURVE",
"580 361 OFFCURVE",
"559 361 CURVE SMOOTH",
"384 361 LINE SMOOTH",
"370 361 OFFCURVE",
"364 352 OFFCURVE",
"364 331 CURVE SMOOTH",
"364 315 LINE SMOOTH",
"364 294 OFFCURVE",
"370 285 OFFCURVE",
"384 285 CURVE SMOOTH",
"501 285 LINE",
"501 48.5 LINE",
"513 87 LINE",
"491.5 78.5 OFFCURVE",
"433 70 OFFCURVE",
"372 70 CURVE SMOOTH",
"194 70 OFFCURVE",
"148 200 OFFCURVE",
"148 353 CURVE SMOOTH",
"148 527 OFFCURVE",
"206 630 OFFCURVE",
"383 630 CURVE SMOOTH",
"479 630 OFFCURVE",
"527 586 OFFCURVE",
"538 586 CURVE SMOOTH",
"551 586 OFFCURVE",
"572 627 OFFCURVE",
"572 644 CURVE SMOOTH",
"572 671 OFFCURVE",
"480 706 OFFCURVE",
"381 706 CURVE SMOOTH",
"172 706 OFFCURVE",
"57 593 OFFCURVE",
"57 344 CURVE SMOOTH",
"57 106 OFFCURVE",
"167 -6 OFFCURVE",
"366 -6 CURVE SMOOTH"
);
}
);
width = 672;
},
{
anchors = (
{
name = bottom;
position = "{355, 0}";
},
{
name = top;
position = "{350, 700}";
}
);
layerId = "2C16E7AF-C861-4509-900A-75D3055B0FF7";
paths = (
{
closed = 1;
nodes = (
"445 -8 OFFCURVE",
"607 2 OFFCURVE",
"607 71 CURVE SMOOTH",
"607 349 LINE SMOOTH",
"607 377 OFFCURVE",
"595 389 OFFCURVE",
"567 389 CURVE SMOOTH",
"364 389 LINE SMOOTH",
"343 389 OFFCURVE",
"334 374 OFFCURVE",
"334 339 CURVE SMOOTH",
"334 307 LINE SMOOTH",
"334 272 OFFCURVE",
"343 257 OFFCURVE",
"364 257 CURVE SMOOTH",
"452 257 LINE",
"452 72 LINE",
"496 139.5 LINE",
"446.5 127.5 OFFCURVE",
"416 123 OFFCURVE",
"374 123 CURVE SMOOTH",
"259 123 OFFCURVE",
"203 201 OFFCURVE",
"203 351 CURVE SMOOTH",
"203 501 OFFCURVE",
"258 576 OFFCURVE",
"376 576 CURVE SMOOTH",
"471 576 OFFCURVE",
"516 544 OFFCURVE",
"528 544 CURVE SMOOTH",
"553 544 OFFCURVE",
"593 610 OFFCURVE",
"593 638 CURVE SMOOTH",
"593 680 OFFCURVE",
"467 708 OFFCURVE",
"379 708 CURVE SMOOTH",
"157 708 OFFCURVE",
"45 590 OFFCURVE",
"45 352 CURVE SMOOTH",
"45 105 OFFCURVE",
"150 -8 OFFCURVE",
"374 -8 CURVE SMOOTH"
);
}
);
width = 672;
}
);
leftKerningGroup = O;
unicode = 0047;
userData = {
RMXScaler = {
source = G;
};
};
},
{
color = 4;
glyphname = H;
layers = (
{
anchors = (
{
name = bottom;
position = "{366, 0}";
},
{
name = center;
position = "{366, 523}";
},
{
name = top;
position = "{366, 700}";
}
);
layerId = UUID0;
paths = (
{
closed = 1;
nodes = (
"145 -2 LINE SMOOTH",
"173 -2 OFFCURVE",
"185 6 OFFCURVE",
"185 20 CURVE SMOOTH",
"185 321 LINE",
"547 321 LINE",
"547 20 LINE SMOOTH",
"547 6 OFFCURVE",
"559 -2 OFFCURVE",
"587 -2 CURVE SMOOTH",
"595 -2 LINE SMOOTH",
"623 -2 OFFCURVE",
"635 6 OFFCURVE",
"635 20 CURVE SMOOTH",
"635 680 LINE SMOOTH",
"635 694 OFFCURVE",
"623 702 OFFCURVE",
"595 702 CURVE SMOOTH",
"587 702 LINE SMOOTH",
"559 702 OFFCURVE",
"547 694 OFFCURVE",
"547 680 CURVE SMOOTH",
"547 397 LINE",
"185 397 LINE",
"185 680 LINE SMOOTH",
"185 694 OFFCURVE",
"173 702 OFFCURVE",
"145 702 CURVE SMOOTH",
"137 702 LINE SMOOTH",
"109 702 OFFCURVE",
"97 694 OFFCURVE",
"97 680 CURVE SMOOTH",
"97 20 LINE SMOOTH",
"97 6 OFFCURVE",
"109 -2 OFFCURVE",
"137 -2 CURVE SMOOTH"
);
}
);
width = 733;
},
{
anchors = (
{
name = bottom;
position = "{366, 0}";
},
{
name = center;
position = "{366, 523}";
},
{
name = top;
position = "{366, 700}";
}
);
layerId = "2C16E7AF-C861-4509-900A-75D3055B0FF7";
paths = (
{
closed = 1;
nodes = (
"171 -2 LINE SMOOTH",
"213 -2 OFFCURVE",
"231 9 OFFCURVE",
"231 30 CURVE SMOOTH",
"231 291 LINE",
"501 291 LINE",
"501 30 LINE SMOOTH",
"501 9 OFFCURVE",
"519 -2 OFFCURVE",
"561 -2 CURVE SMOOTH",
"596 -2 LINE SMOOTH",
"638 -2 OFFCURVE",
"656 9 OFFCURVE",
"656 30 CURVE SMOOTH",
"656 670 LINE SMOOTH",
"656 691 OFFCURVE",
"638 702 OFFCURVE",
"596 702 CURVE SMOOTH",
"561 702 LINE SMOOTH",
"519 702 OFFCURVE",
"501 691 OFFCURVE",
"501 670 CURVE SMOOTH",
"501 423 LINE",
"231 423 LINE",
"231 670 LINE SMOOTH",
"231 691 OFFCURVE",
"213 702 OFFCURVE",
"171 702 CURVE SMOOTH",
"136 702 LINE SMOOTH",
"94 702 OFFCURVE",
"76 691 OFFCURVE",
"76 670 CURVE SMOOTH",
"76 30 LINE SMOOTH",
"76 9 OFFCURVE",
"94 -2 OFFCURVE",
"136 -2 CURVE SMOOTH"
);
}
);
width = 733;
}
);
unicode = 0048;
userData = {
RMXScaler = {
source = H;
};
};
},
{
color = 4;
glyphname = I;
layers = (
{
anchors = (
{
name = bottom;
position = "{140, 0}";
},
{
name = ogonek;
position = "{166, 0}";
},
{
name = top;
position = "{141, 700}";
}
);
layerId = UUID0;
paths = (
{
closed = 1;
nodes = (
"145 -2 LINE SMOOTH",
"173 -2 OFFCURVE",
"185 6 OFFCURVE",
"185 20 CURVE SMOOTH",
"185 680 LINE SMOOTH",
"185 694 OFFCURVE",
"173 702 OFFCURVE",
"145 702 CURVE SMOOTH",
"137 702 LINE SMOOTH",
"109 702 OFFCURVE",
"97 694 OFFCURVE",
"97 680 CURVE SMOOTH",
"97 20 LINE SMOOTH",
"97 6 OFFCURVE",
"109 -2 OFFCURVE",
"137 -2 CURVE SMOOTH"
);
}
);
width = 283;
},
{
anchors = (
{
name = bottom;
position = "{142, 0}";
},
{
name = ogonek;
position = "{183, 0}";
},
{
name = top;
position = "{142, 700}";
}
);
layerId = "2C16E7AF-C861-4509-900A-75D3055B0FF7";
paths = (
{
closed = 1;
nodes = (
"159 -3 LINE SMOOTH",
"201 -3 OFFCURVE",
"219 9 OFFCURVE",
"219 30 CURVE SMOOTH",
"219 670 LINE SMOOTH",
"219 691 OFFCURVE",
"201 703 OFFCURVE",
"159 703 CURVE SMOOTH",
"124 703 LINE SMOOTH",
"82 703 OFFCURVE",
"64 691 OFFCURVE",
"64 670 CURVE SMOOTH",
"64 30 LINE SMOOTH",
"64 9 OFFCURVE",
"82 -3 OFFCURVE",
"124 -3 CURVE SMOOTH"
);
}
);
width = 283;
}
);
unicode = 0049;
userData = {
RMXScaler = {
source = I;
};
};
},
{
color = 4;
glyphname = J;
layers = (
{
anchors = (
{
name = top;
position = "{271, 700}";
}
);
layerId = UUID0;
paths = (
{
closed = 1;
nodes = (
"261 -6 OFFCURVE",
"319 79 OFFCURVE",
"319 205 CURVE SMOOTH",
"319 680 LINE SMOOTH",
"319 694 OFFCURVE",
"307 702 OFFCURVE",
"279 702 CURVE SMOOTH",
"271 702 LINE SMOOTH",
"243 702 OFFCURVE",
"231 694 OFFCURVE",
"231 680 CURVE SMOOTH",
"231 195 LINE SMOOTH",
"231 109 OFFCURVE",
"190 72 OFFCURVE",
"91 72 CURVE SMOOTH",
"59 72 OFFCURVE",
"36 81 OFFCURVE",
"28 81 CURVE SMOOTH",
"12 81 OFFCURVE",
"6 30 OFFCURVE",
"6 26 CURVE SMOOTH",
"6 -1 OFFCURVE",
"69 -6 OFFCURVE",
"107 -6 CURVE SMOOTH"
);
}
);
width = 402;
},
{
anchors = (
{
name = top;
position = "{261, 700}";
}
);
layerId = "2C16E7AF-C861-4509-900A-75D3055B0FF7";
paths = (
{
closed = 1;
nodes = (
"273 -8 OFFCURVE",
"336 75 OFFCURVE",
"336 202 CURVE SMOOTH",
"336 670 LINE SMOOTH",
"336 691 OFFCURVE",
"318 703 OFFCURVE",
"276 703 CURVE SMOOTH",
"241 703 LINE SMOOTH",
"199 703 OFFCURVE",
"181 691 OFFCURVE",
"181 670 CURVE SMOOTH",
"181 227 LINE SMOOTH",
"181 154 OFFCURVE",
"157 123 OFFCURVE",
"97 123 CURVE SMOOTH",
"65 123 OFFCURVE",
"51 131 OFFCURVE",
"41 131 CURVE",
"10 128 OFFCURVE",
"0 56 OFFCURVE",
"0 38 CURVE SMOOTH",
"0 -5 OFFCURVE",
"100 -8 OFFCURVE",
"124 -8 CURVE SMOOTH"
);
}
);
width = 402;
}
);
leftKerningGroup = J;
unicode = 004A;
userData = {
RMXScaler = {
source = J;
};
};
},
{
color = 4;
glyphname = K;
layers = (
{
anchors = (
{
name = bottom;
position = "{288, 0}";
},
{
name = top;
position = "{288, 700}";
}
);
layerId = UUID0;
paths = (
{
closed = 1;
nodes = (
"145 -2 LINE SMOOTH",
"173 -2 OFFCURVE",
"185 6 OFFCURVE",
"185 20 CURVE SMOOTH",
"185 333 LINE",
"189 333 LINE",
"475 11 LINE SMOOTH",
"487 -2 OFFCURVE",
"508 -2 OFFCURVE",
"530 -2 CURVE SMOOTH",
"542 -2 LINE SMOOTH",
"573 -2 OFFCURVE",
"586 1 OFFCURVE",
"586 12 CURVE SMOOTH",
"586 16 OFFCURVE",
"584 20 OFFCURVE",
"577 28 CURVE SMOOTH",
"274 357 LINE",
"524 669 LINE SMOOTH",
"531 677 OFFCURVE",
"534 684 OFFCURVE",
"534 689 CURVE SMOOTH",
"534 696 OFFCURVE",
"523 702 OFFCURVE",
"499 702 CURVE SMOOTH",
"489 702 LINE SMOOTH",
"467 702 OFFCURVE",
"444 699 OFFCURVE",
"435 688 CURVE SMOOTH",
"189 374 LINE",
"185 374 LINE",
"185 680 LINE SMOOTH",
"185 694 OFFCURVE",
"173 702 OFFCURVE",
"145 702 CURVE SMOOTH",
"137 702 LINE SMOOTH",
"109 702 OFFCURVE",
"97 694 OFFCURVE",
"97 680 CURVE SMOOTH",
"97 20 LINE SMOOTH",
"97 6 OFFCURVE",
"109 -2 OFFCURVE",
"137 -2 CURVE SMOOTH"
);
}
);
width = 576;
},
{
anchors = (
{
name = bottom;
position = "{298, 0}";
},
{
name = top;
position = "{308, 700}";
}
);
layerId = "2C16E7AF-C861-4509-900A-75D3055B0FF7";
paths = (
{
closed = 1;
nodes = (
"164 -2 LINE SMOOTH",
"206 -2 OFFCURVE",
"224 9 OFFCURVE",
"224 30 CURVE SMOOTH",
"224 320 LINE",
"228 321 LINE",
"416 17 LINE SMOOTH",
"425 2 OFFCURVE",
"448 -2 OFFCURVE",
"477 -2 CURVE SMOOTH",
"535 -2 LINE SMOOTH",
"574 -2 OFFCURVE",
"591 4 OFFCURVE",
"591 13 CURVE SMOOTH",
"591 18 OFFCURVE",
"589 25 OFFCURVE",
"583 34 CURVE SMOOTH",
"364 370 LINE",
"557 666 LINE SMOOTH",
"563 675 OFFCURVE",
"565 682 OFFCURVE",
"565 687 CURVE SMOOTH",
"565 696 OFFCURVE",
"548 702 OFFCURVE",
"509 702 CURVE SMOOTH",
"462 702 LINE SMOOTH",
"433 702 OFFCURVE",
"411 698 OFFCURVE",
"402 683 CURVE SMOOTH",
"228 401 LINE",
"224 402 LINE",
"224 670 LINE SMOOTH",
"224 691 OFFCURVE",
"206 702 OFFCURVE",
"164 702 CURVE SMOOTH",
"129 702 LINE SMOOTH",
"87 702 OFFCURVE",
"69 691 OFFCURVE",
"69 670 CURVE SMOOTH",
"69 30 LINE SMOOTH",
"69 9 OFFCURVE",
"87 -2 OFFCURVE",
"129 -2 CURVE SMOOTH"
);
}
);
width = 576;
}
);
rightKerningGroup = K;
unicode = 004B;
userData = {
RMXScaler = {
source = K;
};
};
},
{
color = 4;
glyphname = L;
layers = (
{
anchors = (
{
name = bottom;
position = "{282, 0}";
},
{
name = caron;
position = "{245, 700}";
},
{
name = center;
position = "{327, 335}";
},
{
name = top;
position = "{145, 702}";
}
);
layerId = UUID0;
paths = (
{
closed = 1;
nodes = (
"460 0 LINE SMOOTH",
"474 0 OFFCURVE",
"480 9 OFFCURVE",
"480 30 CURVE SMOOTH",
"480 46 LINE SMOOTH",
"480 67 OFFCURVE",
"474 76 OFFCURVE",
"460 76 CURVE SMOOTH",
"185 76 LINE",
"185 680 LINE SMOOTH",
"185 694 OFFCURVE",
"173 702 OFFCURVE",
"145 702 CURVE SMOOTH",
"137 702 LINE SMOOTH",
"109 702 OFFCURVE",
"97 694 OFFCURVE",
"97 680 CURVE SMOOTH",
"97 30 LINE SMOOTH",
"97 9 OFFCURVE",
"106 0 OFFCURVE",
"127 0 CURVE SMOOTH"
);
}
);
width = 484;
},
{
anchors = (
{
name = bottom;
position = "{249, 0}";
},
{
name = caron;
position = "{269, 700}";
},
{
name = center;
position = "{344, 335}";
},
{
name = top;
position = "{157, 700}";
}
);
layerId = "2C16E7AF-C861-4509-900A-75D3055B0FF7";
paths = (
{
closed = 1;
nodes = (
"446 0 LINE SMOOTH",
"467 0 OFFCURVE",
"476 15 OFFCURVE",
"476 50 CURVE SMOOTH",
"476 81 LINE SMOOTH",
"476 116 OFFCURVE",
"467 131 OFFCURVE",
"446 131 CURVE SMOOTH",
"230 131 LINE",
"230 670 LINE SMOOTH",
"230 691 OFFCURVE",
"212 702 OFFCURVE",
"170 702 CURVE SMOOTH",
"136 702 LINE SMOOTH",
"94 702 OFFCURVE",
"76 691 OFFCURVE",
"76 670 CURVE SMOOTH",
"76 40 LINE SMOOTH",
"76 12 OFFCURVE",
"88 0 OFFCURVE",
"116 0 CURVE SMOOTH"
);
}
);
width = 484;
}
);
leftMetricsKey = H;
rightKerningGroup = L;
unicode = 004C;
userData = {
RMXScaler = {
source = L;
};
};
},
{
color = 11;
glyphname = LJ;
layers = (
{
layerId = UUID0;
paths = (
{
closed = 1;
nodes = (
"582 -156 OFFCURVE",
"640 -71 OFFCURVE",
"640 55 CURVE SMOOTH",
"640 680 LINE SMOOTH",
"640 694 OFFCURVE",
"628 702 OFFCURVE",
"600 702 CURVE SMOOTH",
"592 702 LINE SMOOTH",
"564 702 OFFCURVE",
"552 694 OFFCURVE",
"552 680 CURVE SMOOTH",
"552 45 LINE SMOOTH",
"552 -41 OFFCURVE",
"511 -78 OFFCURVE",
"412 -78 CURVE SMOOTH",
"380 -78 OFFCURVE",
"357 -69 OFFCURVE",
"349 -69 CURVE SMOOTH",
"333 -69 OFFCURVE",
"327 -120 OFFCURVE",
"327 -124 CURVE SMOOTH",
"327 -151 OFFCURVE",
"390 -156 OFFCURVE",
"428 -156 CURVE SMOOTH"
);
},
{
closed = 1;
nodes = (
"390 0 LINE SMOOTH",
"404 0 OFFCURVE",
"410 9 OFFCURVE",
"410 30 CURVE SMOOTH",
"410 46 LINE SMOOTH",
"410 67 OFFCURVE",
"404 76 OFFCURVE",
"390 76 CURVE SMOOTH",
"185 76 LINE",
"185 680 LINE SMOOTH",
"185 694 OFFCURVE",
"173 702 OFFCURVE",
"145 702 CURVE SMOOTH",
"137 702 LINE SMOOTH",
"109 702 OFFCURVE",
"97 694 OFFCURVE",
"97 680 CURVE SMOOTH",
"97 30 LINE SMOOTH",
"97 9 OFFCURVE",
"106 0 OFFCURVE",
"127 0 CURVE SMOOTH"
);
}
);
width = 725;
},
{
layerId = "2C16E7AF-C861-4509-900A-75D3055B0FF7";
paths = (
{
closed = 1;
nodes = (
"604 -181 OFFCURVE",
"667 -85 OFFCURVE",
"667 42 CURVE SMOOTH",
"667 670 LINE SMOOTH",
"667 691 OFFCURVE",
"649 703 OFFCURVE",
"607 703 CURVE SMOOTH",
"572 703 LINE SMOOTH",
"530 703 OFFCURVE",
"512 691 OFFCURVE",
"512 670 CURVE SMOOTH",
"512 54 LINE SMOOTH",
"512 -19 OFFCURVE",
"488 -50 OFFCURVE",
"428 -50 CURVE SMOOTH",
"396 -50 OFFCURVE",
"382 -42 OFFCURVE",
"372 -42 CURVE",
"341 -45 OFFCURVE",
"331 -117 OFFCURVE",
"331 -135 CURVE SMOOTH",
"331 -178 OFFCURVE",
"431 -181 OFFCURVE",
"455 -181 CURVE SMOOTH"
);
},
{
closed = 1;
nodes = (
"383 0 LINE SMOOTH",
"404 0 OFFCURVE",
"413 15 OFFCURVE",
"413 50 CURVE SMOOTH",
"413 81 LINE SMOOTH",
"413 116 OFFCURVE",
"404 131 OFFCURVE",
"383 131 CURVE SMOOTH",
"230 131 LINE",
"230 670 LINE SMOOTH",
"230 691 OFFCURVE",
"212 702 OFFCURVE",
"170 702 CURVE SMOOTH",
"136 702 LINE SMOOTH",
"94 702 OFFCURVE",
"76 691 OFFCURVE",
"76 670 CURVE SMOOTH",
"76 40 LINE SMOOTH",
"76 12 OFFCURVE",
"88 0 OFFCURVE",
"116 0 CURVE SMOOTH"
);
}
);
width = 725;
}
);
leftMetricsKey = L;
unicode = 01C7;
userData = {
RMXScaler = {
source = LJ;
};
};
},
{
color = 11;
glyphname = Lslash;
layers = (
{
components = (
{
name = L;
}
);
layerId = UUID0;
paths = (
{
closed = 1;
nodes = (
"9 304 OFFCURVE",
"13 305.5 OFFCURVE",
"17 308 CURVE SMOOTH",
"281 465 LINE SMOOTH",
"293 472 OFFCURVE",
"300 481 OFFCURVE",
"300 495 CURVE SMOOTH",
"300 501 LINE SMOOTH",
"300 510 OFFCURVE",
"296 515 OFFCURVE",
"291 515 CURVE SMOOTH",
"288 515 OFFCURVE",
"285 513 OFFCURVE",
"281 511 CURVE SMOOTH",
"17 354 LINE SMOOTH",
"5 347 OFFCURVE",
"-2 338 OFFCURVE",
"-2 324 CURVE SMOOTH",
"-2 318 LINE SMOOTH",
"-2 309 OFFCURVE",
"2 304 OFFCURVE",
"7 304 CURVE SMOOTH"
);
}
);
width = 486;
},
{
components = (
{
name = L;
}
);
layerId = "2C16E7AF-C861-4509-900A-75D3055B0FF7";
paths = (
{
closed = 1;
nodes = (
"41 284 OFFCURVE",
"46 285 OFFCURVE",
"52 289 CURVE SMOOTH",
"312 448 LINE SMOOTH",
"330 459 OFFCURVE",
"338 473 OFFCURVE",
"338 494 CURVE SMOOTH",
"338 514 LINE SMOOTH",
"338 527 OFFCURVE",
"334 534 OFFCURVE",
"327 534 CURVE SMOOTH",
"323 534 OFFCURVE",
"318 532 OFFCURVE",
"312 528 CURVE SMOOTH",
"52 369 LINE SMOOTH",
"34 358 OFFCURVE",
"26 346 OFFCURVE",
"26 324 CURVE SMOOTH",
"26 304 LINE SMOOTH",
"26 290 OFFCURVE",
"29 284 OFFCURVE",
"37 284 CURVE SMOOTH"
);
}
);
width = 486;
}
);
rightKerningGroup = L;
unicode = 0141;
userData = {
RMXScaler = {
source = Lslash;
};
};
},
{
color = 4;
glyphname = M;
layers = (
{
background = {
paths = (
{
closed = 0;
nodes = (
"177 507 LINE SMOOTH",
"177 526 OFFCURVE",
"177 544 OFFCURVE",
"175 562 CURVE",
"179 563 LINE",
"187 547 OFFCURVE",
"194 533 OFFCURVE",
"203 518 CURVE SMOOTH"
);
},
{
closed = 0;
nodes = (
"666 501 LINE SMOOTH",
"666 520 OFFCURVE",
"666 538 OFFCURVE",
"668 556 CURVE",
"664 557 LINE",
"656 541 OFFCURVE",
"649 527 OFFCURVE",
"640 512 CURVE SMOOTH"
);
}
);
};
layerId = UUID0;
paths = (
{
closed = 1;
nodes = (
"443 195 LINE SMOOTH",
"454 195 OFFCURVE",
"460 199 OFFCURVE",
"465 208 CURVE SMOOTH",
"640 512 LINE SMOOTH",
"649 527 OFFCURVE",
"656 541 OFFCURVE",
"664 557 CURVE",
"668 556 LINE",
"666 538 OFFCURVE",
"666 520 OFFCURVE",
"666 501 CURVE SMOOTH",
"666 20 LINE SMOOTH",
"666 6 OFFCURVE",
"678 -2 OFFCURVE",
"706 -2 CURVE SMOOTH",
"713 -2 LINE SMOOTH",
"741 -2 OFFCURVE",
"753 6 OFFCURVE",
"753 20 CURVE SMOOTH",
"753 680 LINE SMOOTH",
"753 694 OFFCURVE",
"741 702 OFFCURVE",
"713 702 CURVE SMOOTH",
"680 702 LINE SMOOTH",
"656 702 OFFCURVE",
"644 695 OFFCURVE",
"638 684 CURVE SMOOTH",
"454 359 LINE SMOOTH",
"445 343 OFFCURVE",
"430 315 OFFCURVE",
"423 293 CURVE",
"418 314 OFFCURVE",
"407 339 OFFCURVE",
"397 356 CURVE SMOOTH",
"208 684 LINE SMOOTH",
"202 695 OFFCURVE",
"190 702 OFFCURVE",
"166 702 CURVE SMOOTH",
"130 702 LINE SMOOTH",
"102 702 OFFCURVE",
"90 694 OFFCURVE",
"90 680 CURVE SMOOTH",
"90 20 LINE SMOOTH",
"90 6 OFFCURVE",
"102 -2 OFFCURVE",
"130 -2 CURVE SMOOTH",
"137 -2 LINE SMOOTH",
"165 -2 OFFCURVE",
"177 6 OFFCURVE",
"177 20 CURVE SMOOTH",
"177 507 LINE SMOOTH",
"177 526 OFFCURVE",
"177 544 OFFCURVE",
"175 562 CURVE",
"179 563 LINE",
"187 547 OFFCURVE",
"194 533 OFFCURVE",
"203 518 CURVE SMOOTH",
"381 208 LINE SMOOTH",
"386 199 OFFCURVE",
"393 195 OFFCURVE",
"403 195 CURVE SMOOTH"
);
}
);
width = 843;
},
{
background = {
paths = (
{
closed = 0;
nodes = (
"218 395 LINE SMOOTH",
"218 412 OFFCURVE",
"218 428 OFFCURVE",
"218 444 CURVE",
"222 445 LINE",
"229 431 OFFCURVE",
"236 419 OFFCURVE",
"244 406 CURVE SMOOTH"
);
},
{
closed = 0;
nodes = (
"625 395 LINE SMOOTH",
"625 412 OFFCURVE",
"625 428 OFFCURVE",
"625 444 CURVE",
"621 445 LINE",
"614 431 OFFCURVE",
"607 419 OFFCURVE",
"599 406 CURVE SMOOTH"
);
}
);
};
layerId = "2C16E7AF-C861-4509-900A-75D3055B0FF7";
paths = (
{
closed = 1;
nodes = (
"436 167 LINE SMOOTH",
"455 167 OFFCURVE",
"467 174 OFFCURVE",
"476 186 CURVE",
"599 406 LINE SMOOTH",
"607 419 OFFCURVE",
"614 431 OFFCURVE",
"621 445 CURVE",
"625 444 LINE",
"625 428 OFFCURVE",
"625 412 OFFCURVE",
"625 395 CURVE SMOOTH",
"625 30 LINE SMOOTH",
"625 9 OFFCURVE",
"643 -2 OFFCURVE",
"685 -2 CURVE SMOOTH",
"714 -2 LINE SMOOTH",
"756 -2 OFFCURVE",
"774 9 OFFCURVE",
"774 30 CURVE SMOOTH",
"774 670 LINE SMOOTH",
"774 691 OFFCURVE",
"756 702 OFFCURVE",
"714 702 CURVE SMOOTH",
"662 702 LINE SMOOTH",
"633 702 OFFCURVE",
"610 695 OFFCURVE",
"599 675 CURVE SMOOTH",
"430 379 LINE SMOOTH",
"427 373 OFFCURVE",
"424 368 OFFCURVE",
"421 362 CURVE",
"418 368 OFFCURVE",
"414 373 OFFCURVE",
"411 379 CURVE SMOOTH",
"245 675 LINE SMOOTH",
"234 695 OFFCURVE",
"211 702 OFFCURVE",
"182 702 CURVE SMOOTH",
"129 702 LINE SMOOTH",
"87 702 OFFCURVE",
"69 691 OFFCURVE",
"69 670 CURVE SMOOTH",
"69 30 LINE SMOOTH",
"69 9 OFFCURVE",
"87 -2 OFFCURVE",
"129 -2 CURVE SMOOTH",
"158 -2 LINE SMOOTH",
"200 -2 OFFCURVE",
"218 9 OFFCURVE",
"218 30 CURVE SMOOTH",
"218 395 LINE SMOOTH",
"218 412 OFFCURVE",
"218 428 OFFCURVE",
"218 444 CURVE",
"222 445 LINE",
"229 431 OFFCURVE",
"236 419 OFFCURVE",
"244 406 CURVE SMOOTH",
"367 186 LINE",
"376 174 OFFCURVE",
"388 167 OFFCURVE",
"407 167 CURVE SMOOTH"
);
}
);
width = 843;
}
);
unicode = 004D;
userData = {
RMXScaler = {
source = M;
};
};
},
{
color = 4;
glyphname = N;
layers = (
{
anchors = (
{
name = bottom;
position = "{360, 0}";
},
{
name = top;
position = "{360, 700}";
}
);
background = {
paths = (
{
closed = 0;
nodes = (
"177 489 LINE SMOOTH",
"177 518 OFFCURVE",
"177 534 OFFCURVE",
"175 557 CURVE",
"179 558 LINE",
"189 537 OFFCURVE",
"199 518 OFFCURVE",
"212 498 CURVE SMOOTH"
);
},
{
closed = 0;
nodes = (
"542 218 LINE SMOOTH",
"542 189 OFFCURVE",
"542 173 OFFCURVE",
"544 150 CURVE",
"540 149 LINE",
"530 170 OFFCURVE",
"520 189 OFFCURVE",
"507 209 CURVE SMOOTH"
);
}
);
};
layerId = UUID0;
paths = (
{
closed = 1;
nodes = (
"137 -2 LINE SMOOTH",
"165 -2 OFFCURVE",
"177 6 OFFCURVE",
"177 20 CURVE SMOOTH",
"177 489 LINE SMOOTH",
"177 518 OFFCURVE",
"177 534 OFFCURVE",
"175 557 CURVE",
"179 558 LINE",
"189 537 OFFCURVE",
"199 518 OFFCURVE",
"212 498 CURVE SMOOTH",
"534 12 LINE SMOOTH",
"540 3 OFFCURVE",
"550 -2 OFFCURVE",
"569 -2 CURVE SMOOTH",
"589 -2 LINE SMOOTH",
"617 -2 OFFCURVE",
"629 6 OFFCURVE",
"629 20 CURVE SMOOTH",
"629 680 LINE SMOOTH",
"629 694 OFFCURVE",
"617 702 OFFCURVE",
"589 702 CURVE SMOOTH",
"582 702 LINE SMOOTH",
"554 702 OFFCURVE",
"542 694 OFFCURVE",
"542 680 CURVE SMOOTH",
"542 218 LINE SMOOTH",
"542 189 OFFCURVE",
"542 173 OFFCURVE",
"544 150 CURVE",
"540 149 LINE",
"530 170 OFFCURVE",
"520 189 OFFCURVE",
"507 209 CURVE SMOOTH",
"193 683 LINE SMOOTH",
"184 697 OFFCURVE",
"173 702 OFFCURVE",
"151 702 CURVE SMOOTH",
"130 702 LINE SMOOTH",
"102 702 OFFCURVE",
"90 694 OFFCURVE",
"90 680 CURVE SMOOTH",
"90 20 LINE SMOOTH",
"90 6 OFFCURVE",
"102 -2 OFFCURVE",
"130 -2 CURVE SMOOTH"
);
}
);
width = 719;
},
{
anchors = (
{
name = bottom;
position = "{360, 0}";
},
{
name = top;
position = "{360, 700}";
}
);
background = {
paths = (
{
closed = 0;
nodes = (
"218 367 LINE",
"218 396 OFFCURVE",
"218 412 OFFCURVE",
"216 435 CURVE",
"220 436 LINE",
"231 415 OFFCURVE",
"242 397 OFFCURVE",
"256 377 CURVE SMOOTH"
);
},
{
closed = 0;
nodes = (
"501 338 LINE",
"501 309 OFFCURVE",
"501 293 OFFCURVE",
"503 270 CURVE",
"499 269 LINE",
"488 290 OFFCURVE",
"477 308 OFFCURVE",
"463 328 CURVE SMOOTH"
);
}
);
};
layerId = "2C16E7AF-C861-4509-900A-75D3055B0FF7";
paths = (
{
closed = 1;
nodes = (
"158 -2 LINE SMOOTH",
"200 -2 OFFCURVE",
"218 9 OFFCURVE",
"218 30 CURVE SMOOTH",
"218 367 LINE SMOOTH",
"218 396 OFFCURVE",
"218 412 OFFCURVE",
"216 435 CURVE",
"220 436 LINE",
"231 415 OFFCURVE",
"242 397 OFFCURVE",
"256 377 CURVE SMOOTH",
"486 25 LINE SMOOTH",
"501 2 OFFCURVE",
"523 -2 OFFCURVE",
"552 -2 CURVE SMOOTH",
"590 -2 LINE SMOOTH",
"632 -2 OFFCURVE",
"650 9 OFFCURVE",
"650 30 CURVE SMOOTH",
"650 670 LINE SMOOTH",
"650 691 OFFCURVE",
"632 702 OFFCURVE",
"590 702 CURVE SMOOTH",
"561 702 LINE SMOOTH",
"519 702 OFFCURVE",
"501 691 OFFCURVE",
"501 670 CURVE SMOOTH",
"501 338 LINE SMOOTH",
"501 309 OFFCURVE",
"501 293 OFFCURVE",
"503 270 CURVE",
"499 269 LINE",
"488 290 OFFCURVE",
"477 308 OFFCURVE",
"463 328 CURVE SMOOTH",
"238 675 LINE SMOOTH",
"223 698 OFFCURVE",
"201 702 OFFCURVE",
"172 702 CURVE SMOOTH",
"129 702 LINE SMOOTH",
"87 702 OFFCURVE",
"69 691 OFFCURVE",
"69 670 CURVE SMOOTH",
"69 30 LINE SMOOTH",
"69 9 OFFCURVE",
"87 -2 OFFCURVE",
"129 -2 CURVE SMOOTH"
);
}
);
width = 719;
}
);
unicode = 004E;
userData = {
RMXScaler = {
source = N;
};
};
},
{
color = 11;
glyphname = Eng;
layers = (
{
background = {
paths = (
{
closed = 1;
nodes = (
"165 -2 OFFCURVE",
"177 6 OFFCURVE",
"177 20 CURVE SMOOTH",
"177 561 LINE",
"204 510 LINE",
"558 -24 LINE",
"629 20 LINE",
"629 680 LINE SMOOTH",
"629 694 OFFCURVE",
"617 702 OFFCURVE",
"589 702 CURVE SMOOTH",
"582 702 LINE SMOOTH",
"554 702 OFFCURVE",
"542 694 OFFCURVE",
"542 680 CURVE SMOOTH",
"542 145 LINE",
"512 201 LINE",
"193 683 LINE SMOOTH",
"183.5 697 OFFCURVE",
"173 702 OFFCURVE",
"151 702 CURVE SMOOTH",
"130 702 LINE SMOOTH",
"102 702 OFFCURVE",
"90 694 OFFCURVE",
"90 680 CURVE SMOOTH",
"90 20 LINE SMOOTH",
"90 6 OFFCURVE",
"102 -2 OFFCURVE",
"130 -2 CURVE SMOOTH",
"137 -2 LINE SMOOTH"
);
}
);
};
layerId = UUID0;
paths = (
{
closed = 1;
nodes = (
"629 20 LINE",
"629 680 LINE SMOOTH",
"629 694 OFFCURVE",
"617 702 OFFCURVE",
"589 702 CURVE SMOOTH",
"582 702 LINE SMOOTH",
"554 702 OFFCURVE",
"542 694 OFFCURVE",
"542 680 CURVE SMOOTH",
"542 218 LINE SMOOTH",
"542 189 OFFCURVE",
"542 173 OFFCURVE",
"544 150 CURVE",
"540 149 LINE",
"530 170 OFFCURVE",
"520 189 OFFCURVE",
"507 209 CURVE SMOOTH",
"193 683 LINE SMOOTH",
"184 697 OFFCURVE",
"173 702 OFFCURVE",
"151 702 CURVE SMOOTH",
"130 702 LINE SMOOTH",
"102 702 OFFCURVE",
"90 694 OFFCURVE",
"90 680 CURVE SMOOTH",
"90 20 LINE SMOOTH",
"90 6 OFFCURVE",
"102 -2 OFFCURVE",
"130 -2 CURVE SMOOTH",
"137 -2 LINE SMOOTH",
"165 -2 OFFCURVE",
"177 6 OFFCURVE",
"177 20 CURVE SMOOTH",
"177 489 LINE SMOOTH",
"177 518 OFFCURVE",
"177 534 OFFCURVE",
"175 557 CURVE",
"179 558 LINE",
"189 537 OFFCURVE",
"199 518 OFFCURVE",
"212 498 CURVE SMOOTH",
"558 -24 LINE"
);
},
{
closed = 1;
nodes = (
"550 -212 OFFCURVE",
"629 -190 OFFCURVE",
"629 -74 CURVE SMOOTH",
"629 110 LINE",
"545 110 LINE",
"545 -66 LINE SMOOTH",
"545 -126 OFFCURVE",
"520 -140 OFFCURVE",
"491 -140 CURVE SMOOTH",
"462 -140 OFFCURVE",
"457 -135 OFFCURVE",
"448 -135 CURVE SMOOTH",
"434 -135 OFFCURVE",
"427 -174 OFFCURVE",
"427 -182 CURVE SMOOTH",
"427 -209 OFFCURVE",
"473 -212 OFFCURVE",
"500 -212 CURVE SMOOTH"
);
}
);
width = 719;
},
{
background = {
paths = (
{
closed = 1;
nodes = (
"200 -2 OFFCURVE",
"218 9 OFFCURVE",
"218 30 CURVE SMOOTH",
"218 435 LINE",
"243 396 LINE",
"520 -26 LINE",
"650 30 LINE",
"650 670 LINE SMOOTH",
"650 691 OFFCURVE",
"632 702 OFFCURVE",
"590 702 CURVE SMOOTH",
"561 702 LINE SMOOTH",
"519 702 OFFCURVE",
"501 691 OFFCURVE",
"501 670 CURVE SMOOTH",
"501 270 LINE",
"473 313 LINE",
"238 675 LINE SMOOTH",
"223 698 OFFCURVE",
"201 702 OFFCURVE",
"172 702 CURVE SMOOTH",
"129 702 LINE SMOOTH",
"87 702 OFFCURVE",
"69 691 OFFCURVE",
"69 670 CURVE SMOOTH",
"69 30 LINE SMOOTH",
"69 9 OFFCURVE",
"87 -2 OFFCURVE",
"129 -2 CURVE SMOOTH",
"158 -2 LINE SMOOTH"
);
}
);
};
layerId = "2C16E7AF-C861-4509-900A-75D3055B0FF7";
paths = (
{
closed = 1;
nodes = (
"650 30 LINE",
"650 670 LINE SMOOTH",
"650 691 OFFCURVE",
"632 702 OFFCURVE",
"590 702 CURVE SMOOTH",
"561 702 LINE SMOOTH",
"519 702 OFFCURVE",
"501 691 OFFCURVE",
"501 670 CURVE SMOOTH",
"501 338 LINE SMOOTH",
"501 309 OFFCURVE",
"501 293 OFFCURVE",
"503 270 CURVE",
"499 269 LINE",
"488 290 OFFCURVE",
"477 308 OFFCURVE",
"463 328 CURVE SMOOTH",
"238 675 LINE SMOOTH",
"223 698 OFFCURVE",
"201 702 OFFCURVE",
"172 702 CURVE SMOOTH",
"129 702 LINE SMOOTH",
"87 702 OFFCURVE",
"69 691 OFFCURVE",
"69 670 CURVE SMOOTH",
"69 30 LINE SMOOTH",
"69 9 OFFCURVE",
"87 -2 OFFCURVE",
"129 -2 CURVE SMOOTH",
"158 -2 LINE SMOOTH",
"200 -2 OFFCURVE",
"218 9 OFFCURVE",
"218 30 CURVE SMOOTH",
"218 367 LINE SMOOTH",
"218 396 OFFCURVE",
"218 412 OFFCURVE",
"216 435 CURVE",
"220 436 LINE",
"231 415 OFFCURVE",
"243 397 OFFCURVE",
"256 377 CURVE SMOOTH",
"520 -26 LINE"
);
},
{
closed = 1;
nodes = (
"587 -212 OFFCURVE",
"650 -159 OFFCURVE",
"650 -50 CURVE SMOOTH",
"650 193 LINE",
"502 193 LINE",
"502 -52 LINE SMOOTH",
"502 -82 OFFCURVE",
"492 -95 OFFCURVE",
"466 -95 CURVE SMOOTH",
"455 -95 OFFCURVE",
"442 -91 OFFCURVE",
"436 -91 CURVE SMOOTH",
"415 -91 OFFCURVE",
"400 -137 OFFCURVE",
"400 -160 CURVE SMOOTH",
"400 -199 OFFCURVE",
"425 -212 OFFCURVE",
"504 -212 CURVE SMOOTH"
);
}
);
width = 719;
}
);
leftMetricsKey = N;
rightMetricsKey = N;
unicode = 014A;
userData = {
RMXScaler = {
source = Eng;
};
};
},
{
color = 4;
glyphname = O;
layers = (
{
anchors = (
{
name = bottom;
position = "{367, 0}";
},
{
name = horn;
position = "{482, 682}";
},
{
name = ogonek;
position = "{443, 0}";
},
{
name = top;
position = "{366, 700}";
}
);
layerId = UUID0;
paths = (
{
closed = 1;
nodes = (
"566 -6 OFFCURVE",
"674 118 OFFCURVE",
"674 352 CURVE SMOOTH",
"674 586 OFFCURVE",
"566 706 OFFCURVE",
"365 706 CURVE SMOOTH",
"165 706 OFFCURVE",
"57 586 OFFCURVE",
"57 352 CURVE SMOOTH",
"57 118 OFFCURVE",
"165 -6 OFFCURVE",
"365 -6 CURVE SMOOTH"
);
},
{
closed = 1;
nodes = (
"224 70 OFFCURVE",
"148 168 OFFCURVE",
"148 352 CURVE SMOOTH",
"148 536 OFFCURVE",
"224 630 OFFCURVE",
"365 630 CURVE SMOOTH",
"506 630 OFFCURVE",
"583 536 OFFCURVE",
"583 352 CURVE SMOOTH",
"583 168 OFFCURVE",
"506 70 OFFCURVE",
"365 70 CURVE SMOOTH"
);
}
);
width = 731;
},
{
anchors = (
{
name = bottom;
position = "{367, 0}";
},
{
name = horn;
position = "{474, 682}";
},
{
name = ogonek;
position = "{443, 0}";
},
{
name = top;
position = "{366, 700}";
}
);
layerId = "2C16E7AF-C861-4509-900A-75D3055B0FF7";
paths = (
{
closed = 1;
nodes = (
"572 -8 OFFCURVE",
"686 119 OFFCURVE",
"686 350 CURVE SMOOTH",
"686 581 OFFCURVE",
"572 708 OFFCURVE",
"366 708 CURVE SMOOTH",
"160 708 OFFCURVE",
"45 581 OFFCURVE",
"45 350 CURVE SMOOTH",
"45 119 OFFCURVE",
"160 -8 OFFCURVE",
"366 -8 CURVE SMOOTH"
);
},
{
closed = 1;
nodes = (
"259 123 OFFCURVE",
"203 203 OFFCURVE",
"203 350 CURVE SMOOTH",
"203 497 OFFCURVE",
"259 576 OFFCURVE",
"366 576 CURVE SMOOTH",
"473 576 OFFCURVE",
"528 497 OFFCURVE",
"528 350 CURVE SMOOTH",
"528 203 OFFCURVE",
"473 123 OFFCURVE",
"366 123 CURVE SMOOTH"
);
}
);
width = 731;
}
);
leftKerningGroup = O;
rightKerningGroup = O;
unicode = 004F;
userData = {
RMXScaler = {
source = O;
};
};
},
{
color = 11;
glyphname = Ohorn;
layers = (
{
anchors = (
{
name = bottom;
position = "{367, 0}";
},
{
name = ogonek;
position = "{443, 0}";
},
{
name = top;
position = "{366, 700}";
}
);
layerId = UUID0;
paths = (
{
closed = 1;
nodes = (
"566 -6 OFFCURVE",
"674 118 OFFCURVE",
"674 352 CURVE SMOOTH",
"674 495 OFFCURVE",
"634 596 OFFCURVE",
"556 652 CURVE",
"609 662 OFFCURVE",
"633 695 OFFCURVE",
"633 739 CURVE SMOOTH",
"633 768 OFFCURVE",
"613 813 OFFCURVE",
"590 813 CURVE SMOOTH",
"586 813 OFFCURVE",
"582 812 OFFCURVE",
"578 809 CURVE",
"554 793 LINE SMOOTH",
"548 789 OFFCURVE",
"545 783 OFFCURVE",
"545 777 CURVE SMOOTH",
"545 765 OFFCURVE",
"572 745 OFFCURVE",
"572 715 CURVE SMOOTH",
"572 699 OFFCURVE",
"560 682 OFFCURVE",
"527 682 CURVE SMOOTH",
"505 682 OFFCURVE",
"489 688 OFFCURVE",
"475 692 CURVE SMOOTH",
"442 701 OFFCURVE",
"405 706 OFFCURVE",
"365 706 CURVE SMOOTH",
"165 706 OFFCURVE",
"57 586 OFFCURVE",
"57 352 CURVE SMOOTH",
"57 118 OFFCURVE",
"165 -6 OFFCURVE",
"365 -6 CURVE SMOOTH"
);
},
{
closed = 1;
nodes = (
"224 70 OFFCURVE",
"148 168 OFFCURVE",
"148 352 CURVE SMOOTH",
"148 536 OFFCURVE",
"224 630 OFFCURVE",
"365 630 CURVE SMOOTH",
"506 630 OFFCURVE",
"583 536 OFFCURVE",
"583 352 CURVE SMOOTH",
"583 168 OFFCURVE",
"506 70 OFFCURVE",
"365 70 CURVE SMOOTH"
);
}
);
width = 731;
},
{
anchors = (
{
name = bottom;
position = "{367, 0}";
},
{
name = ogonek;
position = "{443, 0}";
},
{
name = top;
position = "{366, 700}";
}
);
layerId = "2C16E7AF-C861-4509-900A-75D3055B0FF7";
paths = (
{
closed = 1;
nodes = (
"572 -8 OFFCURVE",
"686 119 OFFCURVE",
"686 350 CURVE SMOOTH",
"686 484 OFFCURVE",
"647 584 OFFCURVE",
"575 643 CURVE",
"633 654 OFFCURVE",
"659 687 OFFCURVE",
"659 733 CURVE SMOOTH",
"659 763 OFFCURVE",
"638 816 OFFCURVE",
"612 816 CURVE SMOOTH",
"606 816 OFFCURVE",
"601 815 OFFCURVE",
"596 811 CURVE",
"564 789 LINE",
"556 784 OFFCURVE",
"553 777 OFFCURVE",
"553 770 CURVE SMOOTH",
"553 757 OFFCURVE",
"579 740 OFFCURVE",
"579 718 CURVE SMOOTH",
"579 695 OFFCURVE",
"566 682 OFFCURVE",
"537 682 CURVE SMOOTH",
"517 682 OFFCURVE",
"496 688 OFFCURVE",
"474 694 CURVE SMOOTH",
"442 703 OFFCURVE",
"406 708 OFFCURVE",
"366 708 CURVE SMOOTH",
"160 708 OFFCURVE",
"45 581 OFFCURVE",
"45 350 CURVE SMOOTH",
"45 119 OFFCURVE",
"160 -8 OFFCURVE",
"366 -8 CURVE SMOOTH"
);
},
{
closed = 1;
nodes = (
"259 123 OFFCURVE",
"203 203 OFFCURVE",
"203 350 CURVE SMOOTH",
"203 497 OFFCURVE",
"259 576 OFFCURVE",
"366 576 CURVE SMOOTH",
"473 576 OFFCURVE",
"528 497 OFFCURVE",
"528 350 CURVE SMOOTH",
"528 203 OFFCURVE",
"473 123 OFFCURVE",
"366 123 CURVE SMOOTH"
);
}
);
width = 731;
}
);
leftKerningGroup = O;
rightKerningGroup = Ohorn;
unicode = 01A0;
userData = {
RMXScaler = {
source = Ohorn;
};
};
},
{
color = 11;
glyphname = Oslash;
layers = (
{
anchors = (
{
name = top;
position = "{366, 700}";
}
);
components = (
{
name = O;
}
);
layerId = UUID0;
paths = (
{
closed = 1;
nodes = (
"663 668 LINE SMOOTH",
"667 673 OFFCURVE",
"669 677 OFFCURVE",
"669 682 CURVE SMOOTH",
"669 690 OFFCURVE",
"656 702 OFFCURVE",
"647 702 CURVE SMOOTH",
"642 702 OFFCURVE",
"638 700 OFFCURVE",
"633 694 CURVE",
"40 36 LINE",
"36 31 OFFCURVE",
"34 26 OFFCURVE",
"34 22 CURVE SMOOTH",
"34 13 OFFCURVE",
"47 1 OFFCURVE",
"56 1 CURVE SMOOTH",
"60 1 OFFCURVE",
"65 4 OFFCURVE",
"70 10 CURVE SMOOTH"
);
}
);
width = 731;
},
{
anchors = (
{
name = top;
position = "{366, 700}";
}
);
components = (
{
name = O;
}
);
layerId = "2C16E7AF-C861-4509-900A-75D3055B0FF7";
paths = (
{
closed = 1;
nodes = (
"672 658 LINE SMOOTH",
"679 666 OFFCURVE",
"682 672 OFFCURVE",
"682 678 CURVE SMOOTH",
"682 696 OFFCURVE",
"651 724 OFFCURVE",
"634 724 CURVE SMOOTH",
"626 724 OFFCURVE",
"619 720 OFFCURVE",
"612 712 CURVE SMOOTH",
"29 54 LINE SMOOTH",
"23 47 OFFCURVE",
"19 40 OFFCURVE",
"19 34 CURVE SMOOTH",
"19 15 OFFCURVE",
"51 -12 OFFCURVE",
"67 -12 CURVE SMOOTH",
"74 -12 OFFCURVE",
"82 -8 OFFCURVE",
"89 0 CURVE SMOOTH"
);
}
);
width = 731;
}
);
leftKerningGroup = Oslash;
rightKerningGroup = Oslash;
unicode = 00D8;
userData = {
RMXScaler = {
source = Oslash;
};
};
},
{
color = 11;
glyphname = OE;
layers = (
{
anchors = (
{
name = top;
position = "{511, 700}";
}
);
layerId = UUID0;
paths = (
{
closed = 1;
nodes = (
"471 -6 OFFCURVE",
"549 28 OFFCURVE",
"600 96 CURVE",
"585 116 LINE",
"585 30 LINE SMOOTH",
"585 9 OFFCURVE",
"594 0 OFFCURVE",
"615 0 CURVE SMOOTH",
"946 0 LINE SMOOTH",
"960 0 OFFCURVE",
"966 9 OFFCURVE",
"966 30 CURVE SMOOTH",
"966 46 LINE SMOOTH",
"966 67 OFFCURVE",
"960 76 OFFCURVE",
"946 76 CURVE SMOOTH",
"673 76 LINE",
"673 320 LINE",
"915 320 LINE SMOOTH",
"929 320 OFFCURVE",
"935 329 OFFCURVE",
"935 350 CURVE SMOOTH",
"935 366 LINE SMOOTH",
"935 387 OFFCURVE",
"929 396 OFFCURVE",
"915 396 CURVE SMOOTH",
"673 396 LINE",
"673 624 LINE",
"945 624 LINE SMOOTH",
"959 624 OFFCURVE",
"965 633 OFFCURVE",
"965 654 CURVE SMOOTH",
"965 670 LINE SMOOTH",
"965 691 OFFCURVE",
"959 700 OFFCURVE",
"945 700 CURVE SMOOTH",
"615 700 LINE SMOOTH",
"594 700 OFFCURVE",
"585 691 OFFCURVE",
"585 670 CURVE SMOOTH",
"585 586 LINE",
"600 606 LINE",
"549 672 OFFCURVE",
"471 706 OFFCURVE",
"365 706 CURVE SMOOTH",
"165 706 OFFCURVE",
"57 586 OFFCURVE",
"57 352 CURVE SMOOTH",
"57 118 OFFCURVE",
"165 -6 OFFCURVE",
"365 -6 CURVE SMOOTH"
);
},
{
closed = 1;
nodes = (
"224 70 OFFCURVE",
"148 168 OFFCURVE",
"148 352 CURVE SMOOTH",
"148 536 OFFCURVE",
"224 630 OFFCURVE",
"365 630 CURVE SMOOTH",
"506 630 OFFCURVE",
"583 536 OFFCURVE",
"583 352 CURVE SMOOTH",
"583 168 OFFCURVE",
"506 70 OFFCURVE",
"365 70 CURVE SMOOTH"
);
}
);
width = 1015;
},
{
anchors = (
{
name = top;
position = "{511, 700}";
}
);
layerId = "2C16E7AF-C861-4509-900A-75D3055B0FF7";
paths = (
{
closed = 1;
nodes = (
"439 -8 OFFCURVE",
"509 15 OFFCURVE",
"564 62 CURVE",
"530 116 LINE",
"530 41 LINE",
"530 12 OFFCURVE",
"542 0 OFFCURVE",
"570 0 CURVE SMOOTH",
"937 0 LINE SMOOTH",
"958 0 OFFCURVE",
"967 15 OFFCURVE",
"967 50 CURVE SMOOTH",
"967 81 LINE SMOOTH",
"967 116 OFFCURVE",
"958 131 OFFCURVE",
"937 131 CURVE SMOOTH",
"684 131 LINE",
"684 293 LINE",
"909 293 LINE SMOOTH",
"930 293 OFFCURVE",
"939 308 OFFCURVE",
"939 343 CURVE SMOOTH",
"939 374 LINE SMOOTH",
"939 409 OFFCURVE",
"930 424 OFFCURVE",
"909 424 CURVE SMOOTH",
"684 424 LINE",
"684 569 LINE",
"936 569 LINE SMOOTH",
"957 569 OFFCURVE",
"966 584 OFFCURVE",
"966 619 CURVE SMOOTH",
"966 650 LINE SMOOTH",
"966 685 OFFCURVE",
"957 700 OFFCURVE",
"936 700 CURVE SMOOTH",
"570 700 LINE SMOOTH",
"542 700 OFFCURVE",
"530 688 OFFCURVE",
"530 662 CURVE SMOOTH",
"530 587 LINE",
"564 637 LINE",
"508 685 OFFCURVE",
"441 708 OFFCURVE",
"356 708 CURVE SMOOTH",
"156 708 OFFCURVE",
"45 581 OFFCURVE",
"45 350 CURVE SMOOTH",
"45 119 OFFCURVE",
"156 -8 OFFCURVE",
"356 -8 CURVE SMOOTH"
);
},
{
closed = 1;
nodes = (
"259 123 OFFCURVE",
"203 203 OFFCURVE",
"203 350 CURVE SMOOTH",
"203 497 OFFCURVE",
"259 576 OFFCURVE",
"366 576 CURVE SMOOTH",
"473 576 OFFCURVE",
"528 497 OFFCURVE",
"528 350 CURVE SMOOTH",
"528 203 OFFCURVE",
"473 123 OFFCURVE",
"366 123 CURVE SMOOTH"
);
}
);
width = 1015;
}
);
leftKerningGroup = O;
rightMetricsKey = E;
unicode = 0152;
userData = {
RMXScaler = {
source = OE;
};
};
},
{
color = 4;
glyphname = P;
layers = (
{
anchors = (
{
name = bottom;
position = "{129, 0}";
},
{
name = top;
position = "{285, 700}";
}
);
layerId = UUID0;
paths = (
{
closed = 1;
nodes = (
"133 -2 LINE SMOOTH",
"161 -2 OFFCURVE",
"173 6 OFFCURVE",
"173 20 CURVE SMOOTH",
"173 298 LINE",
"328 298 LINE SMOOTH",
"380 298 OFFCURVE",
"541 321 OFFCURVE",
"541 504 CURVE SMOOTH",
"541 673 OFFCURVE",
"404 700 OFFCURVE",
"318 700 CURVE SMOOTH",
"115 700 LINE SMOOTH",
"94 700 OFFCURVE",
"85 691 OFFCURVE",
"85 670 CURVE SMOOTH",
"85 20 LINE SMOOTH",
"85 6 OFFCURVE",
"97 -2 OFFCURVE",
"125 -2 CURVE SMOOTH"
);
},
{
closed = 1;
nodes = (
"173 624 LINE",
"315 624 LINE SMOOTH",
"374 624 OFFCURVE",
"450 603 OFFCURVE",
"450 504 CURVE SMOOTH",
"450 395 OFFCURVE",
"369 374 OFFCURVE",
"329 374 CURVE SMOOTH",
"173 374 LINE"
);
}
);
width = 570;
},
{
anchors = (
{
name = bottom;
position = "{146, 0}";
},
{
name = top;
position = "{285, 700}";
}
);
layerId = "2C16E7AF-C861-4509-900A-75D3055B0FF7";
paths = (
{
closed = 1;
nodes = (
"163 -2 LINE SMOOTH",
"205 -2 OFFCURVE",
"223 9 OFFCURVE",
"223 30 CURVE SMOOTH",
"223 262 LINE",
"329 262 LINE SMOOTH",
"383 262 OFFCURVE",
"557 288 OFFCURVE",
"557 481 CURVE SMOOTH",
"557 674 OFFCURVE",
"408 700 OFFCURVE",
"319 700 CURVE SMOOTH",
"109 700 LINE SMOOTH",
"81 700 OFFCURVE",
"69 688 OFFCURVE",
"69 660 CURVE SMOOTH",
"69 30 LINE SMOOTH",
"69 9 OFFCURVE",
"87 -2 OFFCURVE",
"129 -2 CURVE SMOOTH"
);
},
{
closed = 1;
nodes = (
"223 569 LINE",
"312 569 LINE SMOOTH",
"350 569 OFFCURVE",
"399 553 OFFCURVE",
"399 481 CURVE SMOOTH",
"399 409 OFFCURVE",
"350 394 OFFCURVE",
"312 394 CURVE SMOOTH",
"223 394 LINE"
);
}
);
width = 570;
}
);
unicode = 0050;
userData = {
RMXScaler = {
source = P;
};
};
},
{
color = 11;
glyphname = Thorn;
layers = (
{
anchors = (
{
name = bottom;
position = "{129, 0}";
},
{
name = top;
position = "{129, 700}";
}
);
layerId = UUID0;
paths = (
{
closed = 1;
nodes = (
"133 -2 LINE SMOOTH",
"161 -2 OFFCURVE",
"173 6 OFFCURVE",
"173 20 CURVE SMOOTH",
"173 176 LINE",
"328 176 LINE SMOOTH",
"380 176 OFFCURVE",
"541 199 OFFCURVE",
"541 382 CURVE SMOOTH",
"541 551 OFFCURVE",
"404 578 OFFCURVE",
"318 578 CURVE SMOOTH",
"173 578 LINE",
"173 680 LINE SMOOTH",
"173 694 OFFCURVE",
"161 702 OFFCURVE",
"133 702 CURVE SMOOTH",
"125 702 LINE SMOOTH",
"97 702 OFFCURVE",
"85 694 OFFCURVE",
"85 680 CURVE SMOOTH",
"85 20 LINE SMOOTH",
"85 6 OFFCURVE",
"97 -2 OFFCURVE",
"125 -2 CURVE SMOOTH"
);
},
{
closed = 1;
nodes = (
"173 502 LINE",
"315 502 LINE SMOOTH",
"374 502 OFFCURVE",
"450 481 OFFCURVE",
"450 382 CURVE SMOOTH",
"450 273 OFFCURVE",
"369 252 OFFCURVE",
"329 252 CURVE SMOOTH",
"173 252 LINE"
);
}
);
width = 570;
},
{
anchors = (
{
name = bottom;
position = "{146, 0}";
},
{
name = top;
position = "{146, 700}";
}
);
layerId = "2C16E7AF-C861-4509-900A-75D3055B0FF7";
paths = (
{
closed = 1;
nodes = (
"163 -2 LINE SMOOTH",
"205 -2 OFFCURVE",
"223 9 OFFCURVE",
"223 30 CURVE SMOOTH",
"223 155 LINE",
"329 155 LINE SMOOTH",
"383 155 OFFCURVE",
"557 181 OFFCURVE",
"557 374 CURVE SMOOTH",
"557 567 OFFCURVE",
"408 593 OFFCURVE",
"319 593 CURVE SMOOTH",
"223 593 LINE",
"223 670 LINE SMOOTH",
"223 691 OFFCURVE",
"205 702 OFFCURVE",
"163 702 CURVE SMOOTH",
"129 702 LINE SMOOTH",
"87 702 OFFCURVE",
"69 691 OFFCURVE",
"69 670 CURVE SMOOTH",
"69 30 LINE SMOOTH",
"69 9 OFFCURVE",
"87 -2 OFFCURVE",
"129 -2 CURVE SMOOTH"
);
},
{
closed = 1;
nodes = (
"223 462 LINE",
"312 462 LINE SMOOTH",
"350 462 OFFCURVE",
"399 446 OFFCURVE",
"399 374 CURVE SMOOTH",
"399 302 OFFCURVE",
"350 287 OFFCURVE",
"312 287 CURVE SMOOTH",
"223 287 LINE"
);
}
);
width = 570;
}
);
leftMetricsKey = "=P";
rightMetricsKey = "=P";
unicode = 00DE;
userData = {
RMXScaler = {
source = Thorn;
};
};
},
{
color = 4;
glyphname = Q;
layers = (
{
layerId = UUID0;
paths = (
{
closed = 1;
nodes = (
"665 -148 OFFCURVE",
"684 -88 OFFCURVE",
"684 -76 CURVE SMOOTH",
"684 -69 OFFCURVE",
"679 -64 OFFCURVE",
"670 -61 CURVE SMOOTH",
"473 1 LINE",
"473 5 LINE",
"603 40 OFFCURVE",
"674 157 OFFCURVE",
"674 347 CURVE SMOOTH",
"674 581 OFFCURVE",
"566 706 OFFCURVE",
"365 706 CURVE SMOOTH",
"165 706 OFFCURVE",
"57 582 OFFCURVE",
"57 347 CURVE SMOOTH",
"57 168 OFFCURVE",
"120 56 OFFCURVE",
"246 6 CURVE SMOOTH",
"275 -5.5 OFFCURVE",
"630 -148 OFFCURVE",
"642 -148 CURVE SMOOTH"
);
},
{
closed = 1;
nodes = (
"227 67 OFFCURVE",
"148 165 OFFCURVE",
"148 347 CURVE SMOOTH",
"148 530 OFFCURVE",
"227 630 OFFCURVE",
"365 630 CURVE SMOOTH",
"504 630 OFFCURVE",
"583 529 OFFCURVE",
"583 347 CURVE SMOOTH",
"583 166 OFFCURVE",
"504 67 OFFCURVE",
"365 67 CURVE SMOOTH"
);
}
);
width = 731;
},
{
layerId = "2C16E7AF-C861-4509-900A-75D3055B0FF7";
paths = (
{
closed = 1;
nodes = (
"673 -146 OFFCURVE",
"696 -60 OFFCURVE",
"696 -44 CURVE SMOOTH",
"696 -37 OFFCURVE",
"691 -31 OFFCURVE",
"682 -28 CURVE SMOOTH",
"529 27 LINE",
"529 31 LINE",
"630 83 OFFCURVE",
"686 192 OFFCURVE",
"686 350 CURVE SMOOTH",
"686 581 OFFCURVE",
"572 708 OFFCURVE",
"366 708 CURVE SMOOTH",
"160 708 OFFCURVE",
"45 581 OFFCURVE",
"45 350 CURVE SMOOTH",
"45 177 OFFCURVE",
"109 62 OFFCURVE",
"227 16 CURVE SMOOTH",
"634.5 -143.5 OFFCURVE",
"631 -146 OFFCURVE",
"641 -146 CURVE SMOOTH"
);
},
{
closed = 1;
nodes = (
"259 119 OFFCURVE",
"203 200 OFFCURVE",
"203 350 CURVE SMOOTH",
"203 497 OFFCURVE",
"259 576 OFFCURVE",
"366 576 CURVE SMOOTH",
"473 576 OFFCURVE",
"528 497 OFFCURVE",
"528 350 CURVE SMOOTH",
"528 200 OFFCURVE",
"473 119 OFFCURVE",
"366 119 CURVE SMOOTH"
);
}
);
width = 731;
}
);
leftKerningGroup = O;
unicode = 0051;
userData = {
RMXScaler = {
source = Q;
};
};
},
{
color = 4;
glyphname = R;
layers = (
{
anchors = (
{
name = bottom;
position = "{305, 0}";
},
{
name = top;
position = "{305, 700}";
}
);
layerId = UUID0;
paths = (
{
closed = 1;
nodes = (
"145 -2 LINE SMOOTH",
"173 -2 OFFCURVE",
"185 6 OFFCURVE",
"185 20 CURVE SMOOTH",
"185 308 LINE",
"275 308 LINE SMOOTH",
"353 308 OFFCURVE",
"394 288 OFFCURVE",
"424 210 CURVE SMOOTH",
"500 14 LINE SMOOTH",
"504 4 OFFCURVE",
"520 -2 OFFCURVE",
"540 -2 CURVE SMOOTH",
"550 -2 LINE SMOOTH",
"579 -2 OFFCURVE",
"592 4 OFFCURVE",
"592 14 CURVE SMOOTH",
"592 17 OFFCURVE",
"591 22 OFFCURVE",
"589 28 CURVE SMOOTH",
"511 225 LINE SMOOTH",
"485 291 OFFCURVE",
"463 336 OFFCURVE",
"421 350 CURVE",
"421 354 LINE",
"491 382 OFFCURVE",
"536 437 OFFCURVE",
"536 523 CURVE SMOOTH",
"536 649 OFFCURVE",
"451 700 OFFCURVE",
"295 700 CURVE SMOOTH",
"127 700 LINE SMOOTH",
"106 700 OFFCURVE",
"97 691 OFFCURVE",
"97 670 CURVE SMOOTH",
"97 20 LINE SMOOTH",
"97 6 OFFCURVE",
"109 -2 OFFCURVE",
"137 -2 CURVE SMOOTH"
);
},
{
closed = 1;
nodes = (
"185 624 LINE",
"310 624 LINE SMOOTH",
"391 624 OFFCURVE",
"445 588 OFFCURVE",
"445 507 CURVE SMOOTH",
"445 441 OFFCURVE",
"389 384 OFFCURVE",
"317 384 CURVE SMOOTH",
"185 384 LINE"
);
}
);
width = 610;
},
{
anchors = (
{
name = bottom;
position = "{305, 0}";
},
{
name = top;
position = "{305, 700}";
}
);
layerId = "2C16E7AF-C861-4509-900A-75D3055B0FF7";
paths = (
{
closed = 1;
nodes = (
"163 -2 LINE SMOOTH",
"205 -2 OFFCURVE",
"223 9 OFFCURVE",
"223 30 CURVE SMOOTH",
"223 274 LINE",
"262 274 LINE SMOOTH",
"327 274 OFFCURVE",
"343 254 OFFCURVE",
"363 214 CURVE",
"442 19 LINE SMOOTH",
"448.5 3 OFFCURVE",
"471 -2 OFFCURVE",
"500 -2 CURVE SMOOTH",
"541 -2 LINE SMOOTH",
"582 -2 OFFCURVE",
"601 6 OFFCURVE",
"601 18 CURVE SMOOTH",
"601 23 OFFCURVE",
"599 29 OFFCURVE",
"596 37 CURVE SMOOTH",
"508 257 LINE SMOOTH",
"491 300 OFFCURVE",
"461 339 OFFCURVE",
"436 349 CURVE",
"436 353 LINE",
"505 379 OFFCURVE",
"553 435 OFFCURVE",
"553 512 CURVE SMOOTH",
"553 632 OFFCURVE",
"477 700 OFFCURVE",
"304 700 CURVE SMOOTH",
"109 700 LINE SMOOTH",
"81 700 OFFCURVE",
"69 688 OFFCURVE",
"69 660 CURVE SMOOTH",
"69 30 LINE SMOOTH",
"69 9 OFFCURVE",
"87 -2 OFFCURVE",
"129 -2 CURVE SMOOTH"
);
},
{
closed = 1;
nodes = (
"223 569 LINE",
"311 569 LINE SMOOTH",
"363 569 OFFCURVE",
"395 539 OFFCURVE",
"395 493 CURVE SMOOTH",
"395 445 OFFCURVE",
"359 407 OFFCURVE",
"318 407 CURVE SMOOTH",
"223 407 LINE"
);
}
);
width = 610;
}
);
rightKerningGroup = R;
unicode = 0052;
userData = {
RMXScaler = {
source = R;
};
};
},
{
color = 4;
glyphname = S;
layers = (
{
anchors = (
{
name = bottom;
position = "{250, 0}";
},
{
name = top;
position = "{250, 700}";
}
);
background = {
paths = (
{
closed = 1;
nodes = (
"138 706 OFFCURVE",
"50 628 OFFCURVE",
"50 517 CURVE SMOOTH",
"50 282 OFFCURVE",
"375 360 OFFCURVE",
"375 190 CURVE SMOOTH",
"375 116 OFFCURVE",
"320 70 OFFCURVE",
"244 70 CURVE SMOOTH",
"141 70 OFFCURVE",
"85 121 OFFCURVE",
"72 121 CURVE SMOOTH",
"61 121 OFFCURVE",
"37 83 OFFCURVE",
"37 67 CURVE SMOOTH",
"37 40 OFFCURVE",
"127 -6 OFFCURVE",
"244 -6 CURVE SMOOTH",
"379 -6 OFFCURVE",
"466 67 OFFCURVE",
"466 190 CURVE SMOOTH",
"466 436 OFFCURVE",
"141 367 OFFCURVE",
"141 513 CURVE SMOOTH",
"141 589 OFFCURVE",
"195 630 OFFCURVE",
"270 630 CURVE SMOOTH",
"349 630 OFFCURVE",
"386 592 OFFCURVE",
"401 592 CURVE SMOOTH",
"411 592 OFFCURVE",
"433 630 OFFCURVE",
"433 645 CURVE SMOOTH",
"433 681 OFFCURVE",
"329 706 OFFCURVE",
"272 706 CURVE SMOOTH"
);
}
);
};
layerId = UUID0;
paths = (
{
closed = 1;
nodes = (
"379 -6 OFFCURVE",
"466 68 OFFCURVE",
"466 188 CURVE SMOOTH",
"466 324 OFFCURVE",
"366 364 OFFCURVE",
"277 398 CURVE SMOOTH",
"205 425.5 OFFCURVE",
"141 444 OFFCURVE",
"141 517 CURVE SMOOTH",
"141 590 OFFCURVE",
"195 630 OFFCURVE",
"270 630 CURVE SMOOTH",
"320 630 OFFCURVE",
"353 615 OFFCURVE",
"374 604 CURVE SMOOTH",
"387 597 OFFCURVE",
"395 592 OFFCURVE",
"401 592 CURVE SMOOTH",
"411 592 OFFCURVE",
"433 630 OFFCURVE",
"433 645 CURVE SMOOTH",
"433 655 OFFCURVE",
"425 664 OFFCURVE",
"413 671 CURVE SMOOTH",
"380 693 OFFCURVE",
"314 706 OFFCURVE",
"272 706 CURVE SMOOTH",
"138 706 OFFCURVE",
"50 629 OFFCURVE",
"50 521 CURVE SMOOTH",
"50 390 OFFCURVE",
"139 357 OFFCURVE",
"224 324 CURVE SMOOTH",
"301 294 OFFCURVE",
"375 268 OFFCURVE",
"375 188 CURVE SMOOTH",
"375 117 OFFCURVE",
"320 70 OFFCURVE",
"244 70 CURVE SMOOTH",
"170 70 OFFCURVE",
"120 96 OFFCURVE",
"93 111 CURVE SMOOTH",
"83 117 OFFCURVE",
"76 121 OFFCURVE",
"72 121 CURVE SMOOTH",
"61 121 OFFCURVE",
"37 83 OFFCURVE",
"37 67 CURVE SMOOTH",
"37 60 OFFCURVE",
"44 51 OFFCURVE",
"56 42 CURVE SMOOTH",
"88 18 OFFCURVE",
"159 -6 OFFCURVE",
"244 -6 CURVE SMOOTH"
);
}
);
width = 500;
},
{
anchors = (
{
name = bottom;
position = "{250, 0}";
},
{
name = top;
position = "{250, 700}";
}
);
layerId = "2C16E7AF-C861-4509-900A-75D3055B0FF7";
paths = (
{
closed = 1;
nodes = (
"366 -8 OFFCURVE",
"483 48 OFFCURVE",
"483 211 CURVE SMOOTH",
"483 347 OFFCURVE",
"383 388 OFFCURVE",
"301 422 CURVE SMOOTH",
"243.5 445.5 OFFCURVE",
"194 465 OFFCURVE",
"194 520 CURVE SMOOTH",
"194 543 OFFCURVE",
"209 576 OFFCURVE",
"287 576 CURVE SMOOTH",
"320 576 OFFCURVE",
"344 570 OFFCURVE",
"362 564 CURVE SMOOTH",
"380 557 OFFCURVE",
"391 551 OFFCURVE",
"398 551 CURVE SMOOTH",
"422 551 OFFCURVE",
"453 611 OFFCURVE",
"453 638 CURVE SMOOTH",
"453 649 OFFCURVE",
"445 660 OFFCURVE",
"431 670 CURVE SMOOTH",
"401 691 OFFCURVE",
"344 708 OFFCURVE",
"273 708 CURVE SMOOTH",
"156 708 OFFCURVE",
"36 650 OFFCURVE",
"36 506 CURVE SMOOTH",
"36 386 OFFCURVE",
"102 338 OFFCURVE",
"171 305 CURVE SMOOTH",
"245.5 269.5 OFFCURVE",
"325 253 OFFCURVE",
"325 193 CURVE SMOOTH",
"325 136 OFFCURVE",
"274 123 OFFCURVE",
"231 123 CURVE SMOOTH",
"177 123 OFFCURVE",
"138 144 OFFCURVE",
"112 157 CURVE SMOOTH",
"99 164 OFFCURVE",
"90 169 OFFCURVE",
"84 169 CURVE SMOOTH",
"63 169 OFFCURVE",
"22 111 OFFCURVE",
"22 80 CURVE SMOOTH",
"22 69 OFFCURVE",
"31 55 OFFCURVE",
"50 42 CURVE SMOOTH",
"86 16 OFFCURVE",
"156 -8 OFFCURVE",
"257 -8 CURVE SMOOTH"
);
}
);
width = 500;
}
);
leftKerningGroup = S;
rightKerningGroup = S;
unicode = 0053;
userData = {
RMXScaler = {
source = S;
};
};
},
{
color = 11;
glyphname = Germandbls;
layers = (
{
layerId = UUID0;
paths = (
{
closed = 1;
nodes = (
"530 -6 OFFCURVE",
"660 49 OFFCURVE",
"660 203 CURVE SMOOTH",
"660 324 OFFCURVE",
"579 383 OFFCURVE",
"466 401 CURVE",
"616 606 LINE",
"618 609 OFFCURVE",
"619 613 OFFCURVE",
"619 618 CURVE SMOOTH",
"619 639 OFFCURVE",
"604 669 OFFCURVE",
"597 671 CURVE SMOOTH",
"546 685.5 OFFCURVE",
"461 703 OFFCURVE",
"366 705 CURVE SMOOTH",
"187 708.5 OFFCURVE",
"92 613 OFFCURVE",
"92 430 CURVE SMOOTH",
"92 20 LINE SMOOTH",
"92 6 OFFCURVE",
"104 -2 OFFCURVE",
"132 -2 CURVE SMOOTH",
"140 -2 LINE SMOOTH",
"168 -2 OFFCURVE",
"180 6 OFFCURVE",
"180 20 CURVE SMOOTH",
"180 429 LINE SMOOTH",
"180 570 OFFCURVE",
"240 630 OFFCURVE",
"368 630 CURVE SMOOTH",
"429 630 OFFCURVE",
"476 620 OFFCURVE",
"509 609 CURVE",
"357 401 LINE",
"355 398 OFFCURVE",
"354 394 OFFCURVE",
"354 389 CURVE SMOOTH",
"354 369 OFFCURVE",
"368 336 OFFCURVE",
"378 336 CURVE SMOOTH",
"413 336 LINE SMOOTH",
"509 336 OFFCURVE",
"573 306 OFFCURVE",
"573 204 CURVE SMOOTH",
"573 95 OFFCURVE",
"483 66 OFFCURVE",
"419 66 CURVE SMOOTH",
"348 66 OFFCURVE",
"333 101 OFFCURVE",
"291 101 CURVE SMOOTH",
"280 101 OFFCURVE",
"256 70 OFFCURVE",
"256 51 CURVE SMOOTH",
"256 26 OFFCURVE",
"328 -6 OFFCURVE",
"427 -6 CURVE SMOOTH"
);
}
);
width = 700;
},
{
layerId = "2C16E7AF-C861-4509-900A-75D3055B0FF7";
paths = (
{
closed = 1;
nodes = (
"586 -8 OFFCURVE",
"675 71 OFFCURVE",
"675 204 CURVE SMOOTH",
"675 334 OFFCURVE",
"598 380 OFFCURVE",
"522 410 CURVE",
"634 590 LINE",
"635 592 OFFCURVE",
"635 594 OFFCURVE",
"635 598 CURVE SMOOTH",
"635 624 OFFCURVE",
"614 688 OFFCURVE",
"598 690 CURVE SMOOTH",
"532 698.5 OFFCURVE",
"436 708 OFFCURVE",
"350 708 CURVE SMOOTH",
"163 708 OFFCURVE",
"66 614 OFFCURVE",
"66 432 CURVE SMOOTH",
"66 30 LINE SMOOTH",
"66 9 OFFCURVE",
"84 -2 OFFCURVE",
"126 -2 CURVE SMOOTH",
"161 -2 LINE SMOOTH",
"203 -2 OFFCURVE",
"221 9 OFFCURVE",
"221 30 CURVE SMOOTH",
"221 431 LINE SMOOTH",
"221 524 OFFCURVE",
"261 576 OFFCURVE",
"347 576 CURVE SMOOTH",
"389 576 OFFCURVE",
"424 574 OFFCURVE",
"453 571 CURVE",
"354 407 LINE",
"353 405 OFFCURVE",
"352 401 OFFCURVE",
"352 397 CURVE SMOOTH",
"352 370 OFFCURVE",
"374 308 OFFCURVE",
"391 308 CURVE SMOOTH",
"418 308 LINE SMOOTH",
"487 308 OFFCURVE",
"525 272 OFFCURVE",
"525 206 CURVE SMOOTH",
"525 144 OFFCURVE",
"489 109 OFFCURVE",
"436 109 CURVE SMOOTH",
"373 109 OFFCURVE",
"336 150 OFFCURVE",
"321 150 CURVE SMOOTH",
"298 150 OFFCURVE",
"272 93 OFFCURVE",
"272 74 CURVE SMOOTH",
"272 12 OFFCURVE",
"394 -8 OFFCURVE",
"459 -8 CURVE SMOOTH"
);
}
);
width = 700;
}
);
unicode = 1E9E;
userData = {
RMXScaler = {
source = Germandbls;
};
};
},
{
color = 11;
glyphname = Schwa;
layers = (
{
background = {
paths = (
{
closed = 1;
nodes = (
"167 706 OFFCURVE",
"57 589 OFFCURVE",
"57 350 CURVE SMOOTH",
"57 106 OFFCURVE",
"160 -6 OFFCURVE",
"379 -6 CURVE SMOOTH",
"496 -6 OFFCURVE",
"586 39 OFFCURVE",
"586 66 CURVE SMOOTH",
"586 78 OFFCURVE",
"564 120 OFFCURVE",
"551 120 CURVE SMOOTH",
"538 120 OFFCURVE",
"482 70 OFFCURVE",
"379 70 CURVE SMOOTH",
"222 70 OFFCURVE",
"148 157 OFFCURVE",
"148 349 CURVE SMOOTH",
"148 546 OFFCURVE",
"223 630 OFFCURVE",
"383 630 CURVE SMOOTH",
"479 630 OFFCURVE",
"527 586 OFFCURVE",
"538 586 CURVE SMOOTH",
"551 586 OFFCURVE",
"572 627 OFFCURVE",
"572 644 CURVE SMOOTH",
"572 671 OFFCURVE",
"480 706 OFFCURVE",
"381 706 CURVE SMOOTH"
);
}
);
};
layerId = UUID0;
paths = (
{
closed = 1;
nodes = (
"489 -9 OFFCURVE",
"584 106 OFFCURVE",
"584 332 CURVE SMOOTH",
"584 588 OFFCURVE",
"493 706 OFFCURVE",
"299 706 CURVE SMOOTH",
"162 706 OFFCURVE",
"59 654 OFFCURVE",
"59 622 CURVE SMOOTH",
"59 611 OFFCURVE",
"80 572 OFFCURVE",
"94 572 CURVE SMOOTH",
"110 572 OFFCURVE",
"177 634 OFFCURVE",
"300 634 CURVE SMOOTH",
"423 634 OFFCURVE",
"482 551 OFFCURVE",
"494 363 CURVE",
"78 363 LINE SMOOTH",
"66 363 OFFCURVE",
"45 334 OFFCURVE",
"45 322 CURVE SMOOTH",
"45 103 OFFCURVE",
"129 -9 OFFCURVE",
"301 -9 CURVE SMOOTH"
);
},
{
closed = 1;
nodes = (
"189 63 OFFCURVE",
"134 137 OFFCURVE",
"134 291 CURVE",
"494 291 LINE",
"487 137 OFFCURVE",
"421 63 OFFCURVE",
"304 63 CURVE SMOOTH"
);
}
);
width = 672;
},
{
background = {
paths = (
{
closed = 1;
nodes = (
"157 708 OFFCURVE",
"45 590 OFFCURVE",
"45 352 CURVE SMOOTH",
"45 105 OFFCURVE",
"150 -8 OFFCURVE",
"374 -8 CURVE SMOOTH",
"454 -8 OFFCURVE",
"597 16 OFFCURVE",
"597 76 CURVE SMOOTH",
"597 93 OFFCURVE",
"570 163 OFFCURVE",
"538 163 CURVE SMOOTH",
"523 163 OFFCURVE",
"469 123 OFFCURVE",
"374 123 CURVE SMOOTH",
"259 123 OFFCURVE",
"203 201 OFFCURVE",
"203 351 CURVE SMOOTH",
"203 501 OFFCURVE",
"258 576 OFFCURVE",
"376 576 CURVE SMOOTH",
"471 576 OFFCURVE",
"511 544 OFFCURVE",
"523 544 CURVE SMOOTH",
"548 544 OFFCURVE",
"588 610 OFFCURVE",
"588 638 CURVE SMOOTH",
"588 680 OFFCURVE",
"467 708 OFFCURVE",
"379 708 CURVE SMOOTH"
);
}
);
};
layerId = "2C16E7AF-C861-4509-900A-75D3055B0FF7";
paths = (
{
closed = 1;
nodes = (
"477 -1 OFFCURVE",
"597 93 OFFCURVE",
"597 332 CURVE SMOOTH",
"597 559 OFFCURVE",
"505 708 OFFCURVE",
"296 708 CURVE SMOOTH",
"222 708 OFFCURVE",
"56 680 OFFCURVE",
"56 616 CURVE SMOOTH",
"56 596 OFFCURVE",
"86 540 OFFCURVE",
"108 540 CURVE SMOOTH",
"128 540 OFFCURVE",
"196 591 OFFCURVE",
"289 591 CURVE SMOOTH",
"378 591 OFFCURVE",
"433 544 OFFCURVE",
"444 376 CURVE",
"89 376 LINE SMOOTH",
"76 376 OFFCURVE",
"38 334 OFFCURVE",
"38 317 CURVE SMOOTH",
"38 148 OFFCURVE",
"112 -1 OFFCURVE",
"304 -1 CURVE SMOOTH"
);
},
{
closed = 1;
nodes = (
"219 116 OFFCURVE",
"182 183 OFFCURVE",
"182 277 CURVE",
"444 277 LINE",
"427 152 OFFCURVE",
"371 116 OFFCURVE",
"304 116 CURVE SMOOTH"
);
}
);
width = 672;
}
);
rightKerningGroup = O;
unicode = 018F;
userData = {
RMXScaler = {
source = Schwa;
};
};
},
{
color = 4;
glyphname = T;
layers = (
{
anchors = (
{
name = bottom;
position = "{275, 0}";
},
{
name = center;
position = "{275, 350}";
},
{
name = top;
position = "{275, 700}";
}
);
layerId = UUID0;
paths = (
{
closed = 1;
nodes = (
"280 -2 LINE SMOOTH",
"308 -2 OFFCURVE",
"320 6 OFFCURVE",
"320 20 CURVE SMOOTH",
"320 624 LINE",
"509 624 LINE SMOOTH",
"523 624 OFFCURVE",
"529 633 OFFCURVE",
"529 654 CURVE SMOOTH",
"529 670 LINE SMOOTH",
"529 691 OFFCURVE",
"523 700 OFFCURVE",
"509 700 CURVE SMOOTH",
"40 700 LINE SMOOTH",
"26 700 OFFCURVE",
"20 691 OFFCURVE",
"20 670 CURVE SMOOTH",
"20 654 LINE SMOOTH",
"20 633 OFFCURVE",
"26 624 OFFCURVE",
"40 624 CURVE SMOOTH",
"232 624 LINE",
"232 20 LINE SMOOTH",
"232 6 OFFCURVE",
"244 -2 OFFCURVE",
"272 -2 CURVE SMOOTH"
);
}
);
width = 549;
},
{
anchors = (
{
name = bottom;
position = "{275, 0}";
},
{
name = center;
position = "{275, 350}";
},
{
name = top;
position = "{275, 700}";
}
);
layerId = "2C16E7AF-C861-4509-900A-75D3055B0FF7";
paths = (
{
closed = 1;
nodes = (
"292 -2 LINE SMOOTH",
"334 -2 OFFCURVE",
"352 9 OFFCURVE",
"352 30 CURVE SMOOTH",
"352 569 LINE",
"511 569 LINE SMOOTH",
"532 569 OFFCURVE",
"541 584 OFFCURVE",
"541 619 CURVE SMOOTH",
"541 650 LINE SMOOTH",
"541 685 OFFCURVE",
"532 700 OFFCURVE",
"511 700 CURVE SMOOTH",
"38 700 LINE SMOOTH",
"17 700 OFFCURVE",
"8 685 OFFCURVE",
"8 650 CURVE SMOOTH",
"8 619 LINE SMOOTH",
"8 584 OFFCURVE",
"17 569 OFFCURVE",
"38 569 CURVE SMOOTH",
"197 569 LINE",
"197 30 LINE SMOOTH",
"197 9 OFFCURVE",
"215 -2 OFFCURVE",
"257 -2 CURVE SMOOTH"
);
}
);
width = 549;
}
);
leftKerningGroup = T;
rightKerningGroup = T;
unicode = 0054;
userData = {
RMXScaler = {
source = T;
};
};
},
{
color = 4;
glyphname = U;
layers = (
{
anchors = (
{
name = bottom;
position = "{357, 0}";
},
{
name = horn;
position = "{581, 702}";
},
{
name = ogonek;
position = "{431, 0}";
},
{
name = top;
position = "{356, 700}";
}
);
layerId = UUID0;
paths = (
{
closed = 1;
nodes = (
"532 -6 OFFCURVE",
"629 80 OFFCURVE",
"629 224 CURVE SMOOTH",
"629 680 LINE SMOOTH",
"629 694 OFFCURVE",
"617 702 OFFCURVE",
"589 702 CURVE SMOOTH",
"581 702 LINE SMOOTH",
"553 702 OFFCURVE",
"541 694 OFFCURVE",
"541 680 CURVE SMOOTH",
"541 221 LINE SMOOTH",
"541 133 OFFCURVE",
"463 70 OFFCURVE",
"356 70 CURVE SMOOTH",
"250 70 OFFCURVE",
"171 132 OFFCURVE",
"171 221 CURVE SMOOTH",
"171 680 LINE SMOOTH",
"171 694 OFFCURVE",
"159 702 OFFCURVE",
"131 702 CURVE SMOOTH",
"123 702 LINE SMOOTH",
"95 702 OFFCURVE",
"83 694 OFFCURVE",
"83 680 CURVE SMOOTH",
"83 224 LINE SMOOTH",
"83 80 OFFCURVE",
"179 -6 OFFCURVE",
"356 -6 CURVE SMOOTH"
);
}
);
width = 712;
},
{
anchors = (
{
name = bottom;
position = "{356, 0}";
},
{
name = horn;
position = "{553, 702}";
},
{
name = ogonek;
position = "{447, 0}";
},
{
name = top;
position = "{356, 700}";
}
);
layerId = "2C16E7AF-C861-4509-900A-75D3055B0FF7";
paths = (
{
closed = 1;
nodes = (
"539 -8 OFFCURVE",
"646 80 OFFCURVE",
"646 234 CURVE SMOOTH",
"646 670 LINE SMOOTH",
"646 691 OFFCURVE",
"628 702 OFFCURVE",
"586 702 CURVE SMOOTH",
"553 702 LINE SMOOTH",
"511 702 OFFCURVE",
"493 691 OFFCURVE",
"493 670 CURVE SMOOTH",
"493 244 LINE SMOOTH",
"493 174 OFFCURVE",
"437 123 OFFCURVE",
"356 123 CURVE SMOOTH",
"275 123 OFFCURVE",
"220 174 OFFCURVE",
"220 244 CURVE SMOOTH",
"220 670 LINE SMOOTH",
"220 691 OFFCURVE",
"202 702 OFFCURVE",
"160 702 CURVE SMOOTH",
"126 702 LINE SMOOTH",
"84 702 OFFCURVE",
"66 691 OFFCURVE",
"66 670 CURVE SMOOTH",
"66 234 LINE SMOOTH",
"66 80 OFFCURVE",
"173 -8 OFFCURVE",
"356 -8 CURVE SMOOTH"
);
}
);
width = 712;
}
);
unicode = 0055;
userData = {
RMXScaler = {
source = U;
};
};
},
{
color = 11;
glyphname = Uhorn;
layers = (
{
anchors = (
{
name = bottom;
position = "{357, 0}";
},
{
name = ogonek;
position = "{501, 22}";
},
{
name = top;
position = "{356, 700}";
}
);
layerId = UUID0;
paths = (
{
closed = 1;
nodes = (
"732 788 OFFCURVE",
"712 833 OFFCURVE",
"689 833 CURVE SMOOTH",
"685 833 OFFCURVE",
"681 832 OFFCURVE",
"677 829 CURVE",
"653 813 LINE SMOOTH",
"647 809 OFFCURVE",
"644 803 OFFCURVE",
"644 797 CURVE SMOOTH",
"644 785 OFFCURVE",
"671 765 OFFCURVE",
"671 735 CURVE SMOOTH",
"671 719 OFFCURVE",
"659 702 OFFCURVE",
"616 702 CURVE SMOOTH",
"581 702 LINE SMOOTH",
"553 702 OFFCURVE",
"541 694 OFFCURVE",
"541 680 CURVE SMOOTH",
"541 221 LINE SMOOTH",
"541 133 OFFCURVE",
"463 70 OFFCURVE",
"356 70 CURVE SMOOTH",
"250 70 OFFCURVE",
"171 132 OFFCURVE",
"171 221 CURVE SMOOTH",
"171 680 LINE SMOOTH",
"171 694 OFFCURVE",
"159 702 OFFCURVE",
"131 702 CURVE SMOOTH",
"123 702 LINE SMOOTH",
"95 702 OFFCURVE",
"83 694 OFFCURVE",
"83 680 CURVE SMOOTH",
"83 224 LINE SMOOTH",
"83 80 OFFCURVE",
"179 -6 OFFCURVE",
"356 -6 CURVE SMOOTH",
"532 -6 OFFCURVE",
"629 80 OFFCURVE",
"629 224 CURVE SMOOTH",
"629 669 LINE",
"700 672 OFFCURVE",
"732 708 OFFCURVE",
"732 759 CURVE SMOOTH"
);
}
);
width = 712;
},
{
anchors = (
{
name = bottom;
position = "{356, 0}";
},
{
name = ogonek;
position = "{447, 0}";
},
{
name = top;
position = "{356, 700}";
}
);
layerId = "2C16E7AF-C861-4509-900A-75D3055B0FF7";
paths = (
{
closed = 1;
nodes = (
"738 783 OFFCURVE",
"717 836 OFFCURVE",
"691 836 CURVE SMOOTH",
"685 836 OFFCURVE",
"680 835 OFFCURVE",
"675 831 CURVE",
"643 809 LINE",
"635 804 OFFCURVE",
"632 797 OFFCURVE",
"632 790 CURVE SMOOTH",
"632 777 OFFCURVE",
"658 760 OFFCURVE",
"658 738 CURVE SMOOTH",
"658 715 OFFCURVE",
"645 702 OFFCURVE",
"611 702 CURVE SMOOTH",
"553 702 LINE SMOOTH",
"511 702 OFFCURVE",
"493 691 OFFCURVE",
"493 670 CURVE SMOOTH",
"493 244 LINE SMOOTH",
"493 174 OFFCURVE",
"437 123 OFFCURVE",
"356 123 CURVE SMOOTH",
"275 123 OFFCURVE",
"220 174 OFFCURVE",
"220 244 CURVE SMOOTH",
"220 670 LINE SMOOTH",
"220 691 OFFCURVE",
"202 702 OFFCURVE",
"160 702 CURVE SMOOTH",
"126 702 LINE SMOOTH",
"84 702 OFFCURVE",
"66 691 OFFCURVE",
"66 670 CURVE SMOOTH",
"66 234 LINE SMOOTH",
"66 80 OFFCURVE",
"173 -8 OFFCURVE",
"356 -8 CURVE SMOOTH",
"539 -8 OFFCURVE",
"646 80 OFFCURVE",
"646 234 CURVE SMOOTH",
"646 662 LINE",
"710 671 OFFCURVE",
"738 705 OFFCURVE",
"738 753 CURVE SMOOTH"
);
}
);
width = 712;
}
);
rightKerningGroup = Uhorn;
unicode = 01AF;
userData = {
RMXScaler = {
source = Uhorn;
};
};
},
{
color = 4;
glyphname = V;
layers = (
{
layerId = UUID0;
paths = (
{
closed = 1;
nodes = (
"324 -2 LINE SMOOTH",
"344 -2 OFFCURVE",
"360 2 OFFCURVE",
"364 14 CURVE SMOOTH",
"593 671 LINE SMOOTH",
"595 677 OFFCURVE",
"596 681 OFFCURVE",
"596 685 CURVE SMOOTH",
"596 696 OFFCURVE",
"583 702 OFFCURVE",
"553 702 CURVE SMOOTH",
"547 702 LINE SMOOTH",
"527 702 OFFCURVE",
"511 698 OFFCURVE",
"507 686 CURVE SMOOTH",
"322 153 LINE",
"311 100 LINE",
"308 100 LINE",
"298 152 LINE",
"113 686 LINE SMOOTH",
"109 698 OFFCURVE",
"93 702 OFFCURVE",
"73 702 CURVE SMOOTH",
"64 702 LINE SMOOTH",
"34 702 OFFCURVE",
"21 695 OFFCURVE",
"21 685 CURVE SMOOTH",
"21 681 OFFCURVE",
"22 677 OFFCURVE",
"24 672 CURVE SMOOTH",
"253 14 LINE SMOOTH",
"257 2 OFFCURVE",
"273 -2 OFFCURVE",
"293 -2 CURVE SMOOTH"
);
}
);
width = 617;
},
{
layerId = "2C16E7AF-C861-4509-900A-75D3055B0FF7";
paths = (
{
closed = 1;
nodes = (
"333 -2 LINE SMOOTH",
"362 -2 OFFCURVE",
"384 3 OFFCURVE",
"389 19 CURVE SMOOTH",
"605 662 LINE SMOOTH",
"607 669 OFFCURVE",
"608 675 OFFCURVE",
"608 680 CURVE SMOOTH",
"608 694 OFFCURVE",
"590 702 OFFCURVE",
"548 702 CURVE SMOOTH",
"517 702 LINE SMOOTH",
"488 702 OFFCURVE",
"465 694 OFFCURVE",
"458 673 CURVE SMOOTH",
"319 240 LINE",
"308 205 LINE",
"304 205 LINE",
"293 240 LINE",
"158 673 LINE SMOOTH",
"151 695 OFFCURVE",
"128 702 OFFCURVE",
"99 702 CURVE SMOOTH",
"66 702 LINE SMOOTH",
"24 702 OFFCURVE",
"5 694 OFFCURVE",
"5 680 CURVE SMOOTH",
"5 675 OFFCURVE",
"7 669 OFFCURVE",
"9 662 CURVE SMOOTH",
"225 19 LINE SMOOTH",
"230 3 OFFCURVE",
"252 -2 OFFCURVE",
"281 -2 CURVE SMOOTH"
);
}
);
width = 617;
}
);
leftKerningGroup = V;
rightKerningGroup = V;
unicode = 0056;
userData = {
RMXScaler = {
source = V;
};
};
},
{
color = 4;
glyphname = W;
layers = (
{
anchors = (
{
name = top;
position = "{441, 700}";
}
);
layerId = UUID0;
paths = (
{
closed = 1;
nodes = (
"270 -2 LINE SMOOTH",
"290 -2 OFFCURVE",
"307 2 OFFCURVE",
"310 14 CURVE SMOOTH",
"419 421 LINE",
"440 551 LINE",
"461 421 LINE",
"570 14 LINE SMOOTH",
"573 2 OFFCURVE",
"590 -2 OFFCURVE",
"610 -2 CURVE SMOOTH",
"651 -2 LINE SMOOTH",
"671 -2 OFFCURVE",
"688 2 OFFCURVE",
"691 14 CURVE SMOOTH",
"864 671 LINE SMOOTH",
"865 675 OFFCURVE",
"867 683 OFFCURVE",
"867 685 CURVE SMOOTH",
"867 696 OFFCURVE",
"854 702 OFFCURVE",
"824 702 CURVE SMOOTH",
"818 702 LINE SMOOTH",
"798 702 OFFCURVE",
"781 698 OFFCURVE",
"778 686 CURVE SMOOTH",
"657 196 LINE",
"649 164 OFFCURVE",
"641 133 OFFCURVE",
"633 101 CURVE",
"633 101 OFFCURVE",
"625 158 OFFCURVE",
"616 193 CURVE SMOOTH",
"492 685 LINE SMOOTH",
"489 698 OFFCURVE",
"473 702 OFFCURVE",
"453 702 CURVE SMOOTH",
"437 702 LINE SMOOTH",
"417 702 OFFCURVE",
"401 698 OFFCURVE",
"398 685 CURVE SMOOTH",
"277 197 LINE",
"269 165 OFFCURVE",
"261 133 OFFCURVE",
"253 101 CURVE",
"252 104 OFFCURVE",
"242 167 OFFCURVE",
"235 194 CURVE SMOOTH",
"108 686 LINE SMOOTH",
"105 698 OFFCURVE",
"88 702 OFFCURVE",
"68 702 CURVE SMOOTH",
"58 702 LINE SMOOTH",
"28 702 OFFCURVE",
"15 695 OFFCURVE",
"15 685 CURVE SMOOTH",
"15 681 OFFCURVE",
"17 675 OFFCURVE",
"18 671 CURVE SMOOTH",
"189 14 LINE SMOOTH",
"192 2 OFFCURVE",
"209 -2 OFFCURVE",
"229 -2 CURVE SMOOTH"
);
}
);
width = 882;
},
{
anchors = (
{
name = top;
position = "{441, 700}";
}
);
layerId = "2C16E7AF-C861-4509-900A-75D3055B0FF7";
paths = (
{
closed = 1;
nodes = (
"283 -2 LINE SMOOTH",
"311 -2 OFFCURVE",
"334.5 5 OFFCURVE",
"338 19 CURVE SMOOTH",
"423 365 LINE",
"440 433 LINE",
"456 365 LINE",
"538 19 LINE SMOOTH",
"541 5 OFFCURVE",
"565 -2 OFFCURVE",
"593 -2 CURVE SMOOTH",
"666 -2 LINE SMOOTH",
"694 -2 OFFCURVE",
"717.5 5 OFFCURVE",
"721 19 CURVE SMOOTH",
"884 661 LINE SMOOTH",
"885.5 667 OFFCURVE",
"886 672 OFFCURVE",
"886 676 CURVE SMOOTH",
"886 692 OFFCURVE",
"867 702 OFFCURVE",
"824 702 CURVE SMOOTH",
"813 702 LINE SMOOTH",
"774 702 OFFCURVE",
"751 692 OFFCURVE",
"746 671 CURVE SMOOTH",
"668 349 LINE SMOOTH",
"659 311 OFFCURVE",
"647 253 OFFCURVE",
"634 198 CURVE",
"622 254 OFFCURVE",
"609 311 OFFCURVE",
"600 349 CURVE SMOOTH",
"521 681 LINE SMOOTH",
"517 697 OFFCURVE",
"498 702 OFFCURVE",
"466 702 CURVE SMOOTH",
"428 702 LINE SMOOTH",
"396 702 OFFCURVE",
"377 697 OFFCURVE",
"373 681 CURVE SMOOTH",
"291 349 LINE SMOOTH",
"282.5 315 OFFCURVE",
"266 261 OFFCURVE",
"257 205 CURVE",
"245 261 OFFCURVE",
"234 315 OFFCURVE",
"226 349 CURVE SMOOTH",
"151 671 LINE SMOOTH",
"146 692 OFFCURVE",
"123 702 OFFCURVE",
"84 702 CURVE SMOOTH",
"58 702 LINE SMOOTH",
"15 702 OFFCURVE",
"-4 692 OFFCURVE",
"-4 676 CURVE SMOOTH",
"-4 672 OFFCURVE",
"-3.5 667 OFFCURVE",
"-2 661 CURVE SMOOTH",
"156 19 LINE SMOOTH",
"159.5 5 OFFCURVE",
"179 -2 OFFCURVE",
"211 -2 CURVE SMOOTH"
);
}
);
width = 882;
}
);
leftKerningGroup = V;
rightKerningGroup = V;
unicode = 0057;
userData = {
RMXScaler = {
source = W;
};
};
},
{
color = 4;
glyphname = X;
layers = (
{
layerId = UUID0;
paths = (
{
closed = 1;
nodes = (
"74 -2 LINE SMOOTH",
"92 -2 OFFCURVE",
"110 1 OFFCURVE",
"117 12 CURVE SMOOTH",
"303 288 LINE",
"487 13 LINE SMOOTH",
"495 1 OFFCURVE",
"509 -2 OFFCURVE",
"530 -2 CURVE SMOOTH",
"546 -2 LINE SMOOTH",
"580 -2 OFFCURVE",
"592 4 OFFCURVE",
"592 15 CURVE SMOOTH",
"592 20 OFFCURVE",
"589 26 OFFCURVE",
"584 33 CURVE SMOOTH",
"359 370 LINE",
"559 667 LINE SMOOTH",
"563.5 674 OFFCURVE",
"567 680 OFFCURVE",
"567 685 CURVE SMOOTH",
"567 697 OFFCURVE",
"554 702 OFFCURVE",
"521 702 CURVE SMOOTH",
"515 702 LINE SMOOTH",
"497 702 OFFCURVE",
"479 699 OFFCURVE",
"472 688 CURVE SMOOTH",
"307 446 LINE",
"147 687 LINE SMOOTH",
"139 699 OFFCURVE",
"125 702 OFFCURVE",
"104 702 CURVE SMOOTH",
"90 702 LINE SMOOTH",
"56 702 OFFCURVE",
"44 696 OFFCURVE",
"44 685 CURVE SMOOTH",
"44 680 OFFCURVE",
"47 674 OFFCURVE",
"52 667 CURVE SMOOTH",
"252 365 LINE",
"28 33 LINE SMOOTH",
"23 26 OFFCURVE",
"20 20 OFFCURVE",
"20 15 CURVE SMOOTH",
"20 3 OFFCURVE",
"33 -2 OFFCURVE",
"66 -2 CURVE SMOOTH"
);
}
);
width = 611;
},
{
layerId = "2C16E7AF-C861-4509-900A-75D3055B0FF7";
paths = (
{
closed = 1;
nodes = (
"109 -2 LINE SMOOTH",
"138 -2 OFFCURVE",
"158 -1 OFFCURVE",
"170 17 CURVE SMOOTH",
"308 232 LINE",
"441 17 LINE SMOOTH",
"450 2 OFFCURVE",
"472 -2 OFFCURVE",
"501 -2 CURVE SMOOTH",
"540 -2 LINE SMOOTH",
"584 -2 OFFCURVE",
"603 5 OFFCURVE",
"603 17 CURVE SMOOTH",
"603 24 OFFCURVE",
"600 32 OFFCURVE",
"594 42 CURVE SMOOTH",
"394 363 LINE",
"583 658 LINE SMOOTH",
"589.5 668 OFFCURVE",
"593 677 OFFCURVE",
"593 683 CURVE SMOOTH",
"593 695 OFFCURVE",
"573 702 OFFCURVE",
"530 702 CURVE SMOOTH",
"491 702 LINE SMOOTH",
"462 702 OFFCURVE",
"441 700 OFFCURVE",
"430 683 CURVE SMOOTH",
"310 497 LINE",
"196 683 LINE SMOOTH",
"187 698 OFFCURVE",
"165 702 OFFCURVE",
"136 702 CURVE SMOOTH",
"95 702 LINE SMOOTH",
"51 702 OFFCURVE",
"31 694 OFFCURVE",
"31 683 CURVE SMOOTH",
"31 676 OFFCURVE",
"35 668 OFFCURVE",
"41 658 CURVE SMOOTH",
"224 365 LINE",
"18 42 LINE SMOOTH",
"11 31 OFFCURVE",
"8 23 OFFCURVE",
"8 17 CURVE SMOOTH",
"8 5 OFFCURVE",
"27 -2 OFFCURVE",
"71 -2 CURVE SMOOTH"
);
}
);
width = 611;
}
);
leftKerningGroup = X;
rightKerningGroup = X;
unicode = 0058;
userData = {
RMXScaler = {
source = X;
};
};
},
{
color = 4;
glyphname = Y;
layers = (
{
anchors = (
{
name = bottom;
position = "{279, 0}";
},
{
name = top;
position = "{280, 700}";
}
);
layerId = UUID0;
paths = (
{
closed = 1;
nodes = (
"283 -2 LINE SMOOTH",
"311 -2 OFFCURVE",
"323 6 OFFCURVE",
"323 20 CURVE SMOOTH",
"323 356 LINE",
"533 667 LINE SMOOTH",
"537.5 674 OFFCURVE",
"541 680 OFFCURVE",
"541 685 CURVE SMOOTH",
"541 696 OFFCURVE",
"530 701 OFFCURVE",
"502 702 CURVE",
"495 702 LINE",
"475 702 OFFCURVE",
"457 699 OFFCURVE",
"450 688 CURVE SMOOTH",
"282 441 LINE",
"118 687 LINE SMOOTH",
"110 699 OFFCURVE",
"96 702 OFFCURVE",
"75 702 CURVE SMOOTH",
"64 702 LINE SMOOTH",
"30 702 OFFCURVE",
"18 696 OFFCURVE",
"18 685 CURVE SMOOTH",
"18 680 OFFCURVE",
"21 674 OFFCURVE",
"26 667 CURVE SMOOTH",
"235 359 LINE",
"235 20 LINE SMOOTH",
"235 6 OFFCURVE",
"247 -2 OFFCURVE",
"275 -2 CURVE SMOOTH"
);
}
);
width = 559;
},
{
anchors = (
{
name = bottom;
position = "{282, 0}";
},
{
name = top;
position = "{280, 700}";
}
);
layerId = "2C16E7AF-C861-4509-900A-75D3055B0FF7";
paths = (
{
closed = 1;
nodes = (
"297 -2 LINE SMOOTH",
"339 -2 OFFCURVE",
"357 9 OFFCURVE",
"357 30 CURVE SMOOTH",
"357 333 LINE",
"556 657 LINE SMOOTH",
"562 667 OFFCURVE",
"565 676 OFFCURVE",
"565 682 CURVE SMOOTH",
"565 694 OFFCURVE",
"546 702 OFFCURVE",
"502 702 CURVE SMOOTH",
"466 702 LINE SMOOTH",
"437 702 OFFCURVE",
"415 698 OFFCURVE",
"406 683 CURVE SMOOTH",
"283 469 LINE",
"161 683 LINE SMOOTH",
"152 698 OFFCURVE",
"130 702 OFFCURVE",
"101 702 CURVE SMOOTH",
"58 702 LINE SMOOTH",
"14 702 OFFCURVE",
"-6 694 OFFCURVE",
"-6 682 CURVE SMOOTH",
"-6 676 OFFCURVE",
"-2 667 OFFCURVE",
"4 657 CURVE SMOOTH",
"203 336 LINE",
"203 30 LINE SMOOTH",
"203 9 OFFCURVE",
"221 -2 OFFCURVE",
"263 -2 CURVE SMOOTH"
);
}
);
width = 559;
}
);
leftKerningGroup = Y;
rightKerningGroup = Y;
unicode = 0059;
userData = {
RMXScaler = {
source = Y;
};
};
},
{
color = 4;
glyphname = Z;
layers = (
{
anchors = (
{
name = bottom;
position = "{318, 0}";
},
{
name = top;
position = "{308, 700}";
}
);
layerId = UUID0;
paths = (
{
closed = 1;
nodes = (
"549 0 LINE SMOOTH",
"563 0 OFFCURVE",
"569 10 OFFCURVE",
"569 34 CURVE SMOOTH",
"569 42 LINE SMOOTH",
"569 66 OFFCURVE",
"563 76 OFFCURVE",
"549 76 CURVE SMOOTH",
"158 76 LINE",
"568 635 LINE SMOOTH",
"570 638 OFFCURVE",
"571 642 OFFCURVE",
"571 647 CURVE SMOOTH",
"571 668 OFFCURVE",
"556 700 OFFCURVE",
"549 700 CURVE SMOOTH",
"91 700 LINE SMOOTH",
"77 700 OFFCURVE",
"71 690 OFFCURVE",
"71 666 CURVE SMOOTH",
"71 658 LINE SMOOTH",
"71 634 OFFCURVE",
"77 624 OFFCURVE",
"91 624 CURVE SMOOTH",
"451 624 LINE",
"41 65 LINE SMOOTH",
"39 62 OFFCURVE",
"38 58 OFFCURVE",
"38 53 CURVE SMOOTH",
"38 33 OFFCURVE",
"52 0 OFFCURVE",
"62 0 CURVE"
);
}
);
width = 616;
},
{
anchors = (
{
name = bottom;
position = "{299, 0}";
},
{
name = top;
position = "{308, 700}";
}
);
layerId = "2C16E7AF-C861-4509-900A-75D3055B0FF7";
paths = (
{
closed = 1;
nodes = (
"550 0 LINE SMOOTH",
"571 0 OFFCURVE",
"580 15 OFFCURVE",
"580 50 CURVE SMOOTH",
"580 81 LINE SMOOTH",
"580 116 OFFCURVE",
"571 131 OFFCURVE",
"550 131 CURVE SMOOTH",
"245 131 LINE",
"579 600 LINE SMOOTH",
"580 602 OFFCURVE",
"580 604 OFFCURVE",
"580 608 CURVE SMOOTH",
"580 634 OFFCURVE",
"559 700 OFFCURVE",
"543 700 CURVE SMOOTH",
"86 700 LINE SMOOTH",
"65 700 OFFCURVE",
"56 685 OFFCURVE",
"56 650 CURVE SMOOTH",
"56 619 LINE SMOOTH",
"56 584 OFFCURVE",
"65 569 OFFCURVE",
"86 569 CURVE SMOOTH",
"364 569 LINE",
"29 99 LINE SMOOTH",
"28 97 OFFCURVE",
"27 93 OFFCURVE",
"27 89 CURVE SMOOTH",
"27 62 OFFCURVE",
"49 0 OFFCURVE",
"66 0 CURVE"
);
}
);
width = 616;
}
);
leftKerningGroup = Z;
rightKerningGroup = Z;
unicode = 005A;
userData = {
RMXScaler = {
source = Z;
};
};
},
{
color = 11;
glyphname = Y.loclGUA;
layers = (
{
anchors = (
{
name = bottom;
position = "{279, 0}";
},
{
name = top;
position = "{280, 700}";
}
);
background = {
paths = (
{
closed = 1;
nodes = (
"426 700 LINE SMOOTH",
"398 700 OFFCURVE",
"386 692 OFFCURVE",
"386 678 CURVE SMOOTH",
"386 312 LINE",
"353 269 OFFCURVE",
"305 242 OFFCURVE",
"260 242 CURVE SMOOTH",
"195 242 OFFCURVE",
"158 278 OFFCURVE",
"158 339 CURVE SMOOTH",
"158 678 LINE SMOOTH",
"158 692 OFFCURVE",
"146 700 OFFCURVE",
"118 700 CURVE SMOOTH",
"114 700 LINE SMOOTH",
"86 700 OFFCURVE",
"74 692 OFFCURVE",
"74 678 CURVE SMOOTH",
"74 331 LINE SMOOTH",
"74 230 OFFCURVE",
"135 169 OFFCURVE",
"237 169 CURVE SMOOTH",
"293 169 OFFCURVE",
"351 197 OFFCURVE",
"393 244 CURVE",
"399 218 OFFCURVE",
"404 178 OFFCURVE",
"428 178 CURVE SMOOTH",
"441 178 OFFCURVE",
"482 182 OFFCURVE",
"482 201 CURVE SMOOTH",
"482 206 OFFCURVE",
"470 245 OFFCURVE",
"470 327 CURVE SMOOTH",
"470 678 LINE SMOOTH",
"470 692 OFFCURVE",
"458 700 OFFCURVE",
"430 700 CURVE SMOOTH"
);
}
);
};
layerId = UUID0;
paths = (
{
closed = 1;
nodes = (
"401 -8 OFFCURVE",
"485 57 OFFCURVE",
"485 274 CURVE SMOOTH",
"485 680 LINE SMOOTH",
"485 694 OFFCURVE",
"473 702 OFFCURVE",
"445 702 CURVE SMOOTH",
"441 702 LINE SMOOTH",
"413 702 OFFCURVE",
"401 694 OFFCURVE",
"401 680 CURVE SMOOTH",
"401 354 LINE",
"362 312 OFFCURVE",
"308 284 OFFCURVE",
"252 284 CURVE SMOOTH",
"193 284 OFFCURVE",
"158 323 OFFCURVE",
"158 390 CURVE SMOOTH",
"158 680 LINE SMOOTH",
"158 694 OFFCURVE",
"146 702 OFFCURVE",
"118 702 CURVE SMOOTH",
"114 702 LINE SMOOTH",
"86 702 OFFCURVE",
"74 694 OFFCURVE",
"74 680 CURVE SMOOTH",
"74 382 LINE SMOOTH",
"74 268 OFFCURVE",
"132 211 OFFCURVE",
"229 211 CURVE SMOOTH",
"299 211 OFFCURVE",
"375 238 OFFCURVE",
"419 298 CURVE",
"401 323 LINE",
"401 278 LINE",
"402 118 OFFCURVE",
"365 64 OFFCURVE",
"253 64 CURVE SMOOTH",
"157 64 OFFCURVE",
"98 97 OFFCURVE",
"86 97 CURVE SMOOTH",
"83 97 OFFCURVE",
"77 91 OFFCURVE",
"77 67 CURVE SMOOTH",
"77 63 OFFCURVE",
"77 49 OFFCURVE",
"78 42 CURVE SMOOTH",
"81 21 OFFCURVE",
"159 -8 OFFCURVE",
"265 -8 CURVE SMOOTH"
);
}
);
width = 559;
},
{
anchors = (
{
name = bottom;
position = "{268, 0}";
},
{
name = top;
position = "{268, 700}";
}
);
background = {
paths = (
{
closed = 1;
nodes = (
"398 701 LINE SMOOTH",
"356 701 OFFCURVE",
"338 690 OFFCURVE",
"338 669 CURVE SMOOTH",
"338 348 LINE",
"326 325 OFFCURVE",
"299 290 OFFCURVE",
"258 290 CURVE SMOOTH",
"214 290 OFFCURVE",
"198 313 OFFCURVE",
"198 352 CURVE SMOOTH",
"198 669 LINE SMOOTH",
"198 690 OFFCURVE",
"180 701 OFFCURVE",
"138 701 CURVE SMOOTH",
"110 701 LINE SMOOTH",
"68 701 OFFCURVE",
"50 690 OFFCURVE",
"50 669 CURVE SMOOTH",
"50 330 LINE SMOOTH",
"50 219 OFFCURVE",
"97 168 OFFCURVE",
"197 168 CURVE SMOOTH",
"262 168 OFFCURVE",
"317 206 OFFCURVE",
"346 244 CURVE",
"352 219 OFFCURVE",
"354 179 OFFCURVE",
"386 179 CURVE SMOOTH",
"411 179 OFFCURVE",
"498 187 OFFCURVE",
"498 211 CURVE SMOOTH",
"498 231 OFFCURVE",
"486 252 OFFCURVE",
"486 352 CURVE SMOOTH",
"486 669 LINE SMOOTH",
"486 690 OFFCURVE",
"468 701 OFFCURVE",
"426 701 CURVE SMOOTH"
);
}
);
};
layerId = "2C16E7AF-C861-4509-900A-75D3055B0FF7";
paths = (
{
closed = 1;
nodes = (
"433 -9 OFFCURVE",
"510 83 OFFCURVE",
"510 273 CURVE SMOOTH",
"510 669 LINE SMOOTH",
"510 690 OFFCURVE",
"492 701 OFFCURVE",
"450 701 CURVE SMOOTH",
"422 701 LINE SMOOTH",
"380 701 OFFCURVE",
"362 690 OFFCURVE",
"362 669 CURVE SMOOTH",
"362 388 LINE",
"345 361 OFFCURVE",
"318 330 OFFCURVE",
"271 330 CURVE SMOOTH",
"217 330 OFFCURVE",
"197 350 OFFCURVE",
"197 406 CURVE SMOOTH",
"197 669 LINE SMOOTH",
"197 690 OFFCURVE",
"179 701 OFFCURVE",
"137 701 CURVE SMOOTH",
"109 701 LINE SMOOTH",
"67 701 OFFCURVE",
"49 690 OFFCURVE",
"49 669 CURVE SMOOTH",
"49 378 LINE SMOOTH",
"49 265 OFFCURVE",
"98 208 OFFCURVE",
"215 208 CURVE SMOOTH",
"294 208 OFFCURVE",
"356 249 OFFCURVE",
"382 303 CURVE",
"362 341 LINE",
"362 219 LINE SMOOTH",
"362 145 OFFCURVE",
"316 108 OFFCURVE",
"220 108 CURVE SMOOTH",
"137 108 OFFCURVE",
"84 148 OFFCURVE",
"71 148 CURVE SMOOTH",
"62 148 OFFCURVE",
"52 137 OFFCURVE",
"52 110 CURVE SMOOTH",
"52 99 OFFCURVE",
"53 79 OFFCURVE",
"55 62 CURVE SMOOTH",
"60 19 OFFCURVE",
"151 -9 OFFCURVE",
"248 -9 CURVE SMOOTH"
);
}
);
width = 559;
}
);
userData = {
RMXScaler = {
source = Y;
};
};
},
{
color = 4;
glyphname = a;
layers = (
{
anchors = (
{
name = bottom;
position = "{261, 0}";
},
{
name = ogonek;
position = "{475, 17}";
},
{
name = top;
position = "{273, 523}";
}
);
layerId = UUID0;
paths = (
{
closed = 1;
nodes = (
"295 -6 OFFCURVE",
"350 27 OFFCURVE",
"388 69 CURVE",
"394 41 OFFCURVE",
"399 -1 OFFCURVE",
"423 -1 CURVE SMOOTH",
"436 -1 OFFCURVE",
"477 3 OFFCURVE",
"477 22 CURVE SMOOTH",
"477 27 OFFCURVE",
"465 66 OFFCURVE",
"465 148 CURVE SMOOTH",
"465 372 LINE SMOOTH",
"465 471 OFFCURVE",
"392 529 OFFCURVE",
"268 529 CURVE SMOOTH",
"168 529 OFFCURVE",
"80 491 OFFCURVE",
"80 465 CURVE SMOOTH",
"80 454 OFFCURVE",
"101 415 OFFCURVE",
"115 415 CURVE SMOOTH",
"125 415 OFFCURVE",
"180 457 OFFCURVE",
"271 457 CURVE SMOOTH",
"354 457 OFFCURVE",
"381 418 OFFCURVE",
"381 373 CURVE SMOOTH",
"381 326 LINE",
"228 324 OFFCURVE",
"49 313 OFFCURVE",
"49 144 CURVE SMOOTH",
"49 41 OFFCURVE",
"123 -6 OFFCURVE",
"220 -6 CURVE SMOOTH"
);
},
{
closed = 1;
nodes = (
"168 67 OFFCURVE",
"139 96 OFFCURVE",
"139 149 CURVE SMOOTH",
"139 253 OFFCURVE",
"277 253 OFFCURVE",
"381 254 CURVE",
"381 136 LINE",
"341 100 OFFCURVE",
"297 67 OFFCURVE",
"224 67 CURVE SMOOTH"
);
}
);
width = 545;
},
{
anchors = (
{
name = bottom;
position = "{273, 0}";
},
{
name = ogonek;
position = "{482, 31}";
},
{
name = top;
position = "{273, 523}";
}
);
layerId = "2C16E7AF-C861-4509-900A-75D3055B0FF7";
paths = (
{
closed = 1;
nodes = (
"282 -8 OFFCURVE",
"330 55 OFFCURVE",
"337 68 CURVE",
"343 41 OFFCURVE",
"345 -1 OFFCURVE",
"377 -1 CURVE SMOOTH",
"402 -1 OFFCURVE",
"489 7 OFFCURVE",
"489 31 CURVE SMOOTH",
"489 52 OFFCURVE",
"477 73 OFFCURVE",
"477 176 CURVE SMOOTH",
"477 364 LINE SMOOTH",
"477 461 OFFCURVE",
"420 531 OFFCURVE",
"262 531 CURVE SMOOTH",
"151 531 OFFCURVE",
"71 496 OFFCURVE",
"71 462 CURVE SMOOTH",
"71 441 OFFCURVE",
"102 382 OFFCURVE",
"123 382 CURVE SMOOTH",
"135 382 OFFCURVE",
"178 414 OFFCURVE",
"251 414 CURVE SMOOTH",
"306 414 OFFCURVE",
"329 395 OFFCURVE",
"329 357 CURVE SMOOTH",
"329 324 LINE",
"75 324 OFFCURVE",
"42 220 OFFCURVE",
"42 138 CURVE SMOOTH",
"42 56 OFFCURVE",
"82 -8 OFFCURVE",
"190 -8 CURVE SMOOTH"
);
},
{
closed = 1;
nodes = (
"206 109 OFFCURVE",
"189 128 OFFCURVE",
"189 153 CURVE SMOOTH",
"189 201 OFFCURVE",
"234 227 OFFCURVE",
"329 227 CURVE",
"329 172 LINE",
"313 136 OFFCURVE",
"277 109 OFFCURVE",
"239 109 CURVE SMOOTH"
);
}
);
width = 545;
}
);
leftKerningGroup = a;
rightKerningGroup = a;
unicode = 0061;
userData = {
RMXScaler = {
source = a;
};
};
},
{
color = 11;
glyphname = ae;
layers = (
{
anchors = (
{
name = top;
position = "{419, 523}";
}
);
layerId = UUID0;
paths = (
{
closed = 1;
nodes = (
"298 -6 OFFCURVE",
"360 23 OFFCURVE",
"401 57 CURVE",
"440 15 OFFCURVE",
"500 -6 OFFCURVE",
"580 -6 CURVE SMOOTH",
"681 -6 OFFCURVE",
"760 34 OFFCURVE",
"760 58 CURVE SMOOTH",
"760 69 OFFCURVE",
"739 108 OFFCURVE",
"725 108 CURVE SMOOTH",
"715 108 OFFCURVE",
"666 66 OFFCURVE",
"579 66 CURVE SMOOTH",
"483 66 OFFCURVE",
"437 120 OFFCURVE",
"429 241 CURVE",
"741 241 LINE SMOOTH",
"753 241 OFFCURVE",
"774 270 OFFCURVE",
"774 282 CURVE SMOOTH",
"774 442 OFFCURVE",
"705 529 OFFCURVE",
"568 529 CURVE SMOOTH",
"507 529 OFFCURVE",
"457 513 OFFCURVE",
"420 481 CURVE",
"386 512 OFFCURVE",
"334 529 OFFCURVE",
"268 529 CURVE SMOOTH",
"168 529 OFFCURVE",
"80 491 OFFCURVE",
"80 465 CURVE SMOOTH",
"80 454 OFFCURVE",
"101 415 OFFCURVE",
"115 415 CURVE SMOOTH",
"125 415 OFFCURVE",
"180 457 OFFCURVE",
"271 457 CURVE SMOOTH",
"325 457 OFFCURVE",
"355 440 OFFCURVE",
"370 416 CURVE",
"355 387 OFFCURVE",
"346 352 OFFCURVE",
"342 312 CURVE",
"199 308 OFFCURVE",
"49 287 OFFCURVE",
"49 144 CURVE SMOOTH",
"49 41 OFFCURVE",
"123 -6 OFFCURVE",
"220 -6 CURVE SMOOTH"
);
},
{
closed = 1;
nodes = (
"168 67 OFFCURVE",
"139 96 OFFCURVE",
"139 149 CURVE SMOOTH",
"139 227 OFFCURVE",
"243 238 OFFCURVE",
"339 240 CURVE",
"340 193 OFFCURVE",
"348 152 OFFCURVE",
"362 119 CURVE",
"326 90 OFFCURVE",
"285 67 OFFCURVE",
"224 67 CURVE SMOOTH"
);
},
{
closed = 1;
nodes = (
"436 408 OFFCURVE",
"480 457 OFFCURVE",
"565 457 CURVE SMOOTH",
"645 457 OFFCURVE",
"685 408 OFFCURVE",
"685 313 CURVE",
"429 313 LINE"
);
}
);
width = 819;
},
{
anchors = (
{
name = top;
position = "{416, 523}";
}
);
layerId = "2C16E7AF-C861-4509-900A-75D3055B0FF7";
paths = (
{
closed = 1;
nodes = (
"301 -8 OFFCURVE",
"365 37 OFFCURVE",
"388 60 CURVE",
"431 17 OFFCURVE",
"495 -8 OFFCURVE",
"583 -8 CURVE SMOOTH",
"639 -8 OFFCURVE",
"763 14 OFFCURVE",
"763 64 CURVE SMOOTH",
"763 84 OFFCURVE",
"733 140 OFFCURVE",
"711 140 CURVE SMOOTH",
"697 140 OFFCURVE",
"653 109 OFFCURVE",
"590 109 CURVE SMOOTH",
"532 109 OFFCURVE",
"477 137 OFFCURVE",
"477 224 CURVE",
"732 224 LINE SMOOTH",
"745 224 OFFCURVE",
"781 266 OFFCURVE",
"781 283 CURVE SMOOTH",
"781 422 OFFCURVE",
"722 531 OFFCURVE",
"565 531 CURVE SMOOTH",
"510 531 OFFCURVE",
"462 519 OFFCURVE",
"423 495 CURVE",
"389 518 OFFCURVE",
"336 531 OFFCURVE",
"262 531 CURVE SMOOTH",
"151 531 OFFCURVE",
"71 496 OFFCURVE",
"71 462 CURVE SMOOTH",
"71 441 OFFCURVE",
"102 382 OFFCURVE",
"123 382 CURVE SMOOTH",
"139 382 OFFCURVE",
"189 414 OFFCURVE",
"251 414 CURVE SMOOTH",
"290 414 OFFCURVE",
"325 408 OFFCURVE",
"341 387 CURVE",
"334 368 OFFCURVE",
"329 347 OFFCURVE",
"326 323 CURVE",
"75 322 OFFCURVE",
"42 219 OFFCURVE",
"42 138 CURVE SMOOTH",
"42 56 OFFCURVE",
"100 -8 OFFCURVE",
"208 -8 CURVE SMOOTH"
);
},
{
closed = 1;
nodes = (
"206 109 OFFCURVE",
"189 128 OFFCURVE",
"189 153 CURVE SMOOTH",
"189 200 OFFCURVE",
"232 224 OFFCURVE",
"323 225 CURVE",
"325 200 OFFCURVE",
"329 177 OFFCURVE",
"335 156 CURVE",
"316 125 OFFCURVE",
"274 109 OFFCURVE",
"239 109 CURVE SMOOTH"
);
},
{
closed = 1;
nodes = (
"487 400 OFFCURVE",
"531 414 OFFCURVE",
"565 414 CURVE SMOOTH",
"609 414 OFFCURVE",
"637 381 OFFCURVE",
"637 323 CURVE",
"475 323 LINE"
);
}
);
width = 819;
}
);
leftKerningGroup = a;
leftMetricsKey = a;
rightKerningGroup = e;
rightMetricsKey = e;
unicode = 00E6;
},
{
color = 4;
glyphname = b;
layers = (
{
layerId = UUID0;
paths = (
{
closed = 1;
nodes = (
"441 -6 OFFCURVE",
"515 106 OFFCURVE",
"515 262 CURVE SMOOTH",
"515 435 OFFCURVE",
"431 529 OFFCURVE",
"312 529 CURVE SMOOTH",
"250 529 OFFCURVE",
"208 508 OFFCURVE",
"169 478 CURVE",
"169 730 LINE SMOOTH",
"169 744 OFFCURVE",
"157 752 OFFCURVE",
"129 752 CURVE SMOOTH",
"125 752 LINE SMOOTH",
"97 752 OFFCURVE",
"85 744 OFFCURVE",
"85 730 CURVE SMOOTH",
"85 20 LINE SMOOTH",
"85 6 OFFCURVE",
"94 -2 OFFCURVE",
"115 -2 CURVE SMOOTH",
"119 -2 LINE SMOOTH",
"133 -2 OFFCURVE",
"142 1 OFFCURVE",
"146 10 CURVE",
"154 30 OFFCURVE",
"159 49 OFFCURVE",
"162 69 CURVE",
"211 18 OFFCURVE",
"264 -6 OFFCURVE",
"321 -6 CURVE SMOOTH"
);
},
{
closed = 1;
nodes = (
"260 67 OFFCURVE",
"210 91 OFFCURVE",
"169 136 CURVE",
"169 410 LINE",
"205 440 OFFCURVE",
"250 455 OFFCURVE",
"293 455 CURVE SMOOTH",
"382 455 OFFCURVE",
"427 388 OFFCURVE",
"427 269 CURVE SMOOTH",
"427 140 OFFCURVE",
"383 67 OFFCURVE",
"304 67 CURVE SMOOTH"
);
}
);
width = 569;
},
{
layerId = "2C16E7AF-C861-4509-900A-75D3055B0FF7";
paths = (
{
closed = 1;
nodes = (
"448 -8 OFFCURVE",
"527 88 OFFCURVE",
"527 262 CURVE SMOOTH",
"527 425 OFFCURVE",
"451 531 OFFCURVE",
"316 531 CURVE SMOOTH",
"269 531 OFFCURVE",
"235 515 OFFCURVE",
"214 500 CURVE",
"214 722 LINE SMOOTH",
"214 743 OFFCURVE",
"196 754 OFFCURVE",
"154 754 CURVE SMOOTH",
"126 754 LINE SMOOTH",
"84 754 OFFCURVE",
"66 743 OFFCURVE",
"66 722 CURVE SMOOTH",
"66 30 LINE SMOOTH",
"66 9 OFFCURVE",
"84 -2 OFFCURVE",
"126 -2 CURVE SMOOTH",
"138 -2 LINE SMOOTH",
"170 -2 OFFCURVE",
"190 2 OFFCURVE",
"196 24 CURVE SMOOTH",
"200 38 OFFCURVE",
"203 53 OFFCURVE",
"206 67 CURVE",
"229 24 OFFCURVE",
"278 -8 OFFCURVE",
"340 -8 CURVE SMOOTH"
);
},
{
closed = 1;
nodes = (
"258 113 OFFCURVE",
"232 141 OFFCURVE",
"214 172 CURVE",
"214 395 LINE",
"230 404 OFFCURVE",
"253 414 OFFCURVE",
"284 414 CURVE SMOOTH",
"347 414 OFFCURVE",
"377 362 OFFCURVE",
"377 262 CURVE SMOOTH",
"377 165 OFFCURVE",
"351 113 OFFCURVE",
"296 113 CURVE SMOOTH"
);
}
);
width = 569;
}
);
leftKerningGroup = h;
rightKerningGroup = p;
unicode = 0062;
userData = {
RMXScaler = {
source = b;
};
};
},
{
color = 4;
glyphname = c;
layers = (
{
anchors = (
{
name = bottom;
position = "{286, 0}";
},
{
name = top;
position = "{277, 523}";
}
);
layerId = UUID0;
paths = (
{
closed = 1;
nodes = (
"385 -6 OFFCURVE",
"455 22 OFFCURVE",
"455 45 CURVE SMOOTH",
"455 59 OFFCURVE",
"435 96 OFFCURVE",
"421 96 CURVE SMOOTH",
"420 96 OFFCURVE",
"416 94 OFFCURVE",
"410 92 CURVE",
"392 83 OFFCURVE",
"353 66 OFFCURVE",
"297 66 CURVE SMOOTH",
"184 66 OFFCURVE",
"142 126 OFFCURVE",
"142 266 CURVE SMOOTH",
"142 405 OFFCURVE",
"199 457 OFFCURVE",
"287 457 CURVE SMOOTH",
"341 457 OFFCURVE",
"378 441 OFFCURVE",
"396 433 CURVE SMOOTH",
"402 430.5 OFFCURVE",
"405 429 OFFCURVE",
"407 429 CURVE SMOOTH",
"420 429 OFFCURVE",
"439 467 OFFCURVE",
"439 483 CURVE SMOOTH",
"439 507 OFFCURVE",
"366 529 OFFCURVE",
"289 529 CURVE SMOOTH",
"174 529 OFFCURVE",
"52 473 OFFCURVE",
"52 264 CURVE SMOOTH",
"52 71 OFFCURVE",
"136 -6 OFFCURVE",
"298 -6 CURVE SMOOTH"
);
}
);
width = 485;
},
{
anchors = (
{
name = bottom;
position = "{292, 0}";
},
{
name = top;
position = "{275, 523}";
}
);
layerId = "2C16E7AF-C861-4509-900A-75D3055B0FF7";
paths = (
{
closed = 1;
nodes = (
"327 -8 OFFCURVE",
"469 6 OFFCURVE",
"469 62 CURVE SMOOTH",
"469 82 OFFCURVE",
"439 138 OFFCURVE",
"417 138 CURVE SMOOTH",
"413 138 OFFCURVE",
"407 135 OFFCURVE",
"399 132 CURVE SMOOTH",
"379.5 124.5 OFFCURVE",
"348 109 OFFCURVE",
"301 109 CURVE SMOOTH",
"225 109 OFFCURVE",
"194 159 OFFCURVE",
"194 262 CURVE SMOOTH",
"194 364 OFFCURVE",
"227 414 OFFCURVE",
"307 414 CURVE SMOOTH",
"349 414 OFFCURVE",
"376 401 OFFCURVE",
"394 392 CURVE SMOOTH",
"402 388 OFFCURVE",
"408 385 OFFCURVE",
"412 385 CURVE SMOOTH",
"429 385 OFFCURVE",
"465 443 OFFCURVE",
"465 462 CURVE SMOOTH",
"465 508 OFFCURVE",
"370 531 OFFCURVE",
"299 531 CURVE SMOOTH",
"120 531 OFFCURVE",
"42 436 OFFCURVE",
"42 258 CURVE SMOOTH",
"42 79 OFFCURVE",
"123 -8 OFFCURVE",
"294 -8 CURVE SMOOTH"
);
}
);
width = 485;
}
);
leftKerningGroup = c;
rightKerningGroup = c;
unicode = 0063;
userData = {
RMXScaler = {
source = c;
};
};
},
{
color = 4;
glyphname = d;
layers = (
{
anchors = (
{
name = bottom;
position = "{281, 0}";
},
{
name = caron;
position = "{481, 700}";
},
{
name = center;
position = "{421, 630}";
}
);
hints = (
{
horizontal = 1;
origin = "{0, 29}";
target = "{1, 12}";
},
{
horizontal = 1;
origin = "{0, 23}";
target = "{1, 5}";
},
{
horizontal = 1;
origin = "{0, 16}";
target = down;
type = TopGhost;
},
{
horizontal = 1;
origin = "{0, 5}";
target = up;
type = BottomGhost;
},
{
origin = "{0, 26}";
target = "{1, 2}";
},
{
origin = "{1, 9}";
target = "{0, 11}";
},
{
horizontal = 1;
origin = "{1, 12}";
target = "{1, 5}";
other1 = "{1, 9}";
type = Interpolate;
}
);
layerId = UUID0;
paths = (
{
closed = 1;
nodes = (
"303 -6 OFFCURVE",
"356 18 OFFCURVE",
"405 69 CURVE",
"411 41 OFFCURVE",
"416 -1 OFFCURVE",
"440 -1 CURVE SMOOTH",
"453 -1 OFFCURVE",
"494 3 OFFCURVE",
"494 22 CURVE SMOOTH",
"494 27 OFFCURVE",
"482 66 OFFCURVE",
"482 148 CURVE SMOOTH",
"482 730 LINE SMOOTH",
"482 744 OFFCURVE",
"470 752 OFFCURVE",
"442 752 CURVE SMOOTH",
"438 752 LINE SMOOTH",
"410 752 OFFCURVE",
"398 744 OFFCURVE",
"398 730 CURVE SMOOTH",
"398 478 LINE",
"359 508 OFFCURVE",
"317 529 OFFCURVE",
"255 529 CURVE SMOOTH",
"136 529 OFFCURVE",
"52 435 OFFCURVE",
"52 261 CURVE SMOOTH",
"52 106 OFFCURVE",
"126 -6 OFFCURVE",
"246 -6 CURVE SMOOTH"
);
},
{
closed = 1;
nodes = (
"184 67 OFFCURVE",
"140 140 OFFCURVE",
"140 269 CURVE SMOOTH",
"140 388 OFFCURVE",
"185 455 OFFCURVE",
"275 455 CURVE SMOOTH",
"320 455 OFFCURVE",
"362 440 OFFCURVE",
"398 410 CURVE",
"398 136 LINE",
"357 91 OFFCURVE",
"307 67 OFFCURVE",
"263 67 CURVE SMOOTH"
);
}
);
width = 565;
},
{
anchors = (
{
name = bottom;
position = "{291, 0}";
},
{
name = caron;
position = "{498, 700}";
},
{
name = center;
position = "{417, 630}";
}
);
hints = (
{
horizontal = 1;
origin = "{0, 5}";
target = up;
type = BottomGhost;
},
{
horizontal = 1;
origin = "{0, 23}";
target = "{1, 5}";
},
{
horizontal = 1;
origin = "{0, 16}";
target = down;
type = TopGhost;
},
{
horizontal = 1;
origin = "{0, 29}";
target = "{1, 12}";
},
{
origin = "{0, 26}";
target = "{1, 2}";
},
{
origin = "{1, 9}";
target = "{0, 11}";
},
{
horizontal = 1;
origin = "{1, 5}";
target = "{1, 12}";
other1 = "{1, 9}";
type = Interpolate;
}
);
layerId = "2C16E7AF-C861-4509-900A-75D3055B0FF7";
paths = (
{
closed = 1;
nodes = (
"291 -8 OFFCURVE",
"340 24 OFFCURVE",
"363 67 CURVE",
"369 41 OFFCURVE",
"371 -1 OFFCURVE",
"403 -1 CURVE SMOOTH",
"428 -1 OFFCURVE",
"515 7 OFFCURVE",
"515 31 CURVE SMOOTH",
"515 52 OFFCURVE",
"503 73 OFFCURVE",
"503 176 CURVE SMOOTH",
"503 722 LINE SMOOTH",
"503 743 OFFCURVE",
"485 754 OFFCURVE",
"443 754 CURVE SMOOTH",
"415 754 LINE SMOOTH",
"373 754 OFFCURVE",
"355 743 OFFCURVE",
"355 722 CURVE SMOOTH",
"355 500 LINE",
"334 515 OFFCURVE",
"300 531 OFFCURVE",
"253 531 CURVE SMOOTH",
"118 531 OFFCURVE",
"42 425 OFFCURVE",
"42 262 CURVE SMOOTH",
"42 88 OFFCURVE",
"121 -8 OFFCURVE",
"229 -8 CURVE SMOOTH"
);
},
{
closed = 1;
nodes = (
"218 113 OFFCURVE",
"192 165 OFFCURVE",
"192 262 CURVE SMOOTH",
"192 362 OFFCURVE",
"222 414 OFFCURVE",
"285 414 CURVE SMOOTH",
"316 414 OFFCURVE",
"339 404 OFFCURVE",
"355 395 CURVE",
"355 172 LINE",
"337 141 OFFCURVE",
"311 113 OFFCURVE",
"273 113 CURVE SMOOTH"
);
}
);
width = 565;
}
);
leftKerningGroup = d;
rightKerningGroup = d;
unicode = 0064;
userData = {
RMXScaler = {
source = d;
};
};
},
{
color = 11;
glyphname = eth;
layers = (
{
layerId = UUID0;
paths = (
{
closed = 1;
nodes = (
"436 -6 OFFCURVE",
"514 86 OFFCURVE",
"514 259 CURVE SMOOTH",
"514 389 OFFCURVE",
"467 513 OFFCURVE",
"400 618 CURVE",
"460 626 LINE SMOOTH",
"470 627 OFFCURVE",
"475 632 OFFCURVE",
"475 639 CURVE SMOOTH",
"475 644 OFFCURVE",
"469 671 OFFCURVE",
"450 671 CURVE SMOOTH",
"449 671 OFFCURVE",
"448 671 OFFCURVE",
"372 660 CURVE",
"359 678 OFFCURVE",
"349 690 OFFCURVE",
"339 702 CURVE SMOOTH",
"333 709 OFFCURVE",
"325 714 OFFCURVE",
"313 714 CURVE SMOOTH",
"302 714 OFFCURVE",
"293 713 OFFCURVE",
"286 712 CURVE SMOOTH",
"275 710.5 OFFCURVE",
"270 705 OFFCURVE",
"270 698 CURVE SMOOTH",
"270 688 OFFCURVE",
"281 672 OFFCURVE",
"296 650 CURVE",
"224 640 LINE SMOOTH",
"214 638.5 OFFCURVE",
"209 634 OFFCURVE",
"209 627 CURVE SMOOTH",
"209 613 OFFCURVE",
"221 595 OFFCURVE",
"235 595 CURVE SMOOTH",
"237 595 OFFCURVE",
"239 596 OFFCURVE",
"321 607 CURVE",
"339 575 OFFCURVE",
"359 536 OFFCURVE",
"377 494 CURVE",
"387 509 LINE",
"358 522 OFFCURVE",
"324 529 OFFCURVE",
"287 529 CURVE SMOOTH",
"138 529 OFFCURVE",
"55 432 OFFCURVE",
"55 259 CURVE SMOOTH",
"55 87 OFFCURVE",
"136 -6 OFFCURVE",
"287 -6 CURVE SMOOTH"
);
},
{
closed = 1;
nodes = (
"186 66 OFFCURVE",
"141 128 OFFCURVE",
"141 261 CURVE SMOOTH",
"141 395 OFFCURVE",
"187 457 OFFCURVE",
"284 457 CURVE SMOOTH",
"382 457 OFFCURVE",
"427 394 OFFCURVE",
"427 261 CURVE SMOOTH",
"427 128 OFFCURVE",
"382 66 OFFCURVE",
"284 66 CURVE SMOOTH"
);
}
);
width = 569;
},
{
layerId = "2C16E7AF-C861-4509-900A-75D3055B0FF7";
paths = (
{
closed = 1;
nodes = (
"444 -8 OFFCURVE",
"527 88 OFFCURVE",
"527 262 CURVE SMOOTH",
"527 397 OFFCURVE",
"477 529 OFFCURVE",
"427 606 CURVE",
"473 612 LINE SMOOTH",
"487 614 OFFCURVE",
"494 619 OFFCURVE",
"494 628 CURVE SMOOTH",
"494 648 OFFCURVE",
"474 670 OFFCURVE",
"457 670 CURVE SMOOTH",
"456 670 OFFCURVE",
"455 670 OFFCURVE",
"389 661 CURVE",
"375 679 OFFCURVE",
"363 694 OFFCURVE",
"349 704 CURVE SMOOTH",
"338.5 711.5 OFFCURVE",
"326 715 OFFCURVE",
"311 715 CURVE",
"290 713 OFFCURVE",
"270 710 OFFCURVE",
"249 708 CURVE SMOOTH",
"236 706.5 OFFCURVE",
"230 702 OFFCURVE",
"230 696 CURVE SMOOTH",
"230 688 OFFCURVE",
"255 662 OFFCURVE",
"268 645 CURVE",
"225 639 LINE SMOOTH",
"210 637 OFFCURVE",
"204 632 OFFCURVE",
"204 623 CURVE SMOOTH",
"204 602 OFFCURVE",
"223 581 OFFCURVE",
"243 581 CURVE SMOOTH",
"246 581 OFFCURVE",
"249 581 OFFCURVE",
"304 589 CURVE",
"321 559 OFFCURVE",
"338 528 OFFCURVE",
"352 486 CURVE",
"369 520 LINE",
"344 526 OFFCURVE",
"316 531 OFFCURVE",
"285 531 CURVE SMOOTH",
"126 531 OFFCURVE",
"42 436 OFFCURVE",
"42 262 CURVE SMOOTH",
"42 88 OFFCURVE",
"126 -8 OFFCURVE",
"285 -8 CURVE SMOOTH"
);
},
{
closed = 1;
nodes = (
"221 109 OFFCURVE",
"192 162 OFFCURVE",
"192 262 CURVE SMOOTH",
"192 362 OFFCURVE",
"221 414 OFFCURVE",
"285 414 CURVE SMOOTH",
"349 414 OFFCURVE",
"377 362 OFFCURVE",
"377 262 CURVE SMOOTH",
"377 162 OFFCURVE",
"349 109 OFFCURVE",
"285 109 CURVE SMOOTH"
);
}
);
width = 569;
}
);
unicode = 00F0;
userData = {
RMXScaler = {
source = eth;
};
};
},
{
color = 4;
glyphname = e;
layers = (
{
anchors = (
{
name = bottom;
position = "{270, 0}";
},
{
name = ogonek;
position = "{433, 10}";
},
{
name = top;
position = "{270, 523}";
}
);
layerId = UUID0;
paths = (
{
closed = 1;
nodes = (
"401 -6 OFFCURVE",
"480 34 OFFCURVE",
"480 58 CURVE SMOOTH",
"480 69 OFFCURVE",
"459 108 OFFCURVE",
"445 108 CURVE SMOOTH",
"435 108 OFFCURVE",
"386 66 OFFCURVE",
"299 66 CURVE SMOOTH",
"200 66 OFFCURVE",
"153 116 OFFCURVE",
"145 227 CURVE",
"461 227 LINE SMOOTH",
"473 227 OFFCURVE",
"494 256 OFFCURVE",
"494 268 CURVE SMOOTH",
"494 438 OFFCURVE",
"425 529 OFFCURVE",
"288 529 CURVE SMOOTH",
"135 529 OFFCURVE",
"55 435 OFFCURVE",
"55 258 CURVE SMOOTH",
"55 79 OFFCURVE",
"134 -6 OFFCURVE",
"300 -6 CURVE SMOOTH"
);
},
{
closed = 1;
nodes = (
"152 404 OFFCURVE",
"198 457 OFFCURVE",
"285 457 CURVE SMOOTH",
"365 457 OFFCURVE",
"405 404 OFFCURVE",
"405 299 CURVE",
"145 299 LINE"
);
}
);
width = 539;
},
{
anchors = (
{
name = bottom;
position = "{270, 0}";
},
{
name = ogonek;
position = "{437, 14}";
},
{
name = top;
position = "{270, 523}";
}
);
layerId = "2C16E7AF-C861-4509-900A-75D3055B0FF7";
paths = (
{
closed = 1;
nodes = (
"359 -8 OFFCURVE",
"483 14 OFFCURVE",
"483 64 CURVE SMOOTH",
"483 84 OFFCURVE",
"453 140 OFFCURVE",
"431 140 CURVE SMOOTH",
"417 140 OFFCURVE",
"373 109 OFFCURVE",
"310 109 CURVE SMOOTH",
"245 109 OFFCURVE",
"202 134 OFFCURVE",
"195 214 CURVE",
"450 214 LINE SMOOTH",
"463 214 OFFCURVE",
"501 256 OFFCURVE",
"501 273 CURVE SMOOTH",
"501 412 OFFCURVE",
"442 531 OFFCURVE",
"285 531 CURVE SMOOTH",
"142 531 OFFCURVE",
"42 455 OFFCURVE",
"42 258 CURVE SMOOTH",
"42 97 OFFCURVE",
"122 -8 OFFCURVE",
"303 -8 CURVE SMOOTH"
);
},
{
closed = 1;
nodes = (
"207 390 OFFCURVE",
"243 414 OFFCURVE",
"285 414 CURVE SMOOTH",
"335 414 OFFCURVE",
"357 371 OFFCURVE",
"357 313 CURVE",
"195 313 LINE"
);
}
);
width = 539;
}
);
leftKerningGroup = e;
rightKerningGroup = e;
unicode = 0065;
userData = {
RMXScaler = {
source = e;
};
};
},
{
color = 4;
glyphname = f;
layers = (
{
anchors = (
{
name = bottom;
position = "{163, 0}";
},
{
name = top;
position = "{163, 700}";
}
);
layerId = UUID0;
paths = (
{
closed = 1;
nodes = (
"152 -2 LINE SMOOTH",
"180 -2 OFFCURVE",
"192 6 OFFCURVE",
"192 20 CURVE SMOOTH",
"192 451 LINE",
"279 451 LINE SMOOTH",
"293 451 OFFCURVE",
"299 460 OFFCURVE",
"299 481 CURVE SMOOTH",
"299 493 LINE SMOOTH",
"299 514 OFFCURVE",
"293 523 OFFCURVE",
"279 523 CURVE SMOOTH",
"192 523 LINE",
"192 610 LINE SMOOTH",
"192 676 OFFCURVE",
"217 684 OFFCURVE",
"246 684 CURVE SMOOTH",
"275 684 OFFCURVE",
"280 679 OFFCURVE",
"289 679 CURVE SMOOTH",
"303 679 OFFCURVE",
"310 718 OFFCURVE",
"310 726 CURVE SMOOTH",
"310 753 OFFCURVE",
"264 756 OFFCURVE",
"237 756 CURVE SMOOTH",
"187 756 OFFCURVE",
"108 737 OFFCURVE",
"108 618 CURVE SMOOTH",
"108 523 LINE",
"68 523 LINE SMOOTH",
"54 523 OFFCURVE",
"48 514 OFFCURVE",
"48 493 CURVE SMOOTH",
"48 481 LINE SMOOTH",
"48 460 OFFCURVE",
"54 451 OFFCURVE",
"68 451 CURVE SMOOTH",
"108 451 LINE",
"108 20 LINE SMOOTH",
"108 6 OFFCURVE",
"120 -2 OFFCURVE",
"148 -2 CURVE SMOOTH"
);
}
);
width = 325;
},
{
anchors = (
{
name = bottom;
position = "{163, 0}";
},
{
name = top;
position = "{163, 700}";
}
);
layerId = "2C16E7AF-C861-4509-900A-75D3055B0FF7";
paths = (
{
closed = 1;
nodes = (
"167 -2 LINE SMOOTH",
"209 -2 OFFCURVE",
"227 9 OFFCURVE",
"227 30 CURVE SMOOTH",
"227 406 LINE",
"277 406 LINE SMOOTH",
"298 406 OFFCURVE",
"307 421 OFFCURVE",
"307 456 CURVE SMOOTH",
"307 473 LINE SMOOTH",
"307 508 OFFCURVE",
"298 523 OFFCURVE",
"277 523 CURVE SMOOTH",
"227 523 LINE",
"227 600 LINE SMOOTH",
"227 630 OFFCURVE",
"237 643 OFFCURVE",
"263 643 CURVE SMOOTH",
"273 643 OFFCURVE",
"287 639 OFFCURVE",
"294 639 CURVE SMOOTH",
"314 639 OFFCURVE",
"325 703 OFFCURVE",
"325 711 CURVE SMOOTH",
"325 757 OFFCURVE",
"257 760 OFFCURVE",
"225 760 CURVE SMOOTH",
"131 760 OFFCURVE",
"79 709 OFFCURVE",
"79 598 CURVE SMOOTH",
"79 523 LINE",
"61 523 LINE SMOOTH",
"40 523 OFFCURVE",
"31 508 OFFCURVE",
"31 473 CURVE SMOOTH",
"31 456 LINE SMOOTH",
"31 421 OFFCURVE",
"40 406 OFFCURVE",
"61 406 CURVE SMOOTH",
"79 406 LINE",
"79 30 LINE SMOOTH",
"79 9 OFFCURVE",
"97 -2 OFFCURVE",
"139 -2 CURVE SMOOTH"
);
}
);
width = 325;
}
);
unicode = 0066;
},
{
color = 4;
glyphname = g;
layers = (
{
anchors = (
{
name = top;
position = "{273, 523}";
}
);
layerId = UUID0;
paths = (
{
closed = 1;
nodes = (
"403 -212 OFFCURVE",
"481 -157 OFFCURVE",
"481 -61 CURVE SMOOTH",
"481 31 OFFCURVE",
"406 49 OFFCURVE",
"330 59 CURVE SMOOTH",
"250 69.5 OFFCURVE",
"169 69 OFFCURVE",
"169 133 CURVE SMOOTH",
"169 183 OFFCURVE",
"204 202 OFFCURVE",
"264 202 CURVE SMOOTH",
"393 202 OFFCURVE",
"461 274 OFFCURVE",
"461 366 CURVE SMOOTH",
"461 397 OFFCURVE",
"452 428 OFFCURVE",
"435 452 CURVE",
"436 454 LINE",
"455 452 OFFCURVE",
"474 451 OFFCURVE",
"506 451 CURVE SMOOTH",
"520 451 OFFCURVE",
"526 460 OFFCURVE",
"526 481 CURVE SMOOTH",
"526 493 LINE SMOOTH",
"526 514 OFFCURVE",
"520 523 OFFCURVE",
"506 523 CURVE SMOOTH",
"324 523 LINE",
"306 527 OFFCURVE",
"286 529 OFFCURVE",
"265 529 CURVE SMOOTH",
"136 529 OFFCURVE",
"68 457 OFFCURVE",
"68 366 CURVE SMOOTH",
"68 306 OFFCURVE",
"97 253 OFFCURVE",
"154 225 CURVE",
"118 200 OFFCURVE",
"98 166 OFFCURVE",
"98 121 CURVE SMOOTH",
"98 83 OFFCURVE",
"114 58 OFFCURVE",
"138 39 CURVE",
"137 37 LINE",
"86 16 OFFCURVE",
"46 -27 OFFCURVE",
"46 -88 CURVE SMOOTH",
"46 -178 OFFCURVE",
"133 -212 OFFCURVE",
"253 -212 CURVE SMOOTH"
);
},
{
closed = 1;
nodes = (
"200 -144 OFFCURVE",
"121 -133 OFFCURVE",
"121 -72 CURVE SMOOTH",
"121 -30 OFFCURVE",
"151 -6 OFFCURVE",
"187 9 CURVE",
"262 -14 OFFCURVE",
"401 5 OFFCURVE",
"401 -70 CURVE SMOOTH",
"401 -120 OFFCURVE",
"357 -144 OFFCURVE",
"264 -144 CURVE SMOOTH"
);
},
{
closed = 1;
nodes = (
"198 269 OFFCURVE",
"145 292 OFFCURVE",
"145 365 CURVE SMOOTH",
"145 439 OFFCURVE",
"198 462 OFFCURVE",
"264 462 CURVE SMOOTH",
"330 462 OFFCURVE",
"384 439 OFFCURVE",
"384 365 CURVE SMOOTH",
"384 292 OFFCURVE",
"330 269 OFFCURVE",
"264 269 CURVE SMOOTH"
);
}
);
width = 546;
},
{
anchors = (
{
name = top;
position = "{273, 523}";
}
);
layerId = "2C16E7AF-C861-4509-900A-75D3055B0FF7";
paths = (
{
closed = 1;
nodes = (
"417 -212 OFFCURVE",
"520 -145 OFFCURVE",
"520 -42 CURVE SMOOTH",
"520 58 OFFCURVE",
"442 88 OFFCURVE",
"365 103 CURVE SMOOTH",
"290 117 OFFCURVE",
"217 116 OFFCURVE",
"217 149 CURVE SMOOTH",
"217 167 OFFCURVE",
"237 176 OFFCURVE",
"278 176 CURVE SMOOTH",
"392 176 OFFCURVE",
"482 228 OFFCURVE",
"482 353 CURVE SMOOTH",
"482 372 OFFCURVE",
"475 397 OFFCURVE",
"466 409 CURVE",
"468 413 LINE",
"477 411 OFFCURVE",
"504 409 OFFCURVE",
"511 409 CURVE SMOOTH",
"527 409 OFFCURVE",
"535 423 OFFCURVE",
"535 456 CURVE SMOOTH",
"535 473 LINE SMOOTH",
"535 508 OFFCURVE",
"526 523 OFFCURVE",
"505 523 CURVE SMOOTH",
"344 523 LINE",
"320 528 OFFCURVE",
"294 531 OFFCURVE",
"267 531 CURVE SMOOTH",
"148 531 OFFCURVE",
"52 482 OFFCURVE",
"52 353 CURVE SMOOTH",
"52 279 OFFCURVE",
"84 231 OFFCURVE",
"133 204 CURVE",
"95 184 OFFCURVE",
"73 155 OFFCURVE",
"73 121 CURVE SMOOTH",
"73 88 OFFCURVE",
"88 60 OFFCURVE",
"116 46 CURVE",
"115 42 LINE",
"56 19 OFFCURVE",
"24 -22 OFFCURVE",
"24 -74 CURVE SMOOTH",
"24 -165 OFFCURVE",
"101 -212 OFFCURVE",
"262 -212 CURVE SMOOTH"
);
},
{
closed = 1;
nodes = (
"199 -95 OFFCURVE",
"168 -77 OFFCURVE",
"168 -50 CURVE SMOOTH",
"168 -30 OFFCURVE",
"187 -8 OFFCURVE",
"222 4 CURVE",
"336 -4 OFFCURVE",
"376 -15 OFFCURVE",
"376 -46 CURVE SMOOTH",
"376 -76 OFFCURVE",
"342 -95 OFFCURVE",
"273 -95 CURVE SMOOTH"
);
},
{
closed = 1;
nodes = (
"226 283 OFFCURVE",
"192 303 OFFCURVE",
"192 353 CURVE SMOOTH",
"192 403 OFFCURVE",
"226 424 OFFCURVE",
"267 424 CURVE SMOOTH",
"308 424 OFFCURVE",
"342 403 OFFCURVE",
"342 353 CURVE SMOOTH",
"342 303 OFFCURVE",
"308 283 OFFCURVE",
"267 283 CURVE SMOOTH"
);
}
);
width = 546;
}
);
leftKerningGroup = g;
rightKerningGroup = g;
unicode = 0067;
userData = {
RMXScaler = {
source = g;
};
};
},
{
color = 4;
glyphname = h;
layers = (
{
anchors = (
{
name = bottom;
position = "{282, 0}";
},
{
name = center;
position = "{172, 630}";
},
{
name = top;
position = "{134, 730}";
}
);
layerId = UUID0;
paths = (
{
closed = 1;
nodes = (
"136 -2 LINE SMOOTH",
"164 -2 OFFCURVE",
"176 6 OFFCURVE",
"176 20 CURVE SMOOTH",
"176 386 LINE",
"176 386 OFFCURVE",
"227 456 OFFCURVE",
"302 456 CURVE SMOOTH",
"370 456 OFFCURVE",
"404 418 OFFCURVE",
"404 359 CURVE SMOOTH",
"404 20 LINE SMOOTH",
"404 6 OFFCURVE",
"416 -2 OFFCURVE",
"444 -2 CURVE SMOOTH",
"448 -2 LINE SMOOTH",
"476 -2 OFFCURVE",
"488 6 OFFCURVE",
"488 20 CURVE SMOOTH",
"488 367 LINE SMOOTH",
"488 503 OFFCURVE",
"393 529 OFFCURVE",
"329 529 CURVE SMOOTH",
"265 529 OFFCURVE",
"211 495 OFFCURVE",
"176 460 CURVE",
"176 730 LINE SMOOTH",
"176 744 OFFCURVE",
"164 752 OFFCURVE",
"136 752 CURVE SMOOTH",
"132 752 LINE SMOOTH",
"104 752 OFFCURVE",
"92 744 OFFCURVE",
"92 730 CURVE SMOOTH",
"92 20 LINE SMOOTH",
"92 6 OFFCURVE",
"104 -2 OFFCURVE",
"132 -2 CURVE SMOOTH"
);
}
);
width = 565;
},
{
anchors = (
{
name = bottom;
position = "{281, 0}";
},
{
name = center;
position = "{167, 630}";
},
{
name = top;
position = "{141, 732}";
}
);
layerId = "2C16E7AF-C861-4509-900A-75D3055B0FF7";
paths = (
{
closed = 1;
nodes = (
"154 -2 LINE SMOOTH",
"196 -2 OFFCURVE",
"214 9 OFFCURVE",
"214 30 CURVE SMOOTH",
"214 351 LINE",
"226 374 OFFCURVE",
"253 409 OFFCURVE",
"294 409 CURVE SMOOTH",
"338 409 OFFCURVE",
"358 386 OFFCURVE",
"358 347 CURVE SMOOTH",
"358 30 LINE SMOOTH",
"358 9 OFFCURVE",
"376 -2 OFFCURVE",
"418 -2 CURVE SMOOTH",
"446 -2 LINE SMOOTH",
"488 -2 OFFCURVE",
"506 9 OFFCURVE",
"506 30 CURVE SMOOTH",
"506 369 LINE SMOOTH",
"506 480 OFFCURVE",
"455 531 OFFCURVE",
"355 531 CURVE SMOOTH",
"295 531 OFFCURVE",
"245 500 OFFCURVE",
"214 463 CURVE",
"214 722 LINE SMOOTH",
"214 743 OFFCURVE",
"196 754 OFFCURVE",
"154 754 CURVE SMOOTH",
"126 754 LINE SMOOTH",
"84 754 OFFCURVE",
"66 743 OFFCURVE",
"66 722 CURVE SMOOTH",
"66 30 LINE SMOOTH",
"66 9 OFFCURVE",
"84 -2 OFFCURVE",
"126 -2 CURVE SMOOTH"
);
}
);
width = 565;
}
);
leftKerningGroup = h;
rightKerningGroup = n;
unicode = 0068;
userData = {
RMXScaler = {
source = h;
};
};
},
{
color = 4;
glyphname = i;
layers = (
{
anchors = (
{
name = bottom;
position = "{131, 0}";
}
);
background = {
paths = (
{
closed = 1;
nodes = (
"149 649 LINE SMOOTH",
"177 649 OFFCURVE",
"189 657 OFFCURVE",
"189 671 CURVE SMOOTH",
"189 730 LINE SMOOTH",
"189 744 OFFCURVE",
"177 752 OFFCURVE",
"149 752 CURVE SMOOTH",
"137 752 LINE SMOOTH",
"109 752 OFFCURVE",
"97 744 OFFCURVE",
"97 730 CURVE SMOOTH",
"97 671 LINE SMOOTH",
"97 657 OFFCURVE",
"109 649 OFFCURVE",
"137 649 CURVE"
);
}
);
};
components = (
{
name = idotless;
},
{
alignment = 1;
name = dotaccentcomb;
transform = "{1.1, 0, 0, 1.1, 133, -52}";
}
);
layerId = UUID0;
width = 265;
},
{
anchors = (
{
name = bottom;
position = "{131, 0}";
}
);
background = {
paths = (
{
closed = 1;
nodes = (
"158 609 LINE SMOOTH",
"200 609 OFFCURVE",
"218 620 OFFCURVE",
"218 641 CURVE SMOOTH",
"218 722 LINE SMOOTH",
"218 743 OFFCURVE",
"200 754 OFFCURVE",
"158 754 CURVE SMOOTH",
"130 754 LINE SMOOTH",
"88 754 OFFCURVE",
"70 743 OFFCURVE",
"70 722 CURVE SMOOTH",
"70 641 LINE SMOOTH",
"70 620 OFFCURVE",
"88 609 OFFCURVE",
"130 609 CURVE"
);
}
);
};
components = (
{
name = idotless;
},
{
alignment = 1;
name = dotaccentcomb;
transform = "{1.23, 0, 0, 1.18, 132, -94}";
}
);
layerId = "2C16E7AF-C861-4509-900A-75D3055B0FF7";
width = 265;
}
);
leftKerningGroup = i;
rightKerningGroup = i;
unicode = 0069;
userData = {
RMXScaler = {
source = i;
};
};
},
{
color = 11;
glyphname = idotless;
layers = (
{
anchors = (
{
name = bottom;
position = "{131, 0}";
},
{
name = ogonek;
position = "{158, 0}";
},
{
name = top;
position = "{133, 523}";
}
);
layerId = UUID0;
paths = (
{
closed = 1;
nodes = (
"135 -2 LINE SMOOTH",
"163 -2 OFFCURVE",
"175 6 OFFCURVE",
"175 20 CURVE SMOOTH",
"175 503 LINE SMOOTH",
"175 517 OFFCURVE",
"163 525 OFFCURVE",
"135 525 CURVE SMOOTH",
"131 525 LINE SMOOTH",
"103 525 OFFCURVE",
"91 517 OFFCURVE",
"91 503 CURVE SMOOTH",
"91 20 LINE SMOOTH",
"91 6 OFFCURVE",
"103 -2 OFFCURVE",
"131 -2 CURVE SMOOTH"
);
}
);
width = 265;
},
{
anchors = (
{
name = bottom;
position = "{131, 0}";
},
{
name = ogonek;
position = "{169, 0}";
},
{
name = top;
position = "{133, 523}";
}
);
layerId = "2C16E7AF-C861-4509-900A-75D3055B0FF7";
paths = (
{
closed = 1;
nodes = (
"147 -2 LINE SMOOTH",
"189 -2 OFFCURVE",
"207 9 OFFCURVE",
"207 30 CURVE SMOOTH",
"207 493 LINE SMOOTH",
"207 514 OFFCURVE",
"189 525 OFFCURVE",
"147 525 CURVE SMOOTH",
"119 525 LINE SMOOTH",
"77 525 OFFCURVE",
"59 514 OFFCURVE",
"59 493 CURVE SMOOTH",
"59 30 LINE SMOOTH",
"59 9 OFFCURVE",
"77 -2 OFFCURVE",
"119 -2 CURVE SMOOTH"
);
}
);
width = 265;
}
);
leftKerningGroup = i;
rightKerningGroup = i;
unicode = 0131;
userData = {
RMXScaler = {
source = idotless;
};
};
},
{
color = 11;
glyphname = itilde;
layers = (
{
components = (
{
alignment = 1;
name = idotless;
}
);
layerId = UUID0;
paths = (
{
closed = 1;
nodes = (
"12.604 591 OFFCURVE",
"15.112 590 OFFCURVE",
"17.62 590 CURVE SMOOTH",
"22.636 590 OFFCURVE",
"25.98 594 OFFCURVE",
"30.996 604 CURVE SMOOTH",
"41.864 626 OFFCURVE",
"50.224 634 OFFCURVE",
"62.764 634 CURVE SMOOTH",
"98.712 634 OFFCURVE",
"150.544 591 OFFCURVE",
"197.36 591 CURVE SMOOTH",
"227.456 591 OFFCURVE",
"250.028 609 OFFCURVE",
"266.748 659 CURVE SMOOTH",
"269.256 665 OFFCURVE",
"270.092 669 OFFCURVE",
"270.092 673 CURVE SMOOTH",
"270.092 679 OFFCURVE",
"267.584 682 OFFCURVE",
"260.896 685 CURVE SMOOTH",
"255.044 688 LINE SMOOTH",
"252.536 690 OFFCURVE",
"250.028 691 OFFCURVE",
"247.52 691 CURVE SMOOTH",
"242.504 691 OFFCURVE",
"237.488 687 OFFCURVE",
"232.472 676 CURVE SMOOTH",
"221.604 654 OFFCURVE",
"212.408 647 OFFCURVE",
"199.032 647 CURVE SMOOTH",
"163.084 647 OFFCURVE",
"111.252 690 OFFCURVE",
"66.944 690 CURVE SMOOTH",
"36.012 690 OFFCURVE",
"13.44 672 OFFCURVE",
"-3.28 621 CURVE SMOOTH",
"-4.952 616 OFFCURVE",
"-5.788 612 OFFCURVE",
"-5.788 608 CURVE SMOOTH",
"-5.788 603 OFFCURVE",
"-3.28 599 OFFCURVE",
"1.736 596 CURVE SMOOTH",
"9.26 592 LINE SMOOTH"
);
}
);
width = 265;
},
{
components = (
{
alignment = 1;
name = idotless;
}
);
layerId = "2C16E7AF-C861-4509-900A-75D3055B0FF7";
paths = (
{
closed = 1;
nodes = (
"4.08 579 OFFCURVE",
"7.688 578 OFFCURVE",
"11.296 578 CURVE SMOOTH",
"18.512 578 OFFCURVE",
"25.728 582 OFFCURVE",
"33.846 595 CURVE SMOOTH",
"43.768 609 OFFCURVE",
"53.69 611 OFFCURVE",
"60.906 611 CURVE SMOOTH",
"87.966 609 OFFCURVE",
"148.4 582 OFFCURVE",
"176.362 582 CURVE SMOOTH",
"223.266 582 OFFCURVE",
"254.836 616 OFFCURVE",
"265.66 652 CURVE SMOOTH",
"267.464 656 OFFCURVE",
"268.366 661 OFFCURVE",
"268.366 666 CURVE SMOOTH",
"268.366 677 OFFCURVE",
"263.856 688 OFFCURVE",
"249.424 693 CURVE SMOOTH",
"240.404 696 LINE SMOOTH",
"236.796 698 OFFCURVE",
"233.188 698 OFFCURVE",
"230.482 698 CURVE SMOOTH",
"223.266 698 OFFCURVE",
"216.05 694 OFFCURVE",
"207.03 681 CURVE SMOOTH",
"197.108 667 OFFCURVE",
"187.186 665 OFFCURVE",
"179.97 665 CURVE SMOOTH",
"152.91 667 OFFCURVE",
"92.476 694 OFFCURVE",
"64.514 694 CURVE SMOOTH",
"17.61 694 OFFCURVE",
"-13.96 660 OFFCURVE",
"-24.784 624 CURVE SMOOTH",
"-25.686 620 OFFCURVE",
"-26.588 615 OFFCURVE",
"-26.588 610 CURVE SMOOTH",
"-26.588 599 OFFCURVE",
"-22.078 588 OFFCURVE",
"-8.548 583 CURVE SMOOTH",
"0.472 580 LINE SMOOTH"
);
}
);
width = 265;
}
);
leftKerningGroup = i;
rightKerningGroup = i;
unicode = 0129;
userData = {
RMXScaler = {
source = itilde;
};
};
},
{
color = 4;
glyphname = j;
layers = (
{
background = {
paths = (
{
closed = 1;
nodes = (
"149 649 LINE SMOOTH",
"177 649 OFFCURVE",
"189 657 OFFCURVE",
"189 671 CURVE SMOOTH",
"189 730 LINE SMOOTH",
"189 744 OFFCURVE",
"177 752 OFFCURVE",
"149 752 CURVE SMOOTH",
"137 752 LINE SMOOTH",
"109 752 OFFCURVE",
"97 744 OFFCURVE",
"97 730 CURVE SMOOTH",
"97 671 LINE SMOOTH",
"97 657 OFFCURVE",
"109 649 OFFCURVE",
"137 649 CURVE"
);
}
);
};
components = (
{
name = jdotless;
},
{
alignment = 1;
name = dotaccentcomb;
transform = "{1.1, 0, 0, 1.1, 143, -52}";
}
);
layerId = UUID0;
width = 276;
},
{
background = {
paths = (
{
closed = 1;
nodes = (
"158 609 LINE SMOOTH",
"200 609 OFFCURVE",
"218 620 OFFCURVE",
"218 641 CURVE SMOOTH",
"218 722 LINE SMOOTH",
"218 743 OFFCURVE",
"200 754 OFFCURVE",
"158 754 CURVE SMOOTH",
"130 754 LINE SMOOTH",
"88 754 OFFCURVE",
"70 743 OFFCURVE",
"70 722 CURVE SMOOTH",
"70 641 LINE SMOOTH",
"70 620 OFFCURVE",
"88 609 OFFCURVE",
"130 609 CURVE"
);
}
);
};
components = (
{
name = jdotless;
},
{
alignment = 1;
name = dotaccentcomb;
transform = "{1.23, 0, 0, 1.18, 143, -94}";
}
);
layerId = "2C16E7AF-C861-4509-900A-75D3055B0FF7";
width = 276;
}
);
leftKerningGroup = j;
rightKerningGroup = j;
unicode = 006A;
userData = {
RMXScaler = {
source = j;
};
};
},
{
color = 11;
glyphname = jdotless;
layers = (
{
anchors = (
{
name = top;
position = "{143, 523}";
}
);
layerId = UUID0;
paths = (
{
closed = 1;
nodes = (
"106 -212 OFFCURVE",
"185 -190 OFFCURVE",
"185 -74 CURVE SMOOTH",
"185 503 LINE SMOOTH",
"185 517 OFFCURVE",
"173 525 OFFCURVE",
"145 525 CURVE SMOOTH",
"141 525 LINE SMOOTH",
"113 525 OFFCURVE",
"101 517 OFFCURVE",
"101 503 CURVE SMOOTH",
"101 -66 LINE SMOOTH",
"101 -126 OFFCURVE",
"76 -140 OFFCURVE",
"47 -140 CURVE SMOOTH",
"18 -140 OFFCURVE",
"13 -135 OFFCURVE",
"4 -135 CURVE SMOOTH",
"-10 -135 OFFCURVE",
"-17 -174 OFFCURVE",
"-17 -182 CURVE SMOOTH",
"-17 -209 OFFCURVE",
"29 -212 OFFCURVE",
"56 -212 CURVE SMOOTH"
);
}
);
width = 276;
},
{
anchors = (
{
name = top;
position = "{144, 523}";
}
);
layerId = "2C16E7AF-C861-4509-900A-75D3055B0FF7";
paths = (
{
closed = 1;
nodes = (
"155 -212 OFFCURVE",
"218 -159 OFFCURVE",
"218 -50 CURVE SMOOTH",
"218 493 LINE SMOOTH",
"218 514 OFFCURVE",
"200 525 OFFCURVE",
"158 525 CURVE SMOOTH",
"130 525 LINE SMOOTH",
"88 525 OFFCURVE",
"70 514 OFFCURVE",
"70 493 CURVE SMOOTH",
"70 -52 LINE SMOOTH",
"70 -82 OFFCURVE",
"60 -95 OFFCURVE",
"34 -95 CURVE SMOOTH",
"23 -95 OFFCURVE",
"10 -91 OFFCURVE",
"4 -91 CURVE SMOOTH",
"-17 -91 OFFCURVE",
"-32 -137 OFFCURVE",
"-32 -160 CURVE SMOOTH",
"-32 -199 OFFCURVE",
"-7 -212 OFFCURVE",
"72 -212 CURVE SMOOTH"
);
}
);
width = 276;
}
);
leftKerningGroup = j;
rightKerningGroup = j;
unicode = 0237;
userData = {
RMXScaler = {
source = jdotless;
};
};
},
{
color = 4;
glyphname = k;
layers = (
{
anchors = (
{
name = bottom;
position = "{261, 0}";
}
);
layerId = UUID0;
paths = (
{
closed = 1;
nodes = (
"138 -2 LINE SMOOTH",
"166 -2 OFFCURVE",
"178 6 OFFCURVE",
"178 20 CURVE SMOOTH",
"178 248 LINE",
"182 248 LINE",
"382 11 LINE SMOOTH",
"392 -1 OFFCURVE",
"414 -2 OFFCURVE",
"436 -2 CURVE SMOOTH",
"440 -2 LINE SMOOTH",
"471 -2 OFFCURVE",
"484 1 OFFCURVE",
"484 12 CURVE SMOOTH",
"484 16 OFFCURVE",
"482 20 OFFCURVE",
"475 28 CURVE SMOOTH",
"247 298 LINE",
"247 246 LINE",
"455 492 LINE SMOOTH",
"462 500 OFFCURVE",
"465 507 OFFCURVE",
"465 512 CURVE SMOOTH",
"465 519 OFFCURVE",
"454 525 OFFCURVE",
"430 525 CURVE SMOOTH",
"426 525 LINE SMOOTH",
"404 525 OFFCURVE",
"382 522 OFFCURVE",
"373 511 CURVE SMOOTH",
"182 283 LINE",
"178 283 LINE",
"178 730 LINE SMOOTH",
"178 744 OFFCURVE",
"166 752 OFFCURVE",
"138 752 CURVE SMOOTH",
"134 752 LINE SMOOTH",
"106 752 OFFCURVE",
"94 744 OFFCURVE",
"94 730 CURVE SMOOTH",
"94 20 LINE SMOOTH",
"94 6 OFFCURVE",
"106 -2 OFFCURVE",
"134 -2 CURVE SMOOTH"
);
}
);
width = 521;
},
{
anchors = (
{
name = bottom;
position = "{261, 0}";
}
);
layerId = "2C16E7AF-C861-4509-900A-75D3055B0FF7";
paths = (
{
closed = 1;
nodes = (
"154 -2 LINE SMOOTH",
"196 -2 OFFCURVE",
"214 9 OFFCURVE",
"214 30 CURVE SMOOTH",
"214 246 LINE",
"218 247 LINE",
"357 17 LINE SMOOTH",
"366 2 OFFCURVE",
"388 -2 OFFCURVE",
"417 -2 CURVE SMOOTH",
"459 -2 LINE SMOOTH",
"498 -2 OFFCURVE",
"516 4 OFFCURVE",
"516 13 CURVE SMOOTH",
"516 19 OFFCURVE",
"513.5 25 OFFCURVE",
"508 34 CURVE SMOOTH",
"314 341 LINE",
"312 244 LINE",
"484 490 LINE SMOOTH",
"490 498 OFFCURVE",
"493 505 OFFCURVE",
"493 510 CURVE SMOOTH",
"493 519 OFFCURVE",
"475 525 OFFCURVE",
"437 525 CURVE SMOOTH",
"400 525 LINE SMOOTH",
"371 525 OFFCURVE",
"350.5 523 OFFCURVE",
"339 506 CURVE SMOOTH",
"218 325 LINE",
"214 326 LINE",
"214 722 LINE SMOOTH",
"214 743 OFFCURVE",
"196 754 OFFCURVE",
"154 754 CURVE SMOOTH",
"126 754 LINE SMOOTH",
"84 754 OFFCURVE",
"66 743 OFFCURVE",
"66 722 CURVE SMOOTH",
"66 30 LINE SMOOTH",
"66 9 OFFCURVE",
"84 -2 OFFCURVE",
"126 -2 CURVE SMOOTH"
);
}
);
width = 521;
}
);
leftKerningGroup = h;
rightKerningGroup = k;
unicode = 006B;
userData = {
RMXScaler = {
source = k;
};
};
},
{
color = 11;
glyphname = kgreenlandic;
layers = (
{
layerId = UUID0;
paths = (
{
closed = 1;
nodes = (
"138 -2 LINE SMOOTH",
"166 -2 OFFCURVE",
"178 6 OFFCURVE",
"178 20 CURVE SMOOTH",
"178 248 LINE",
"182 248 LINE",
"382 11 LINE SMOOTH",
"392 -1 OFFCURVE",
"414 -2 OFFCURVE",
"436 -2 CURVE SMOOTH",
"440 -2 LINE SMOOTH",
"471 -2 OFFCURVE",
"484 1 OFFCURVE",
"484 12 CURVE SMOOTH",
"484 16 OFFCURVE",
"482 20 OFFCURVE",
"475 28 CURVE SMOOTH",
"269 272 LINE",
"455 492 LINE SMOOTH",
"462 500 OFFCURVE",
"465 507 OFFCURVE",
"465 512 CURVE SMOOTH",
"465 519 OFFCURVE",
"454 525 OFFCURVE",
"430 525 CURVE SMOOTH",
"426 525 LINE SMOOTH",
"404 525 OFFCURVE",
"382 522 OFFCURVE",
"373 511 CURVE SMOOTH",
"182 283 LINE",
"178 283 LINE",
"178 504 LINE SMOOTH",
"178 518 OFFCURVE",
"166 526 OFFCURVE",
"138 526 CURVE SMOOTH",
"134 526 LINE SMOOTH",
"106 526 OFFCURVE",
"94 518 OFFCURVE",
"94 504 CURVE SMOOTH",
"94 20 LINE SMOOTH",
"94 6 OFFCURVE",
"106 -2 OFFCURVE",
"134 -2 CURVE SMOOTH"
);
}
);
width = 521;
},
{
layerId = "2C16E7AF-C861-4509-900A-75D3055B0FF7";
paths = (
{
closed = 1;
nodes = (
"154 -2 LINE SMOOTH",
"196 -2 OFFCURVE",
"214 9 OFFCURVE",
"214 30 CURVE SMOOTH",
"214 246 LINE",
"218 247 LINE",
"357 17 LINE SMOOTH",
"366 2 OFFCURVE",
"388 -2 OFFCURVE",
"417 -2 CURVE SMOOTH",
"459 -2 LINE SMOOTH",
"498 -2 OFFCURVE",
"516 4 OFFCURVE",
"516 13 CURVE SMOOTH",
"516 19 OFFCURVE",
"513.5 25 OFFCURVE",
"508 34 CURVE SMOOTH",
"345 292 LINE",
"484 490 LINE SMOOTH",
"490 498 OFFCURVE",
"493 505 OFFCURVE",
"493 510 CURVE SMOOTH",
"493 519 OFFCURVE",
"475 525 OFFCURVE",
"437 525 CURVE SMOOTH",
"400 525 LINE SMOOTH",
"371 525 OFFCURVE",
"350.5 523 OFFCURVE",
"339 506 CURVE SMOOTH",
"218 325 LINE",
"214 326 LINE",
"214 493 LINE SMOOTH",
"214 514 OFFCURVE",
"196 525 OFFCURVE",
"154 525 CURVE SMOOTH",
"126 525 LINE SMOOTH",
"84 525 OFFCURVE",
"66 514 OFFCURVE",
"66 493 CURVE SMOOTH",
"66 30 LINE SMOOTH",
"66 9 OFFCURVE",
"84 -2 OFFCURVE",
"126 -2 CURVE SMOOTH"
);
}
);
width = 521;
}
);
leftKerningGroup = i;
rightKerningGroup = k;
unicode = 0138;
userData = {
RMXScaler = {
source = kgreenlandic;
};
};
},
{
color = 4;
glyphname = l;
layers = (
{
anchors = (
{
name = bottom;
position = "{179, 0}";
},
{
name = caron;
position = "{166, 702}";
},
{
name = center;
position = "{279, 335}";
},
{
name = top;
position = "{125, 720}";
}
);
layerId = UUID0;
paths = (
{
closed = 1;
nodes = (
"238 -6 OFFCURVE",
"284 -3 OFFCURVE",
"284 24 CURVE SMOOTH",
"284 32 OFFCURVE",
"277 71 OFFCURVE",
"263 71 CURVE SMOOTH",
"254 71 OFFCURVE",
"249 66 OFFCURVE",
"220 66 CURVE SMOOTH",
"191 66 OFFCURVE",
"166 80 OFFCURVE",
"166 140 CURVE SMOOTH",
"166 730 LINE SMOOTH",
"166 744 OFFCURVE",
"154 752 OFFCURVE",
"126 752 CURVE SMOOTH",
"122 752 LINE SMOOTH",
"94 752 OFFCURVE",
"82 744 OFFCURVE",
"82 730 CURVE SMOOTH",
"82 132 LINE SMOOTH",
"82 16 OFFCURVE",
"161 -6 OFFCURVE",
"211 -6 CURVE SMOOTH"
);
}
);
width = 297;
},
{
anchors = (
{
name = bottom;
position = "{183, 0}";
},
{
name = caron;
position = "{193, 752}";
},
{
name = center;
position = "{305, 335}";
},
{
name = top;
position = "{136, 720}";
}
);
layerId = "2C16E7AF-C861-4509-900A-75D3055B0FF7";
paths = (
{
closed = 1;
nodes = (
"240 -8 OFFCURVE",
"305 -5 OFFCURVE",
"305 41 CURVE SMOOTH",
"305 49 OFFCURVE",
"294 113 OFFCURVE",
"274 113 CURVE SMOOTH",
"268 113 OFFCURVE",
"256 109 OFFCURVE",
"247 109 CURVE SMOOTH",
"221 109 OFFCURVE",
"211 122 OFFCURVE",
"211 152 CURVE SMOOTH",
"211 722 LINE SMOOTH",
"211 743 OFFCURVE",
"193 754 OFFCURVE",
"151 754 CURVE SMOOTH",
"123 754 LINE SMOOTH",
"81 754 OFFCURVE",
"63 743 OFFCURVE",
"63 722 CURVE SMOOTH",
"63 154 LINE SMOOTH",
"63 43 OFFCURVE",
"115 -8 OFFCURVE",
"209 -8 CURVE SMOOTH"
);
}
);
width = 297;
}
);
leftKerningGroup = l;
rightKerningGroup = l;
unicode = 006C;
userData = {
RMXScaler = {
source = l;
};
};
},
{
color = 11;
glyphname = lslash;
layers = (
{
components = (
{
name = l;
}
);
layerId = UUID0;
paths = (
{
closed = 1;
nodes = (
"206 427 LINE SMOOTH",
"218 434 OFFCURVE",
"225 443 OFFCURVE",
"225 457 CURVE SMOOTH",
"225 463 LINE SMOOTH",
"225 472 OFFCURVE",
"221 477 OFFCURVE",
"216 477 CURVE SMOOTH",
"213 477 OFFCURVE",
"210 475 OFFCURVE",
"206 473 CURVE",
"38 374 LINE",
"26 367 OFFCURVE",
"19 358 OFFCURVE",
"19 344 CURVE SMOOTH",
"19 338 LINE SMOOTH",
"19 329 OFFCURVE",
"23 324 OFFCURVE",
"28 324 CURVE SMOOTH",
"30 324 OFFCURVE",
"34 326 OFFCURVE",
"38 328 CURVE SMOOTH"
);
}
);
width = 293;
},
{
components = (
{
name = l;
}
);
layerId = "2C16E7AF-C861-4509-900A-75D3055B0FF7";
paths = (
{
closed = 1;
nodes = (
"231 427 LINE SMOOTH",
"249 438 OFFCURVE",
"257 450 OFFCURVE",
"257 472 CURVE SMOOTH",
"257 492 LINE SMOOTH",
"257 506 OFFCURVE",
"253 512 OFFCURVE",
"246 512 CURVE SMOOTH",
"242 512 OFFCURVE",
"237 511 OFFCURVE",
"231 507 CURVE SMOOTH",
"37 390 LINE SMOOTH",
"19 379 OFFCURVE",
"11 365 OFFCURVE",
"11 344 CURVE SMOOTH",
"11 324 LINE SMOOTH",
"11 310 OFFCURVE",
"14 304 OFFCURVE",
"21 304 CURVE SMOOTH",
"25 304 OFFCURVE",
"30 306 OFFCURVE",
"37 310 CURVE SMOOTH"
);
}
);
width = 293;
}
);
leftKerningGroup = l;
unicode = 0142;
userData = {
RMXScaler = {
source = lslash;
};
};
},
{
color = 4;
glyphname = m;
layers = (
{
layerId = UUID0;
paths = (
{
closed = 1;
nodes = (
"129 -2 LINE SMOOTH",
"157 -2 OFFCURVE",
"169 6 OFFCURVE",
"169 20 CURVE SMOOTH",
"169 387 LINE",
"169 387 OFFCURVE",
"218 456 OFFCURVE",
"291 456 CURVE SMOOTH",
"355 456 OFFCURVE",
"387 418 OFFCURVE",
"387 359 CURVE SMOOTH",
"387 20 LINE SMOOTH",
"387 6 OFFCURVE",
"399 -2 OFFCURVE",
"427 -2 CURVE SMOOTH",
"431 -2 LINE SMOOTH",
"459 -2 OFFCURVE",
"471 6 OFFCURVE",
"471 20 CURVE SMOOTH",
"471 366 LINE SMOOTH",
"471 381 OFFCURVE",
"470 398 OFFCURVE",
"464 413 CURVE",
"465 379 LINE",
"469 384 OFFCURVE",
"521 456 OFFCURVE",
"593 456 CURVE SMOOTH",
"657 456 OFFCURVE",
"689 418 OFFCURVE",
"689 359 CURVE SMOOTH",
"689 20 LINE SMOOTH",
"689 6 OFFCURVE",
"701 -2 OFFCURVE",
"729 -2 CURVE SMOOTH",
"733 -2 LINE SMOOTH",
"761 -2 OFFCURVE",
"773 6 OFFCURVE",
"773 20 CURVE SMOOTH",
"773 367 LINE SMOOTH",
"773 503 OFFCURVE",
"680 529 OFFCURVE",
"616 529 CURVE SMOOTH",
"553 529 OFFCURVE",
"495 491 OFFCURVE",
"457 446 CURVE",
"429 514 OFFCURVE",
"363 529 OFFCURVE",
"314 529 CURVE SMOOTH",
"250 529 OFFCURVE",
"195 492 OFFCURVE",
"162 454 CURVE",
"156 480 OFFCURVE",
"151 520 OFFCURVE",
"127 520 CURVE SMOOTH",
"114 520 OFFCURVE",
"73 516 OFFCURVE",
"73 497 CURVE SMOOTH",
"73 492 OFFCURVE",
"85 453 OFFCURVE",
"85 371 CURVE SMOOTH",
"85 20 LINE SMOOTH",
"85 6 OFFCURVE",
"97 -2 OFFCURVE",
"125 -2 CURVE SMOOTH"
);
}
);
width = 848;
},
{
layerId = "2C16E7AF-C861-4509-900A-75D3055B0FF7";
paths = (
{
closed = 1;
nodes = (
"150 -2 LINE SMOOTH",
"192 -2 OFFCURVE",
"210 9 OFFCURVE",
"210 30 CURVE SMOOTH",
"210 351 LINE",
"222 374 OFFCURVE",
"248 409 OFFCURVE",
"289 409 CURVE SMOOTH",
"333 409 OFFCURVE",
"348 386 OFFCURVE",
"348 347 CURVE SMOOTH",
"348 30 LINE SMOOTH",
"348 9 OFFCURVE",
"366 -2 OFFCURVE",
"408 -2 CURVE SMOOTH",
"436 -2 LINE SMOOTH",
"478 -2 OFFCURVE",
"496 9 OFFCURVE",
"496 30 CURVE SMOOTH",
"496 366 LINE SMOOTH",
"496 383 OFFCURVE",
"493 401 OFFCURVE",
"488 418 CURVE",
"488 337 LINE",
"492 342 OFFCURVE",
"516 409 OFFCURVE",
"575 409 CURVE SMOOTH",
"619 409 OFFCURVE",
"634 386 OFFCURVE",
"634 347 CURVE SMOOTH",
"634 30 LINE SMOOTH",
"634 9 OFFCURVE",
"652 -2 OFFCURVE",
"694 -2 CURVE SMOOTH",
"722 -2 LINE SMOOTH",
"764 -2 OFFCURVE",
"782 9 OFFCURVE",
"782 30 CURVE SMOOTH",
"782 369 LINE SMOOTH",
"782 480 OFFCURVE",
"736 531 OFFCURVE",
"636 531 CURVE SMOOTH",
"569 531 OFFCURVE",
"512 493 OFFCURVE",
"482 455 CURVE",
"462 507 OFFCURVE",
"419 531 OFFCURVE",
"350 531 CURVE SMOOTH",
"285 531 OFFCURVE",
"231 493 OFFCURVE",
"202 455 CURVE",
"196 480 OFFCURVE",
"194 520 OFFCURVE",
"162 520 CURVE SMOOTH",
"137 520 OFFCURVE",
"50 512 OFFCURVE",
"50 488 CURVE SMOOTH",
"50 468 OFFCURVE",
"62 447 OFFCURVE",
"62 347 CURVE SMOOTH",
"62 30 LINE SMOOTH",
"62 9 OFFCURVE",
"80 -2 OFFCURVE",
"122 -2 CURVE SMOOTH"
);
}
);
width = 848;
}
);
leftKerningGroup = n;
rightKerningGroup = n;
unicode = 006D;
userData = {
RMXScaler = {
source = m;
};
};
},
{
color = 4;
glyphname = n;
layers = (
{
anchors = (
{
name = bottom;
position = "{279, 0}";
},
{
name = top;
position = "{279, 523}";
}
);
layerId = UUID0;
paths = (
{
closed = 1;
nodes = (
"130 -2 LINE SMOOTH",
"158 -2 OFFCURVE",
"170 6 OFFCURVE",
"170 20 CURVE SMOOTH",
"170 386 LINE",
"203 429 OFFCURVE",
"251 456 OFFCURVE",
"296 456 CURVE SMOOTH",
"361 456 OFFCURVE",
"398 420 OFFCURVE",
"398 359 CURVE SMOOTH",
"398 20 LINE SMOOTH",
"398 6 OFFCURVE",
"410 -2 OFFCURVE",
"438 -2 CURVE SMOOTH",
"442 -2 LINE SMOOTH",
"470 -2 OFFCURVE",
"482 6 OFFCURVE",
"482 20 CURVE SMOOTH",
"482 367 LINE SMOOTH",
"482 468 OFFCURVE",
"421 529 OFFCURVE",
"319 529 CURVE SMOOTH",
"263 529 OFFCURVE",
"205 501 OFFCURVE",
"163 454 CURVE",
"157 480 OFFCURVE",
"152 520 OFFCURVE",
"128 520 CURVE SMOOTH",
"115 520 OFFCURVE",
"74 516 OFFCURVE",
"74 497 CURVE SMOOTH",
"74 492 OFFCURVE",
"86 453 OFFCURVE",
"86 371 CURVE SMOOTH",
"86 20 LINE SMOOTH",
"86 6 OFFCURVE",
"98 -2 OFFCURVE",
"126 -2 CURVE SMOOTH"
);
}
);
width = 557;
},
{
anchors = (
{
name = bottom;
position = "{279, 0}";
},
{
name = top;
position = "{279, 523}";
}
);
layerId = "2C16E7AF-C861-4509-900A-75D3055B0FF7";
paths = (
{
closed = 1;
nodes = (
"150 -2 LINE SMOOTH",
"192 -2 OFFCURVE",
"210 9 OFFCURVE",
"210 30 CURVE SMOOTH",
"210 351 LINE",
"222 374 OFFCURVE",
"249 409 OFFCURVE",
"290 409 CURVE SMOOTH",
"334 409 OFFCURVE",
"350 386 OFFCURVE",
"350 347 CURVE SMOOTH",
"350 30 LINE SMOOTH",
"350 9 OFFCURVE",
"368 -2 OFFCURVE",
"410 -2 CURVE SMOOTH",
"438 -2 LINE SMOOTH",
"480 -2 OFFCURVE",
"498 9 OFFCURVE",
"498 30 CURVE SMOOTH",
"498 369 LINE SMOOTH",
"498 480 OFFCURVE",
"451 531 OFFCURVE",
"351 531 CURVE SMOOTH",
"286 531 OFFCURVE",
"231 493 OFFCURVE",
"202 455 CURVE",
"196 480 OFFCURVE",
"194 520 OFFCURVE",
"162 520 CURVE SMOOTH",
"137 520 OFFCURVE",
"50 512 OFFCURVE",
"50 488 CURVE SMOOTH",
"50 468 OFFCURVE",
"62 447 OFFCURVE",
"62 347 CURVE SMOOTH",
"62 30 LINE SMOOTH",
"62 9 OFFCURVE",
"80 -2 OFFCURVE",
"122 -2 CURVE SMOOTH"
);
}
);
width = 557;
}
);
leftKerningGroup = n;
rightKerningGroup = n;
unicode = 006E;
userData = {
RMXScaler = {
source = n;
};
};
},
{
color = 11;
glyphname = eng;
layers = (
{
layerId = UUID0;
paths = (
{
closed = 1;
nodes = (
"403 -212 OFFCURVE",
"482 -190 OFFCURVE",
"482 -74 CURVE SMOOTH",
"482 367 LINE SMOOTH",
"482 468 OFFCURVE",
"421 529 OFFCURVE",
"319 529 CURVE SMOOTH",
"263 529 OFFCURVE",
"205 501 OFFCURVE",
"163 454 CURVE",
"157 480 OFFCURVE",
"152 520 OFFCURVE",
"128 520 CURVE SMOOTH",
"115 520 OFFCURVE",
"74 516 OFFCURVE",
"74 497 CURVE SMOOTH",
"74 492 OFFCURVE",
"86 453 OFFCURVE",
"86 371 CURVE SMOOTH",
"86 20 LINE SMOOTH",
"86 6 OFFCURVE",
"98 -2 OFFCURVE",
"126 -2 CURVE SMOOTH",
"130 -2 LINE SMOOTH",
"158 -2 OFFCURVE",
"170 6 OFFCURVE",
"170 20 CURVE SMOOTH",
"170 386 LINE",
"203 429 OFFCURVE",
"251 456 OFFCURVE",
"296 456 CURVE SMOOTH",
"361 456 OFFCURVE",
"398 420 OFFCURVE",
"398 359 CURVE SMOOTH",
"398 -66 LINE SMOOTH",
"398 -126 OFFCURVE",
"373 -140 OFFCURVE",
"344 -140 CURVE SMOOTH",
"315 -140 OFFCURVE",
"310 -135 OFFCURVE",
"301 -135 CURVE SMOOTH",
"287 -135 OFFCURVE",
"280 -174 OFFCURVE",
"280 -182 CURVE SMOOTH",
"280 -209 OFFCURVE",
"326 -212 OFFCURVE",
"353 -212 CURVE SMOOTH"
);
}
);
width = 557;
},
{
layerId = "2C16E7AF-C861-4509-900A-75D3055B0FF7";
paths = (
{
closed = 1;
nodes = (
"435 -212 OFFCURVE",
"498 -159 OFFCURVE",
"498 -50 CURVE SMOOTH",
"498 369 LINE SMOOTH",
"498 480 OFFCURVE",
"451 531 OFFCURVE",
"351 531 CURVE SMOOTH",
"286 531 OFFCURVE",
"231 493 OFFCURVE",
"202 455 CURVE",
"196 480 OFFCURVE",
"194 520 OFFCURVE",
"162 520 CURVE SMOOTH",
"137 520 OFFCURVE",
"50 512 OFFCURVE",
"50 488 CURVE SMOOTH",
"50 468 OFFCURVE",
"62 447 OFFCURVE",
"62 347 CURVE SMOOTH",
"62 30 LINE SMOOTH",
"62 9 OFFCURVE",
"80 -2 OFFCURVE",
"122 -2 CURVE SMOOTH",
"150 -2 LINE SMOOTH",
"192 -2 OFFCURVE",
"210 9 OFFCURVE",
"210 30 CURVE SMOOTH",
"210 351 LINE",
"222 374 OFFCURVE",
"249 409 OFFCURVE",
"290 409 CURVE SMOOTH",
"334 409 OFFCURVE",
"350 386 OFFCURVE",
"350 347 CURVE SMOOTH",
"350 -52 LINE SMOOTH",
"350 -82 OFFCURVE",
"340 -95 OFFCURVE",
"314 -95 CURVE SMOOTH",
"303 -95 OFFCURVE",
"290 -91 OFFCURVE",
"284 -91 CURVE SMOOTH",
"263 -91 OFFCURVE",
"248 -137 OFFCURVE",
"248 -160 CURVE SMOOTH",
"248 -199 OFFCURVE",
"273 -212 OFFCURVE",
"352 -212 CURVE SMOOTH"
);
}
);
width = 557;
}
);
leftKerningGroup = n;
unicode = 014B;
userData = {
RMXScaler = {
source = eng;
};
};
},
{
color = 4;
glyphname = o;
layers = (
{
anchors = (
{
name = bottom;
position = "{291, 0}";
},
{
name = horn;
position = "{376, 505}";
},
{
name = ogonek;
position = "{343, 0}";
},
{
name = top;
position = "{285, 523}";
}
);
background = {
paths = (
{
closed = 1;
nodes = (
"513 585 LINE SMOOTH",
"500 585 OFFCURVE",
"493 576 OFFCURVE",
"493 563 CURVE SMOOTH",
"493 512 OFFCURVE",
"503 460 OFFCURVE",
"443 460 CURVE",
"463 427 LINE",
"539 427 OFFCURVE",
"562 471 OFFCURVE",
"562 567 CURVE SMOOTH",
"562 578 OFFCURVE",
"552 585 OFFCURVE",
"542 585 CURVE SMOOTH"
);
}
);
};
layerId = UUID0;
paths = (
{
closed = 1;
nodes = (
"436 -6 OFFCURVE",
"514 86 OFFCURVE",
"514 259 CURVE SMOOTH",
"514 433 OFFCURVE",
"434 529 OFFCURVE",
"287 529 CURVE SMOOTH",
"138 529 OFFCURVE",
"55 432 OFFCURVE",
"55 259 CURVE SMOOTH",
"55 87 OFFCURVE",
"136 -6 OFFCURVE",
"287 -6 CURVE SMOOTH"
);
},
{
closed = 1;
nodes = (
"186 66 OFFCURVE",
"143 128 OFFCURVE",
"143 261 CURVE SMOOTH",
"143 395 OFFCURVE",
"187 457 OFFCURVE",
"284 457 CURVE SMOOTH",
"382 457 OFFCURVE",
"427 394 OFFCURVE",
"427 261 CURVE SMOOTH",
"427 128 OFFCURVE",
"382 66 OFFCURVE",
"284 66 CURVE SMOOTH"
);
}
);
width = 569;
},
{
anchors = (
{
name = bottom;
position = "{291, 0}";
},
{
name = horn;
position = "{387, 505}";
},
{
name = ogonek;
position = "{353, 0}";
},
{
name = top;
position = "{285, 523}";
}
);
background = {
paths = (
{
closed = 1;
nodes = (
"507 585 LINE SMOOTH",
"489 585 OFFCURVE",
"482 572 OFFCURVE",
"482 558 CURVE SMOOTH",
"482 512 OFFCURVE",
"492 460 OFFCURVE",
"443 460 CURVE",
"463 427 LINE",
"546 427 OFFCURVE",
"571 468 OFFCURVE",
"571 562 CURVE SMOOTH",
"571 574 OFFCURVE",
"560 585 OFFCURVE",
"546 585 CURVE SMOOTH"
);
}
);
};
layerId = "2C16E7AF-C861-4509-900A-75D3055B0FF7";
paths = (
{
closed = 1;
nodes = (
"444 -8 OFFCURVE",
"527 88 OFFCURVE",
"527 262 CURVE SMOOTH",
"527 436 OFFCURVE",
"444 531 OFFCURVE",
"285 531 CURVE SMOOTH",
"126 531 OFFCURVE",
"42 436 OFFCURVE",
"42 262 CURVE SMOOTH",
"42 88 OFFCURVE",
"126 -8 OFFCURVE",
"285 -8 CURVE SMOOTH"
);
},
{
closed = 1;
nodes = (
"221 109 OFFCURVE",
"192 162 OFFCURVE",
"192 262 CURVE SMOOTH",
"192 362 OFFCURVE",
"221 414 OFFCURVE",
"285 414 CURVE SMOOTH",
"349 414 OFFCURVE",
"377 362 OFFCURVE",
"377 262 CURVE SMOOTH",
"377 162 OFFCURVE",
"349 109 OFFCURVE",
"285 109 CURVE SMOOTH"
);
}
);
width = 569;
}
);
leftKerningGroup = o;
rightKerningGroup = o;
unicode = 006F;
userData = {
RMXScaler = {
source = o;
};
};
},
{
color = 11;
glyphname = ohorn;
layers = (
{
anchors = (
{
name = bottom;
position = "{291, 0}";
},
{
name = ogonek;
position = "{343, 0}";
},
{
name = top;
position = "{285, 523}";
}
);
layerId = UUID0;
paths = (
{
closed = 1;
nodes = (
"436 -6 OFFCURVE",
"514 86 OFFCURVE",
"514 259 CURVE SMOOTH",
"514 356 OFFCURVE",
"489 428 OFFCURVE",
"442 474 CURVE",
"500 482 OFFCURVE",
"527 516 OFFCURVE",
"527 562 CURVE SMOOTH",
"527 591 OFFCURVE",
"507 636 OFFCURVE",
"484 636 CURVE SMOOTH",
"480 636 OFFCURVE",
"476 635 OFFCURVE",
"472 632 CURVE",
"448 616 LINE SMOOTH",
"442 612 OFFCURVE",
"439 606 OFFCURVE",
"439 600 CURVE SMOOTH",
"439 588 OFFCURVE",
"466 568 OFFCURVE",
"466 538 CURVE SMOOTH",
"466 522 OFFCURVE",
"454 505 OFFCURVE",
"423 505 CURVE SMOOTH",
"400 505 OFFCURVE",
"390 511 OFFCURVE",
"367 518 CURVE SMOOTH",
"343 525 OFFCURVE",
"316 529 OFFCURVE",
"287 529 CURVE SMOOTH",
"138 529 OFFCURVE",
"55 432 OFFCURVE",
"55 259 CURVE SMOOTH",
"55 87 OFFCURVE",
"136 -6 OFFCURVE",
"287 -6 CURVE SMOOTH"
);
},
{
closed = 1;
nodes = (
"186 66 OFFCURVE",
"143 128 OFFCURVE",
"143 261 CURVE SMOOTH",
"143 395 OFFCURVE",
"187 457 OFFCURVE",
"284 457 CURVE SMOOTH",
"382 457 OFFCURVE",
"427 394 OFFCURVE",
"427 261 CURVE SMOOTH",
"427 128 OFFCURVE",
"382 66 OFFCURVE",
"284 66 CURVE SMOOTH"
);
}
);
width = 569;
},
{
anchors = (
{
name = bottom;
position = "{291, 0}";
},
{
name = ogonek;
position = "{353, 0}";
},
{
name = top;
position = "{285, 523}";
}
);
layerId = "2C16E7AF-C861-4509-900A-75D3055B0FF7";
paths = (
{
closed = 1;
nodes = (
"444 -8 OFFCURVE",
"527 88 OFFCURVE",
"527 262 CURVE SMOOTH",
"527 350 OFFCURVE",
"506 417 OFFCURVE",
"465 463 CURVE",
"539 469 OFFCURVE",
"572 504 OFFCURVE",
"572 556 CURVE SMOOTH",
"572 586 OFFCURVE",
"551 639 OFFCURVE",
"525 639 CURVE SMOOTH",
"519 639 OFFCURVE",
"514 638 OFFCURVE",
"509 634 CURVE",
"477 612 LINE",
"469 607 OFFCURVE",
"466 600 OFFCURVE",
"466 593 CURVE SMOOTH",
"466 580 OFFCURVE",
"492 563 OFFCURVE",
"492 541 CURVE SMOOTH",
"492 518 OFFCURVE",
"479 505 OFFCURVE",
"445 505 CURVE SMOOTH",
"428 505 OFFCURVE",
"407 509 OFFCURVE",
"379 517 CURVE SMOOTH",
"351 526 OFFCURVE",
"320 531 OFFCURVE",
"285 531 CURVE SMOOTH",
"126 531 OFFCURVE",
"42 436 OFFCURVE",
"42 262 CURVE SMOOTH",
"42 88 OFFCURVE",
"126 -8 OFFCURVE",
"285 -8 CURVE SMOOTH"
);
},
{
closed = 1;
nodes = (
"221 109 OFFCURVE",
"192 162 OFFCURVE",
"192 262 CURVE SMOOTH",
"192 362 OFFCURVE",
"221 414 OFFCURVE",
"285 414 CURVE SMOOTH",
"349 414 OFFCURVE",
"377 362 OFFCURVE",
"377 262 CURVE SMOOTH",
"377 162 OFFCURVE",
"349 109 OFFCURVE",
"285 109 CURVE SMOOTH"
);
}
);
width = 569;
}
);
leftKerningGroup = o;
rightKerningGroup = ohorn;
unicode = 01A1;
userData = {
RMXScaler = {
source = ohorn;
};
};
},
{
color = 11;
glyphname = oslash;
layers = (
{
anchors = (
{
name = top;
position = "{285, 523}";
}
);
components = (
{
name = o;
}
);
layerId = UUID0;
paths = (
{
closed = 1;
nodes = (
"509 486 LINE SMOOTH",
"513 491 OFFCURVE",
"515 495 OFFCURVE",
"515 500 CURVE SMOOTH",
"515 508 OFFCURVE",
"501 521 OFFCURVE",
"493 521 CURVE SMOOTH",
"488 521 OFFCURVE",
"483.5 518 OFFCURVE",
"479 513 CURVE SMOOTH",
"71 37 LINE SMOOTH",
"67 32 OFFCURVE",
"64 28 OFFCURVE",
"64 23 CURVE SMOOTH",
"64 15 OFFCURVE",
"78 2 OFFCURVE",
"87 2 CURVE SMOOTH",
"92 2 OFFCURVE",
"96.5 5 OFFCURVE",
"101 10 CURVE SMOOTH"
);
}
);
width = 569;
},
{
anchors = (
{
name = top;
position = "{285, 523}";
}
);
components = (
{
name = o;
}
);
layerId = "2C16E7AF-C861-4509-900A-75D3055B0FF7";
paths = (
{
closed = 1;
nodes = (
"520 479 LINE SMOOTH",
"526 486 OFFCURVE",
"530 493 OFFCURVE",
"530 500 CURVE SMOOTH",
"530 517 OFFCURVE",
"498 544 OFFCURVE",
"482 544 CURVE SMOOTH",
"475 544 OFFCURVE",
"467 539 OFFCURVE",
"460 531 CURVE SMOOTH",
"49 53 LINE SMOOTH",
"42 45 OFFCURVE",
"39 39 OFFCURVE",
"39 32 CURVE SMOOTH",
"39 13 OFFCURVE",
"71 -12 OFFCURVE",
"87 -12 CURVE SMOOTH",
"94 -12 OFFCURVE",
"101 -8 OFFCURVE",
"108 1 CURVE SMOOTH"
);
}
);
width = 569;
}
);
leftKerningGroup = oslash;
rightKerningGroup = oslash;
unicode = 00F8;
userData = {
RMXScaler = {
source = oslash;
};
};
},
{
color = 11;
glyphname = oe;
layers = (
{
anchors = (
{
name = top;
position = "{447, 523}";
}
);
components = (
{
alignment = -1;
name = e;
transform = "{1, 0, 0, 1, 336, 0}";
}
);
layerId = UUID0;
paths = (
{
closed = 1;
nodes = (
"364 -6 OFFCURVE",
"423 18 OFFCURVE",
"461 66 CURVE",
"460 453 LINE",
"422 503 OFFCURVE",
"363 529 OFFCURVE",
"287 529 CURVE SMOOTH",
"138 529 OFFCURVE",
"55 432 OFFCURVE",
"55 259 CURVE SMOOTH",
"55 87 OFFCURVE",
"136 -6 OFFCURVE",
"287 -6 CURVE SMOOTH"
);
},
{
closed = 1;
nodes = (
"186 66 OFFCURVE",
"143 128 OFFCURVE",
"143 261 CURVE SMOOTH",
"143 395 OFFCURVE",
"187 457 OFFCURVE",
"284 457 CURVE SMOOTH",
"392 457 OFFCURVE",
"440 394 OFFCURVE",
"440 261 CURVE SMOOTH",
"440 128 OFFCURVE",
"392 66 OFFCURVE",
"284 66 CURVE SMOOTH"
);
}
);
width = 875;
},
{
anchors = (
{
name = top;
position = "{447, 523}";
}
);
components = (
{
alignment = -1;
name = e;
transform = "{1, 0, 0, 1, 336, 0}";
}
);
layerId = "2C16E7AF-C861-4509-900A-75D3055B0FF7";
paths = (
{
closed = 1;
nodes = (
"358 -8 OFFCURVE",
"414 16 OFFCURVE",
"455 54 CURVE",
"452 470 LINE",
"412 507 OFFCURVE",
"356 531 OFFCURVE",
"285 531 CURVE SMOOTH",
"126 531 OFFCURVE",
"42 436 OFFCURVE",
"42 262 CURVE SMOOTH",
"42 88 OFFCURVE",
"126 -8 OFFCURVE",
"285 -8 CURVE SMOOTH"
);
},
{
closed = 1;
nodes = (
"221 109 OFFCURVE",
"192 162 OFFCURVE",
"192 262 CURVE SMOOTH",
"192 362 OFFCURVE",
"221 414 OFFCURVE",
"285 414 CURVE SMOOTH",
"349 414 OFFCURVE",
"377 362 OFFCURVE",
"377 262 CURVE SMOOTH",
"377 162 OFFCURVE",
"349 109 OFFCURVE",
"285 109 CURVE SMOOTH"
);
}
);
width = 875;
}
);
leftKerningGroup = o;
leftMetricsKey = o;
rightKerningGroup = e;
rightMetricsKey = e;
unicode = 0153;
userData = {
RMXScaler = {
source = oe;
};
};
},
{
color = 4;
glyphname = p;
layers = (
{
anchors = (
{
name = bottom;
position = "{287, 0}";
},
{
name = top;
position = "{287, 523}";
}
);
layerId = UUID0;
paths = (
{
closed = 1;
nodes = (
"130 -208 LINE SMOOTH",
"158 -208 OFFCURVE",
"170 -200 OFFCURVE",
"170 -186 CURVE SMOOTH",
"170 45 LINE",
"209 15 OFFCURVE",
"251 -6 OFFCURVE",
"313 -6 CURVE SMOOTH",
"432 -6 OFFCURVE",
"516 88 OFFCURVE",
"516 261 CURVE SMOOTH",
"516 415 OFFCURVE",
"446 529 OFFCURVE",
"322 529 CURVE SMOOTH",
"265 529 OFFCURVE",
"212 505 OFFCURVE",
"163 454 CURVE",
"157 480 OFFCURVE",
"152 520 OFFCURVE",
"128 520 CURVE SMOOTH",
"115 520 OFFCURVE",
"74 516 OFFCURVE",
"74 497 CURVE SMOOTH",
"74 492 OFFCURVE",
"86 453 OFFCURVE",
"86 371 CURVE SMOOTH",
"86 -186 LINE SMOOTH",
"86 -200 OFFCURVE",
"98 -208 OFFCURVE",
"126 -208 CURVE SMOOTH"
);
},
{
closed = 1;
nodes = (
"248 68 OFFCURVE",
"206 83 OFFCURVE",
"170 113 CURVE",
"170 387 LINE",
"211 432 OFFCURVE",
"261 456 OFFCURVE",
"305 456 CURVE SMOOTH",
"384 456 OFFCURVE",
"428 383 OFFCURVE",
"428 254 CURVE SMOOTH",
"428 135 OFFCURVE",
"383 68 OFFCURVE",
"294 68 CURVE SMOOTH"
);
}
);
width = 573;
},
{
anchors = (
{
name = bottom;
position = "{287, 0}";
},
{
name = top;
position = "{287, 523}";
}
);
layerId = "2C16E7AF-C861-4509-900A-75D3055B0FF7";
paths = (
{
closed = 1;
nodes = (
"158 -206 LINE SMOOTH",
"200 -206 OFFCURVE",
"218 -195 OFFCURVE",
"218 -174 CURVE SMOOTH",
"218 23 LINE",
"239 8 OFFCURVE",
"273 -8 OFFCURVE",
"320 -8 CURVE SMOOTH",
"455 -8 OFFCURVE",
"531 98 OFFCURVE",
"531 261 CURVE SMOOTH",
"531 435 OFFCURVE",
"452 531 OFFCURVE",
"344 531 CURVE SMOOTH",
"282 531 OFFCURVE",
"233 499 OFFCURVE",
"210 456 CURVE",
"204 480 OFFCURVE",
"202 520 OFFCURVE",
"170 520 CURVE SMOOTH",
"145 520 OFFCURVE",
"58 512 OFFCURVE",
"58 488 CURVE SMOOTH",
"58 468 OFFCURVE",
"70 447 OFFCURVE",
"70 347 CURVE SMOOTH",
"70 -174 LINE SMOOTH",
"70 -195 OFFCURVE",
"88 -206 OFFCURVE",
"130 -206 CURVE SMOOTH"
);
},
{
closed = 1;
nodes = (
"257 109 OFFCURVE",
"234 119 OFFCURVE",
"218 128 CURVE",
"218 351 LINE",
"236 382 OFFCURVE",
"262 410 OFFCURVE",
"300 410 CURVE SMOOTH",
"355 410 OFFCURVE",
"381 358 OFFCURVE",
"381 261 CURVE SMOOTH",
"381 161 OFFCURVE",
"351 109 OFFCURVE",
"288 109 CURVE SMOOTH"
);
}
);
width = 573;
}
);
leftKerningGroup = p;
rightKerningGroup = p;
unicode = 0070;
userData = {
RMXScaler = {
source = p;
};
};
},
{
color = 11;
glyphname = thorn;
layers = (
{
layerId = UUID0;
paths = (
{
closed = 1;
nodes = (
"129 -208 LINE SMOOTH",
"157 -208 OFFCURVE",
"169 -200 OFFCURVE",
"169 -186 CURVE SMOOTH",
"169 45 LINE",
"208 15 OFFCURVE",
"250 -6 OFFCURVE",
"312 -6 CURVE SMOOTH",
"431 -6 OFFCURVE",
"515 88 OFFCURVE",
"515 260 CURVE SMOOTH",
"515 417 OFFCURVE",
"441 529 OFFCURVE",
"321 529 CURVE SMOOTH",
"267 529 OFFCURVE",
"216 507 OFFCURVE",
"169 461 CURVE",
"169 730 LINE SMOOTH",
"169 744 OFFCURVE",
"157 752 OFFCURVE",
"129 752 CURVE SMOOTH",
"125 752 LINE SMOOTH",
"97 752 OFFCURVE",
"85 744 OFFCURVE",
"85 730 CURVE SMOOTH",
"85 -186 LINE SMOOTH",
"85 -200 OFFCURVE",
"97 -208 OFFCURVE",
"125 -208 CURVE SMOOTH"
);
},
{
closed = 1;
nodes = (
"247 68 OFFCURVE",
"205 83 OFFCURVE",
"169 113 CURVE",
"169 387 LINE",
"210 432 OFFCURVE",
"260 456 OFFCURVE",
"304 456 CURVE SMOOTH",
"383 456 OFFCURVE",
"427 383 OFFCURVE",
"427 254 CURVE SMOOTH",
"427 135 OFFCURVE",
"382 68 OFFCURVE",
"293 68 CURVE SMOOTH"
);
}
);
width = 570;
},
{
layerId = "2C16E7AF-C861-4509-900A-75D3055B0FF7";
paths = (
{
closed = 1;
nodes = (
"153 -206 LINE SMOOTH",
"195 -206 OFFCURVE",
"213 -195 OFFCURVE",
"213 -174 CURVE SMOOTH",
"213 23 LINE",
"234 8 OFFCURVE",
"268 -8 OFFCURVE",
"315 -8 CURVE SMOOTH",
"450 -8 OFFCURVE",
"526 98 OFFCURVE",
"526 261 CURVE SMOOTH",
"526 435 OFFCURVE",
"447 531 OFFCURVE",
"339 531 CURVE SMOOTH",
"284 531 OFFCURVE",
"238 506 OFFCURVE",
"213 470 CURVE",
"213 722 LINE SMOOTH",
"213 743 OFFCURVE",
"195 754 OFFCURVE",
"153 754 CURVE SMOOTH",
"125 754 LINE SMOOTH",
"83 754 OFFCURVE",
"65 743 OFFCURVE",
"65 722 CURVE SMOOTH",
"65 -174 LINE SMOOTH",
"65 -195 OFFCURVE",
"83 -206 OFFCURVE",
"125 -206 CURVE SMOOTH"
);
},
{
closed = 1;
nodes = (
"252 109 OFFCURVE",
"229 119 OFFCURVE",
"213 128 CURVE",
"213 351 LINE",
"231 382 OFFCURVE",
"257 410 OFFCURVE",
"295 410 CURVE SMOOTH",
"350 410 OFFCURVE",
"376 358 OFFCURVE",
"376 261 CURVE SMOOTH",
"376 161 OFFCURVE",
"346 109 OFFCURVE",
"283 109 CURVE SMOOTH"
);
}
);
width = 570;
}
);
unicode = 00FE;
userData = {
RMXScaler = {
source = thorn;
};
};
},
{
color = 4;
glyphname = q;
layers = (
{
layerId = UUID0;
paths = (
{
closed = 1;
nodes = (
"442 -208 LINE SMOOTH",
"470 -208 OFFCURVE",
"482 -200 OFFCURVE",
"482 -186 CURVE SMOOTH",
"482 503 LINE SMOOTH",
"482 517 OFFCURVE",
"473 525 OFFCURVE",
"452 525 CURVE SMOOTH",
"448 525 LINE SMOOTH",
"434 525 OFFCURVE",
"425 522 OFFCURVE",
"421 513 CURVE SMOOTH",
"412.5 493.5 OFFCURVE",
"409 474 OFFCURVE",
"405 454 CURVE",
"356 505 OFFCURVE",
"303 529 OFFCURVE",
"246 529 CURVE SMOOTH",
"126 529 OFFCURVE",
"52 417 OFFCURVE",
"52 260 CURVE SMOOTH",
"52 88 OFFCURVE",
"136 -6 OFFCURVE",
"255 -6 CURVE SMOOTH",
"317 -6 OFFCURVE",
"359 15 OFFCURVE",
"398 45 CURVE",
"398 -186 LINE SMOOTH",
"398 -200 OFFCURVE",
"410 -208 OFFCURVE",
"438 -208 CURVE SMOOTH"
);
},
{
closed = 1;
nodes = (
"185 68 OFFCURVE",
"140 135 OFFCURVE",
"140 254 CURVE SMOOTH",
"140 383 OFFCURVE",
"184 456 OFFCURVE",
"263 456 CURVE SMOOTH",
"307 456 OFFCURVE",
"357 432 OFFCURVE",
"398 387 CURVE",
"398 113 LINE",
"362 83 OFFCURVE",
"320 68 OFFCURVE",
"274 68 CURVE SMOOTH"
);
}
);
width = 566;
},
{
layerId = "2C16E7AF-C861-4509-900A-75D3055B0FF7";
paths = (
{
closed = 1;
nodes = (
"448 -206 LINE SMOOTH",
"490 -206 OFFCURVE",
"508 -195 OFFCURVE",
"508 -174 CURVE SMOOTH",
"508 493 LINE SMOOTH",
"508 514 OFFCURVE",
"490 525 OFFCURVE",
"448 525 CURVE SMOOTH",
"436 525 LINE SMOOTH",
"404 525 OFFCURVE",
"383 521 OFFCURVE",
"378 499 CURVE SMOOTH",
"375 485 OFFCURVE",
"371 470 OFFCURVE",
"368 456 CURVE",
"345 499 OFFCURVE",
"296 531 OFFCURVE",
"234 531 CURVE SMOOTH",
"123 531 OFFCURVE",
"42 435 OFFCURVE",
"42 261 CURVE SMOOTH",
"42 98 OFFCURVE",
"120 -8 OFFCURVE",
"258 -8 CURVE SMOOTH",
"305 -8 OFFCURVE",
"339 8 OFFCURVE",
"360 23 CURVE",
"360 -174 LINE SMOOTH",
"360 -195 OFFCURVE",
"378 -206 OFFCURVE",
"420 -206 CURVE SMOOTH"
);
},
{
closed = 1;
nodes = (
"224 109 OFFCURVE",
"192 161 OFFCURVE",
"192 261 CURVE SMOOTH",
"192 358 OFFCURVE",
"220 410 OFFCURVE",
"278 410 CURVE SMOOTH",
"316 410 OFFCURVE",
"342 382 OFFCURVE",
"360 351 CURVE",
"360 128 LINE",
"344 119 OFFCURVE",
"321 109 OFFCURVE",
"290 109 CURVE SMOOTH"
);
}
);
width = 566;
}
);
leftKerningGroup = d;
unicode = 0071;
userData = {
RMXScaler = {
source = q;
};
};
},
{
color = 4;
glyphname = r;
layers = (
{
anchors = (
{
name = bottom;
position = "{134, -2}";
},
{
name = top;
position = "{132, 520}";
}
);
layerId = UUID0;
paths = (
{
closed = 1;
nodes = (
"134 -2 LINE SMOOTH",
"162 -2 OFFCURVE",
"174 6 OFFCURVE",
"174 20 CURVE SMOOTH",
"174 386 LINE",
"174 386 OFFCURVE",
"214 447 OFFCURVE",
"266 447 CURVE SMOOTH",
"300 447 OFFCURVE",
"308 436 OFFCURVE",
"321 436 CURVE SMOOTH",
"333 436 OFFCURVE",
"341 471 OFFCURVE",
"341 490 CURVE SMOOTH",
"341 512 OFFCURVE",
"322 529 OFFCURVE",
"283 529 CURVE SMOOTH",
"241 529 OFFCURVE",
"201 502 OFFCURVE",
"167 454 CURVE",
"161 480 OFFCURVE",
"156 520 OFFCURVE",
"132 520 CURVE SMOOTH",
"119 520 OFFCURVE",
"78 516 OFFCURVE",
"78 497 CURVE SMOOTH",
"78 492 OFFCURVE",
"90 453 OFFCURVE",
"90 371 CURVE SMOOTH",
"90 20 LINE SMOOTH",
"90 6 OFFCURVE",
"102 -2 OFFCURVE",
"130 -2 CURVE SMOOTH"
);
}
);
width = 366;
},
{
anchors = (
{
name = bottom;
position = "{150, -2}";
},
{
name = top;
position = "{133, 523}";
}
);
layerId = "2C16E7AF-C861-4509-900A-75D3055B0FF7";
paths = (
{
closed = 1;
nodes = (
"150 -2 LINE SMOOTH",
"192 -2 OFFCURVE",
"210 9 OFFCURVE",
"210 30 CURVE SMOOTH",
"210 351 LINE",
"222 371 OFFCURVE",
"249 401 OFFCURVE",
"290 401 CURVE SMOOTH",
"310 401 OFFCURVE",
"323 393 OFFCURVE",
"337 393 CURVE SMOOTH",
"357 393 OFFCURVE",
"368 458 OFFCURVE",
"368 477 CURVE SMOOTH",
"368 497 OFFCURVE",
"360 531 OFFCURVE",
"311 531 CURVE SMOOTH",
"253 531 OFFCURVE",
"223 493 OFFCURVE",
"202 455 CURVE",
"196 480 OFFCURVE",
"194 520 OFFCURVE",
"162 520 CURVE SMOOTH",
"137 520 OFFCURVE",
"50 512 OFFCURVE",
"50 488 CURVE SMOOTH",
"50 468 OFFCURVE",
"62 447 OFFCURVE",
"62 347 CURVE SMOOTH",
"62 30 LINE SMOOTH",
"62 9 OFFCURVE",
"80 -2 OFFCURVE",
"122 -2 CURVE SMOOTH"
);
}
);
width = 366;
}
);
leftKerningGroup = r;
rightKerningGroup = r;
unicode = 0072;
userData = {
RMXScaler = {
source = r;
};
};
},
{
color = 4;
glyphname = s;
layers = (
{
anchors = (
{
name = bottom;
position = "{207, 0}";
},
{
name = top;
position = "{207, 523}";
}
);
background = {
paths = (
{
closed = 1;
nodes = (
"116 530 OFFCURVE",
"47 469 OFFCURVE",
"47 385 CURVE SMOOTH",
"47 310 OFFCURVE",
"78 267 OFFCURVE",
"186 235 CURVE SMOOTH",
"261 213 OFFCURVE",
"286 190 OFFCURVE",
"286 145 CURVE SMOOTH",
"286 90 OFFCURVE",
"252 64 OFFCURVE",
"188 64 CURVE SMOOTH",
"117 64 OFFCURVE",
"77 104 OFFCURVE",
"70 104 CURVE SMOOTH",
"56 104 OFFCURVE",
"35 65 OFFCURVE",
"35 54 CURVE SMOOTH",
"35 31 OFFCURVE",
"103 -9 OFFCURVE",
"194 -9 CURVE SMOOTH",
"293 -9 OFFCURVE",
"371 57 OFFCURVE",
"371 147 CURVE SMOOTH",
"371 238 OFFCURVE",
"334 271 OFFCURVE",
"211 309 CURVE SMOOTH",
"155 326 OFFCURVE",
"133 351 OFFCURVE",
"133 396 CURVE SMOOTH",
"133 435 OFFCURVE",
"172 459 OFFCURVE",
"222 459 CURVE SMOOTH",
"276 459 OFFCURVE",
"308 433 OFFCURVE",
"313 433 CURVE SMOOTH",
"326 433 OFFCURVE",
"345 471 OFFCURVE",
"345 487 CURVE SMOOTH",
"345 509 OFFCURVE",
"281 530 OFFCURVE",
"213 530 CURVE SMOOTH"
);
}
);
};
layerId = UUID0;
paths = (
{
closed = 1;
nodes = (
"293 -9 OFFCURVE",
"371 57 OFFCURVE",
"371 147 CURVE SMOOTH",
"371 238 OFFCURVE",
"334 271 OFFCURVE",
"211 309 CURVE SMOOTH",
"155 326 OFFCURVE",
"133 351 OFFCURVE",
"133 396 CURVE SMOOTH",
"133 435 OFFCURVE",
"172 459 OFFCURVE",
"222 459 CURVE SMOOTH",
"276 459 OFFCURVE",
"308 433 OFFCURVE",
"313 433 CURVE SMOOTH",
"326 433 OFFCURVE",
"345 471 OFFCURVE",
"345 487 CURVE SMOOTH",
"345 509 OFFCURVE",
"281 530 OFFCURVE",
"213 530 CURVE SMOOTH",
"116 530 OFFCURVE",
"47 469 OFFCURVE",
"47 385 CURVE SMOOTH",
"47 310 OFFCURVE",
"78 267 OFFCURVE",
"186 235 CURVE SMOOTH",
"261 213 OFFCURVE",
"286 190 OFFCURVE",
"286 145 CURVE SMOOTH",
"286 90 OFFCURVE",
"252 64 OFFCURVE",
"188 64 CURVE SMOOTH",
"117 64 OFFCURVE",
"77 104 OFFCURVE",
"70 104 CURVE SMOOTH",
"56 104 OFFCURVE",
"35 65 OFFCURVE",
"35 54 CURVE SMOOTH",
"35 31 OFFCURVE",
"103 -9 OFFCURVE",
"194 -9 CURVE SMOOTH"
);
}
);
width = 413;
},
{
anchors = (
{
name = bottom;
position = "{207, 0}";
},
{
name = top;
position = "{207, 523}";
}
);
layerId = "2C16E7AF-C861-4509-900A-75D3055B0FF7";
paths = (
{
closed = 1;
nodes = (
"322 -8 OFFCURVE",
"393 61 OFFCURVE",
"393 163 CURVE SMOOTH",
"393 242 OFFCURVE",
"351 279 OFFCURVE",
"306 301 CURVE SMOOTH",
"253.5 326.5 OFFCURVE",
"193 336 OFFCURVE",
"193 380 CURVE SMOOTH",
"193 405 OFFCURVE",
"213 415 OFFCURVE",
"246 415 CURVE SMOOTH",
"293 415 OFFCURVE",
"321 394 OFFCURVE",
"332 394 CURVE SMOOTH",
"351 394 OFFCURVE",
"375 451 OFFCURVE",
"375 473 CURVE SMOOTH",
"375 515 OFFCURVE",
"283 531 OFFCURVE",
"225 531 CURVE SMOOTH",
"114 531 OFFCURVE",
"43 471 OFFCURVE",
"43 367 CURVE SMOOTH",
"43 267 OFFCURVE",
"108 236 OFFCURVE",
"157 217 CURVE SMOOTH",
"202 199.5 OFFCURVE",
"243 189 OFFCURVE",
"243 151 CURVE SMOOTH",
"243 124 OFFCURVE",
"223 109 OFFCURVE",
"185 109 CURVE SMOOTH",
"132 109 OFFCURVE",
"99 137 OFFCURVE",
"84 137 CURVE SMOOTH",
"64 137 OFFCURVE",
"31 86 OFFCURVE",
"31 60 CURVE SMOOTH",
"31 17 OFFCURVE",
"122 -8 OFFCURVE",
"197 -8 CURVE SMOOTH"
);
}
);
width = 413;
}
);
leftKerningGroup = s;
rightKerningGroup = s;
unicode = 0073;
userData = {
RMXScaler = {
source = s;
};
};
},
{
color = 11;
glyphname = germandbls;
layers = (
{
layerId = UUID0;
paths = (
{
closed = 1;
nodes = (
"134 -2 LINE SMOOTH",
"162 -2 OFFCURVE",
"174 6 OFFCURVE",
"174 20 CURVE SMOOTH",
"174 521 LINE SMOOTH",
"174 591 OFFCURVE",
"217 634 OFFCURVE",
"285 634 CURVE SMOOTH",
"338 634 OFFCURVE",
"396 614 OFFCURVE",
"396 528 CURVE SMOOTH",
"396 463 OFFCURVE",
"338 412 OFFCURVE",
"277 412 CURVE SMOOTH",
"267 412 LINE SMOOTH",
"253 412 OFFCURVE",
"247 403 OFFCURVE",
"247 382 CURVE SMOOTH",
"247 370 LINE SMOOTH",
"247 349 OFFCURVE",
"253 340 OFFCURVE",
"267 340 CURVE SMOOTH",
"300 340 LINE SMOOTH",
"370 340 OFFCURVE",
"426 290 OFFCURVE",
"426 206 CURVE SMOOTH",
"426 121 OFFCURVE",
"370 72 OFFCURVE",
"300 72 CURVE SMOOTH",
"267 72 LINE SMOOTH",
"253 72 OFFCURVE",
"247 63 OFFCURVE",
"247 42 CURVE SMOOTH",
"247 30 LINE SMOOTH",
"247 9 OFFCURVE",
"253 0 OFFCURVE",
"267 0 CURVE SMOOTH",
"299 0 LINE SMOOTH",
"418 0 OFFCURVE",
"514 72 OFFCURVE",
"514 206 CURVE SMOOTH",
"514 292 OFFCURVE",
"468 364 OFFCURVE",
"383 384 CURVE",
"383 387 LINE",
"444 413 OFFCURVE",
"485 478 OFFCURVE",
"485 536 CURVE SMOOTH",
"485 663 OFFCURVE",
"396 706 OFFCURVE",
"287 706 CURVE SMOOTH",
"168 706 OFFCURVE",
"90 630 OFFCURVE",
"90 521 CURVE SMOOTH",
"90 20 LINE SMOOTH",
"90 6 OFFCURVE",
"102 -2 OFFCURVE",
"130 -2 CURVE SMOOTH"
);
}
);
width = 554;
},
{
layerId = "2C16E7AF-C861-4509-900A-75D3055B0FF7";
paths = (
{
closed = 1;
nodes = (
"146 -2 LINE SMOOTH",
"188 -2 OFFCURVE",
"206 9 OFFCURVE",
"206 30 CURVE SMOOTH",
"206 502 LINE SMOOTH",
"206 549 OFFCURVE",
"236 583 OFFCURVE",
"285 583 CURVE SMOOTH",
"338 583 OFFCURVE",
"358 541 OFFCURVE",
"358 511 CURVE SMOOTH",
"358 465 OFFCURVE",
"326 428 OFFCURVE",
"276 428 CURVE",
"273 428 LINE",
"255 428 OFFCURVE",
"246 411 OFFCURVE",
"246 378 CURVE SMOOTH",
"246 361 LINE SMOOTH",
"246 326 OFFCURVE",
"255 311 OFFCURVE",
"276 311 CURVE",
"278 311 LINE",
"344 311 OFFCURVE",
"383 270 OFFCURVE",
"383 210 CURVE SMOOTH",
"383 154 OFFCURVE",
"346 117 OFFCURVE",
"290 117 CURVE SMOOTH",
"276 117 LINE SMOOTH",
"255 117 OFFCURVE",
"246 102 OFFCURVE",
"246 67 CURVE SMOOTH",
"246 50 LINE SMOOTH",
"246 15 OFFCURVE",
"255 0 OFFCURVE",
"276 0 CURVE SMOOTH",
"299 0 LINE SMOOTH",
"444 0 OFFCURVE",
"533 90 OFFCURVE",
"533 210 CURVE SMOOTH",
"533 296 OFFCURVE",
"498 351 OFFCURVE",
"415 383 CURVE",
"415 387 LINE",
"476 412 OFFCURVE",
"508 464 OFFCURVE",
"508 530 CURVE SMOOTH",
"508 641 OFFCURVE",
"413 708 OFFCURVE",
"287 708 CURVE SMOOTH",
"154 708 OFFCURVE",
"58 623 OFFCURVE",
"58 490 CURVE SMOOTH",
"58 30 LINE SMOOTH",
"58 9 OFFCURVE",
"76 -2 OFFCURVE",
"118 -2 CURVE SMOOTH"
);
}
);
width = 554;
}
);
unicode = 00DF;
userData = {
RMXScaler = {
source = germandbls;
};
};
},
{
color = 11;
glyphname = longs;
layers = (
{
layerId = UUID0;
paths = (
{
closed = 1;
nodes = (
"152 -2 LINE SMOOTH",
"180 -2 OFFCURVE",
"192 6 OFFCURVE",
"192 20 CURVE",
"192 610 LINE",
"192 676 OFFCURVE",
"217 684 OFFCURVE",
"246 684 CURVE SMOOTH",
"275 684 OFFCURVE",
"280 679 OFFCURVE",
"289 679 CURVE SMOOTH",
"303 679 OFFCURVE",
"310 718 OFFCURVE",
"310 726 CURVE SMOOTH",
"310 753 OFFCURVE",
"264 756 OFFCURVE",
"237 756 CURVE SMOOTH",
"187 756 OFFCURVE",
"108 737 OFFCURVE",
"108 618 CURVE SMOOTH",
"108 523 LINE",
"68 523 LINE SMOOTH",
"54 523 OFFCURVE",
"48 514 OFFCURVE",
"48 493 CURVE SMOOTH",
"48 481 LINE SMOOTH",
"48 460 OFFCURVE",
"54 451 OFFCURVE",
"68 451 CURVE SMOOTH",
"108 451 LINE",
"108 20 LINE SMOOTH",
"108 6 OFFCURVE",
"120 -2 OFFCURVE",
"148 -2 CURVE SMOOTH"
);
}
);
width = 325;
},
{
layerId = "2C16E7AF-C861-4509-900A-75D3055B0FF7";
paths = (
{
closed = 1;
nodes = (
"167 -2 LINE SMOOTH",
"209 -2 OFFCURVE",
"227 9 OFFCURVE",
"227 30 CURVE",
"227 600 LINE",
"227 630 OFFCURVE",
"237 643 OFFCURVE",
"263 643 CURVE SMOOTH",
"273 643 OFFCURVE",
"287 639 OFFCURVE",
"294 639 CURVE SMOOTH",
"314 639 OFFCURVE",
"325 703 OFFCURVE",
"325 711 CURVE SMOOTH",
"325 757 OFFCURVE",
"257 760 OFFCURVE",
"225 760 CURVE SMOOTH",
"131 760 OFFCURVE",
"79 709 OFFCURVE",
"79 598 CURVE SMOOTH",
"79 523 LINE",
"61 523 LINE SMOOTH",
"40 523 OFFCURVE",
"31 508 OFFCURVE",
"31 473 CURVE SMOOTH",
"31 456 LINE SMOOTH",
"31 421 OFFCURVE",
"40 406 OFFCURVE",
"61 406 CURVE SMOOTH",
"79 406 LINE",
"79 30 LINE SMOOTH",
"79 9 OFFCURVE",
"97 -2 OFFCURVE",
"139 -2 CURVE SMOOTH"
);
}
);
width = 325;
}
);
rightKerningGroup = f;
unicode = 017F;
userData = {
RMXScaler = {
source = longs;
};
};
},
{
color = 4;
glyphname = t;
layers = (
{
anchors = (
{
name = bottom;
position = "{216, 0}";
},
{
name = caron;
position = "{186, 752}";
},
{
name = center;
position = "{171, 292}";
}
);
layerId = UUID0;
paths = (
{
closed = 1;
nodes = (
"263 -6 OFFCURVE",
"309 -3 OFFCURVE",
"309 24 CURVE SMOOTH",
"309 32 OFFCURVE",
"302 71 OFFCURVE",
"288 71 CURVE SMOOTH",
"279 71 OFFCURVE",
"274 66 OFFCURVE",
"245 66 CURVE SMOOTH",
"216 66 OFFCURVE",
"191 80 OFFCURVE",
"191 140 CURVE SMOOTH",
"191 451 LINE",
"275 451 LINE SMOOTH",
"289 451 OFFCURVE",
"295 460 OFFCURVE",
"295 481 CURVE SMOOTH",
"295 493 LINE SMOOTH",
"295 514 OFFCURVE",
"289 523 OFFCURVE",
"275 523 CURVE SMOOTH",
"191 523 LINE",
"191 628 LINE SMOOTH",
"191 642 OFFCURVE",
"182 650 OFFCURVE",
"161 650 CURVE SMOOTH",
"151 650 LINE SMOOTH",
"130 650 OFFCURVE",
"120.5 642 OFFCURVE",
"119 628 CURVE SMOOTH",
"107 523 LINE",
"57 523 LINE SMOOTH",
"43 523 OFFCURVE",
"37 514 OFFCURVE",
"37 493 CURVE SMOOTH",
"37 481 LINE SMOOTH",
"37 460 OFFCURVE",
"43 451 OFFCURVE",
"57 451 CURVE SMOOTH",
"107 451 LINE",
"107 132 LINE SMOOTH",
"107 16 OFFCURVE",
"186 -6 OFFCURVE",
"236 -6 CURVE SMOOTH"
);
}
);
width = 342;
},
{
anchors = (
{
name = bottom;
position = "{201, 0}";
},
{
name = caron;
position = "{210, 752}";
},
{
name = center;
position = "{169, 292}";
}
);
layerId = "2C16E7AF-C861-4509-900A-75D3055B0FF7";
paths = (
{
closed = 1;
nodes = (
"254 -8 OFFCURVE",
"319 -5 OFFCURVE",
"319 41 CURVE SMOOTH",
"319 49 OFFCURVE",
"308 113 OFFCURVE",
"288 113 CURVE SMOOTH",
"282 113 OFFCURVE",
"270 109 OFFCURVE",
"261 109 CURVE SMOOTH",
"235 109 OFFCURVE",
"225 122 OFFCURVE",
"225 152 CURVE SMOOTH",
"225 406 LINE",
"274 406 LINE SMOOTH",
"295 406 OFFCURVE",
"304 421 OFFCURVE",
"304 456 CURVE SMOOTH",
"304 473 LINE SMOOTH",
"304 508 OFFCURVE",
"295 523 OFFCURVE",
"274 523 CURVE SMOOTH",
"225 523 LINE",
"225 618 LINE SMOOTH",
"225 639 OFFCURVE",
"210 650 OFFCURVE",
"175 650 CURVE SMOOTH",
"144 650 LINE SMOOTH",
"111 650 OFFCURVE",
"93 639 OFFCURVE",
"90 618 CURVE SMOOTH",
"77 523 LINE",
"61 523 LINE SMOOTH",
"40 523 OFFCURVE",
"31 508 OFFCURVE",
"31 473 CURVE SMOOTH",
"31 456 LINE SMOOTH",
"31 421 OFFCURVE",
"40 406 OFFCURVE",
"61 406 CURVE SMOOTH",
"77 406 LINE",
"77 154 LINE SMOOTH",
"77 43 OFFCURVE",
"129 -8 OFFCURVE",
"223 -8 CURVE SMOOTH"
);
}
);
width = 342;
}
);
leftKerningGroup = t;
rightKerningGroup = t;
unicode = 0074;
userData = {
RMXScaler = {
source = t;
};
};
},
{
color = 4;
glyphname = u;
layers = (
{
anchors = (
{
name = bottom;
position = "{251, 0}";
},
{
name = horn;
position = "{427, 525}";
},
{
name = ogonek;
position = "{468, 10}";
},
{
name = top;
position = "{279, 523}";
}
);
hints = (
{
horizontal = 1;
origin = "{0, 38}";
target = "{0, 23}";
},
{
horizontal = 1;
origin = "{0, 31}";
target = down;
type = TopGhost;
},
{
horizontal = 1;
origin = "{0, 5}";
target = up;
type = BottomGhost;
},
{
origin = "{0, 35}";
target = "{0, 26}";
},
{
origin = "{0, 20}";
target = "{0, 11}";
}
);
layerId = UUID0;
paths = (
{
closed = 1;
nodes = (
"294 -6 OFFCURVE",
"352 22 OFFCURVE",
"394 69 CURVE",
"400 41 OFFCURVE",
"405 -1 OFFCURVE",
"429 -1 CURVE SMOOTH",
"442 -1 OFFCURVE",
"483 3 OFFCURVE",
"483 22 CURVE SMOOTH",
"483 27 OFFCURVE",
"471 66 OFFCURVE",
"471 148 CURVE SMOOTH",
"471 503 LINE SMOOTH",
"471 517 OFFCURVE",
"459 525 OFFCURVE",
"431 525 CURVE SMOOTH",
"427 525 LINE SMOOTH",
"399 525 OFFCURVE",
"387 517 OFFCURVE",
"387 503 CURVE SMOOTH",
"387 137 LINE",
"354 94 OFFCURVE",
"306 67 OFFCURVE",
"261 67 CURVE SMOOTH",
"196 67 OFFCURVE",
"159 103 OFFCURVE",
"159 164 CURVE SMOOTH",
"159 503 LINE SMOOTH",
"159 517 OFFCURVE",
"147 525 OFFCURVE",
"119 525 CURVE SMOOTH",
"115 525 LINE SMOOTH",
"87 525 OFFCURVE",
"75 517 OFFCURVE",
"75 503 CURVE SMOOTH",
"75 156 LINE SMOOTH",
"75 55 OFFCURVE",
"136 -6 OFFCURVE",
"238 -6 CURVE SMOOTH"
);
}
);
width = 557;
},
{
anchors = (
{
name = bottom;
position = "{251, 0}";
},
{
name = horn;
position = "{407, 525}";
},
{
name = ogonek;
position = "{454, 10}";
},
{
name = top;
position = "{279, 523}";
}
);
hints = (
{
horizontal = 1;
origin = "{0, 5}";
target = up;
type = BottomGhost;
},
{
horizontal = 1;
origin = "{0, 31}";
target = down;
type = TopGhost;
},
{
horizontal = 1;
origin = "{0, 38}";
target = "{0, 23}";
},
{
origin = "{0, 35}";
target = "{0, 26}";
},
{
origin = "{0, 20}";
target = "{0, 11}";
}
);
layerId = "2C16E7AF-C861-4509-900A-75D3055B0FF7";
paths = (
{
closed = 1;
nodes = (
"271 -8 OFFCURVE",
"326 30 OFFCURVE",
"355 68 CURVE",
"361 41 OFFCURVE",
"363 -1 OFFCURVE",
"395 -1 CURVE SMOOTH",
"420 -1 OFFCURVE",
"507 7 OFFCURVE",
"507 31 CURVE SMOOTH",
"507 52 OFFCURVE",
"495 73 OFFCURVE",
"495 176 CURVE SMOOTH",
"495 493 LINE SMOOTH",
"495 514 OFFCURVE",
"477 525 OFFCURVE",
"435 525 CURVE SMOOTH",
"407 525 LINE SMOOTH",
"365 525 OFFCURVE",
"347 514 OFFCURVE",
"347 493 CURVE SMOOTH",
"347 172 LINE",
"335 149 OFFCURVE",
"308 114 OFFCURVE",
"267 114 CURVE SMOOTH",
"223 114 OFFCURVE",
"207 137 OFFCURVE",
"207 176 CURVE SMOOTH",
"207 493 LINE SMOOTH",
"207 514 OFFCURVE",
"189 525 OFFCURVE",
"147 525 CURVE SMOOTH",
"119 525 LINE SMOOTH",
"77 525 OFFCURVE",
"59 514 OFFCURVE",
"59 493 CURVE SMOOTH",
"59 154 LINE SMOOTH",
"59 43 OFFCURVE",
"106 -8 OFFCURVE",
"206 -8 CURVE SMOOTH"
);
}
);
width = 557;
}
);
leftKerningGroup = u;
rightKerningGroup = u;
unicode = 0075;
userData = {
RMXScaler = {
source = u;
};
};
},
{
color = 11;
glyphname = uhorn;
layers = (
{
anchors = (
{
name = bottom;
position = "{251, 0}";
},
{
name = ogonek;
position = "{468, 10}";
},
{
name = top;
position = "{279, 523}";
}
);
layerId = UUID0;
paths = (
{
closed = 1;
nodes = (
"578 611 OFFCURVE",
"558 656 OFFCURVE",
"535 656 CURVE SMOOTH",
"531 656 OFFCURVE",
"527 655 OFFCURVE",
"523 652 CURVE",
"499 636 LINE SMOOTH",
"493 632 OFFCURVE",
"490 626 OFFCURVE",
"490 620 CURVE SMOOTH",
"490 608 OFFCURVE",
"517 588 OFFCURVE",
"517 558 CURVE SMOOTH",
"517 542 OFFCURVE",
"505 525 OFFCURVE",
"462 525 CURVE SMOOTH",
"427 525 LINE SMOOTH",
"399 525 OFFCURVE",
"387 517 OFFCURVE",
"387 503 CURVE SMOOTH",
"387 137 LINE",
"354 94 OFFCURVE",
"306 67 OFFCURVE",
"261 67 CURVE SMOOTH",
"196 67 OFFCURVE",
"159 103 OFFCURVE",
"159 164 CURVE SMOOTH",
"159 503 LINE SMOOTH",
"159 517 OFFCURVE",
"147 525 OFFCURVE",
"119 525 CURVE SMOOTH",
"115 525 LINE SMOOTH",
"87 525 OFFCURVE",
"75 517 OFFCURVE",
"75 503 CURVE SMOOTH",
"75 156 LINE SMOOTH",
"75 55 OFFCURVE",
"136 -6 OFFCURVE",
"238 -6 CURVE SMOOTH",
"294 -6 OFFCURVE",
"352 22 OFFCURVE",
"394 69 CURVE",
"400 41 OFFCURVE",
"405 -1 OFFCURVE",
"429 -1 CURVE SMOOTH",
"442 -1 OFFCURVE",
"483 3 OFFCURVE",
"483 22 CURVE SMOOTH",
"483 27 OFFCURVE",
"471 66 OFFCURVE",
"471 148 CURVE SMOOTH",
"471 492 LINE",
"545 494 OFFCURVE",
"578 530 OFFCURVE",
"578 582 CURVE SMOOTH"
);
}
);
width = 557;
},
{
anchors = (
{
name = bottom;
position = "{251, 0}";
},
{
name = ogonek;
position = "{454, 10}";
},
{
name = top;
position = "{279, 523}";
}
);
layerId = "2C16E7AF-C861-4509-900A-75D3055B0FF7";
paths = (
{
closed = 1;
nodes = (
"592 606 OFFCURVE",
"571 659 OFFCURVE",
"545 659 CURVE SMOOTH",
"539 659 OFFCURVE",
"534 658 OFFCURVE",
"529 654 CURVE",
"497 632 LINE",
"489 627 OFFCURVE",
"486 620 OFFCURVE",
"486 613 CURVE SMOOTH",
"486 600 OFFCURVE",
"512 583 OFFCURVE",
"512 561 CURVE SMOOTH",
"512 538 OFFCURVE",
"499 525 OFFCURVE",
"465 525 CURVE SMOOTH",
"407 525 LINE SMOOTH",
"365 525 OFFCURVE",
"347 514 OFFCURVE",
"347 493 CURVE SMOOTH",
"347 172 LINE",
"335 149 OFFCURVE",
"308 114 OFFCURVE",
"267 114 CURVE SMOOTH",
"223 114 OFFCURVE",
"207 137 OFFCURVE",
"207 176 CURVE SMOOTH",
"207 493 LINE SMOOTH",
"207 514 OFFCURVE",
"189 525 OFFCURVE",
"147 525 CURVE SMOOTH",
"119 525 LINE SMOOTH",
"77 525 OFFCURVE",
"59 514 OFFCURVE",
"59 493 CURVE SMOOTH",
"59 154 LINE SMOOTH",
"59 43 OFFCURVE",
"106 -8 OFFCURVE",
"206 -8 CURVE SMOOTH",
"271 -8 OFFCURVE",
"326 30 OFFCURVE",
"355 68 CURVE",
"361 41 OFFCURVE",
"363 -1 OFFCURVE",
"395 -1 CURVE SMOOTH",
"420 -1 OFFCURVE",
"507 7 OFFCURVE",
"507 31 CURVE SMOOTH",
"507 52 OFFCURVE",
"495 73 OFFCURVE",
"495 176 CURVE SMOOTH",
"495 484 LINE",
"562 493 OFFCURVE",
"592 527 OFFCURVE",
"592 576 CURVE SMOOTH"
);
}
);
width = 557;
}
);
leftKerningGroup = u;
rightKerningGroup = uhorn;
unicode = 01B0;
userData = {
RMXScaler = {
source = uhorn;
};
};
},
{
color = 11;
glyphname = uhorntilde;
layers = (
{
components = (
{
alignment = 1;
name = uhorn;
}
);
layerId = UUID0;
paths = (
{
closed = 1;
nodes = (
"133.05 591 OFFCURVE",
"135.9 590 OFFCURVE",
"138.75 590 CURVE SMOOTH",
"144.45 590 OFFCURVE",
"148.25 594 OFFCURVE",
"153.95 604 CURVE SMOOTH",
"166.3 626 OFFCURVE",
"175.8 634 OFFCURVE",
"190.05 634 CURVE SMOOTH",
"230.9 634 OFFCURVE",
"289.8 591 OFFCURVE",
"343 591 CURVE SMOOTH",
"377.2 591 OFFCURVE",
"402.85 609 OFFCURVE",
"421.85 659 CURVE SMOOTH",
"424.7 665 OFFCURVE",
"425.65 669 OFFCURVE",
"425.65 673 CURVE SMOOTH",
"425.65 679 OFFCURVE",
"422.8 682 OFFCURVE",
"415.2 685 CURVE SMOOTH",
"408.55 688 LINE SMOOTH",
"405.7 690 OFFCURVE",
"402.85 691 OFFCURVE",
"400 691 CURVE SMOOTH",
"394.3 691 OFFCURVE",
"388.6 687 OFFCURVE",
"382.9 676 CURVE SMOOTH",
"370.55 654 OFFCURVE",
"360.1 647 OFFCURVE",
"344.9 647 CURVE SMOOTH",
"304.05 647 OFFCURVE",
"245.15 690 OFFCURVE",
"194.8 690 CURVE SMOOTH",
"159.65 690 OFFCURVE",
"134 672 OFFCURVE",
"115 621 CURVE SMOOTH",
"113.1 616 OFFCURVE",
"112.15 612 OFFCURVE",
"112.15 608 CURVE SMOOTH",
"112.15 603 OFFCURVE",
"115 599 OFFCURVE",
"120.7 596 CURVE SMOOTH",
"129.25 592 LINE SMOOTH"
);
}
);
width = 557;
},
{
components = (
{
alignment = 1;
name = uhorn;
}
);
layerId = "2C16E7AF-C861-4509-900A-75D3055B0FF7";
paths = (
{
closed = 1;
nodes = (
"150.2 579 OFFCURVE",
"154.12 578 OFFCURVE",
"158.04 578 CURVE SMOOTH",
"165.88 578 OFFCURVE",
"173.72 582 OFFCURVE",
"182.54 595 CURVE SMOOTH",
"193.32 609 OFFCURVE",
"204.1 611 OFFCURVE",
"211.94 611 CURVE SMOOTH",
"241.34 609 OFFCURVE",
"307 582 OFFCURVE",
"337.38 582 CURVE SMOOTH",
"388.34 582 OFFCURVE",
"422.64 616 OFFCURVE",
"434.4 652 CURVE SMOOTH",
"436.36 656 OFFCURVE",
"437.34 661 OFFCURVE",
"437.34 666 CURVE SMOOTH",
"437.34 677 OFFCURVE",
"432.44 688 OFFCURVE",
"416.76 693 CURVE SMOOTH",
"406.96 696 LINE SMOOTH",
"403.04 698 OFFCURVE",
"399.12 698 OFFCURVE",
"396.18 698 CURVE SMOOTH",
"388.34 698 OFFCURVE",
"380.5 694 OFFCURVE",
"370.7 681 CURVE SMOOTH",
"359.92 667 OFFCURVE",
"349.14 665 OFFCURVE",
"341.3 665 CURVE SMOOTH",
"311.9 667 OFFCURVE",
"246.24 694 OFFCURVE",
"215.86 694 CURVE SMOOTH",
"164.9 694 OFFCURVE",
"130.6 660 OFFCURVE",
"118.84 624 CURVE SMOOTH",
"117.86 620 OFFCURVE",
"116.88 615 OFFCURVE",
"116.88 610 CURVE SMOOTH",
"116.88 599 OFFCURVE",
"121.78 588 OFFCURVE",
"136.48 583 CURVE SMOOTH",
"146.28 580 LINE SMOOTH"
);
}
);
width = 557;
}
);
leftKerningGroup = u;
rightKerningGroup = uhorn;
unicode = 1EEF;
userData = {
RMXScaler = {
source = uhorntilde;
};
};
},
{
color = 4;
glyphname = v;
layers = (
{
layerId = UUID0;
paths = (
{
closed = 1;
nodes = (
"260 -2 LINE SMOOTH",
"280 -2 OFFCURVE",
"296 2 OFFCURVE",
"300 14 CURVE SMOOTH",
"461 494 LINE SMOOTH",
"463 500 OFFCURVE",
"464 504 OFFCURVE",
"464 508 CURVE SMOOTH",
"464 519 OFFCURVE",
"453 525 OFFCURVE",
"427 525 CURVE",
"424 525 LINE",
"403 525 OFFCURVE",
"387 521 OFFCURVE",
"383 509 CURVE SMOOTH",
"280 188 LINE SMOOTH",
"268 150 OFFCURVE",
"258 99 OFFCURVE",
"250 65 CURVE",
"246 65 LINE",
"237 99 OFFCURVE",
"224 150 OFFCURVE",
"211 190 CURVE SMOOTH",
"109 509 LINE SMOOTH",
"105 521 OFFCURVE",
"89 525 OFFCURVE",
"69 525 CURVE SMOOTH",
"64 525 LINE SMOOTH",
"34 525 OFFCURVE",
"21 518 OFFCURVE",
"21 508 CURVE SMOOTH",
"21 504 OFFCURVE",
"23 498 OFFCURVE",
"24 495 CURVE SMOOTH",
"185 14 LINE SMOOTH",
"189 2 OFFCURVE",
"205 -2 OFFCURVE",
"225 -2 CURVE SMOOTH"
);
}
);
width = 485;
},
{
layerId = "2C16E7AF-C861-4509-900A-75D3055B0FF7";
paths = (
{
closed = 1;
nodes = (
"258 -2 LINE SMOOTH",
"287 -2 OFFCURVE",
"308.5 3 OFFCURVE",
"314 19 CURVE SMOOTH",
"473 485 LINE SMOOTH",
"475 492 OFFCURVE",
"476 498 OFFCURVE",
"476 503 CURVE SMOOTH",
"476 517 OFFCURVE",
"458 525 OFFCURVE",
"416 525 CURVE SMOOTH",
"391 525 LINE SMOOTH",
"362 525 OFFCURVE",
"340 520 OFFCURVE",
"335 504 CURVE SMOOTH",
"276 319 LINE SMOOTH",
"269 296 OFFCURVE",
"257 242 OFFCURVE",
"248 198 CURVE",
"244 198 LINE",
"234 242 OFFCURVE",
"223.5 295 OFFCURVE",
"216 319 CURVE SMOOTH",
"157 504 LINE SMOOTH",
"152 520 OFFCURVE",
"130 525 OFFCURVE",
"101 525 CURVE SMOOTH",
"68 525 LINE SMOOTH",
"26 525 OFFCURVE",
"7 517 OFFCURVE",
"7 503 CURVE SMOOTH",
"7 498 OFFCURVE",
"9 492 OFFCURVE",
"11 485 CURVE SMOOTH",
"170 19 LINE SMOOTH",
"175.5 3 OFFCURVE",
"197 -2 OFFCURVE",
"226 -2 CURVE SMOOTH"
);
}
);
width = 485;
}
);
leftKerningGroup = v;
rightKerningGroup = v;
unicode = 0076;
userData = {
RMXScaler = {
source = v;
};
};
},
{
color = 4;
glyphname = w;
layers = (
{
anchors = (
{
name = top;
position = "{374, 523}";
}
);
layerId = UUID0;
paths = (
{
closed = 1;
nodes = (
"237 -2 LINE SMOOTH",
"257 -2 OFFCURVE",
"274 2 OFFCURVE",
"277 14 CURVE SMOOTH",
"359 332 LINE SMOOTH",
"364 349 OFFCURVE",
"368 380 OFFCURVE",
"373 410 CURVE",
"375 410 LINE",
"380 380 OFFCURVE",
"384 348 OFFCURVE",
"389 331 CURVE SMOOTH",
"469 14 LINE SMOOTH",
"472 2 OFFCURVE",
"488 -2 OFFCURVE",
"508 -2 CURVE SMOOTH",
"538 -2 LINE SMOOTH",
"558 -2 OFFCURVE",
"575 2 OFFCURVE",
"578 14 CURVE SMOOTH",
"712 494 LINE SMOOTH",
"714 500 OFFCURVE",
"715 504 OFFCURVE",
"715 508 CURVE SMOOTH",
"715 519 OFFCURVE",
"702 525 OFFCURVE",
"675 525 CURVE SMOOTH",
"655 525 OFFCURVE",
"637 521 OFFCURVE",
"634 509 CURVE SMOOTH",
"550 188 LINE SMOOTH",
"542 159 OFFCURVE",
"535 108 OFFCURVE",
"528 72 CURVE",
"526 72 LINE",
"520 106 OFFCURVE",
"516 136 OFFCURVE",
"502 190 CURVE SMOOTH",
"418 508 LINE SMOOTH",
"415 521 OFFCURVE",
"399 525 OFFCURVE",
"379 525 CURVE SMOOTH",
"372 525 LINE SMOOTH",
"352 525 OFFCURVE",
"336 521 OFFCURVE",
"333 508 CURVE SMOOTH",
"250 190 LINE SMOOTH",
"243 163 OFFCURVE",
"234 113 OFFCURVE",
"227 74 CURVE",
"223 74 LINE",
"215 112 OFFCURVE",
"206 167 OFFCURVE",
"200 189 CURVE SMOOTH",
"116 509 LINE SMOOTH",
"113 521 OFFCURVE",
"96 525 OFFCURVE",
"76 525 CURVE SMOOTH",
"43 525 OFFCURVE",
"30 518 OFFCURVE",
"30 508 CURVE SMOOTH",
"30 504 OFFCURVE",
"33 494 OFFCURVE",
"35 488 CURVE SMOOTH",
"167 14 LINE",
"170 2 OFFCURVE",
"187 -2 OFFCURVE",
"207 -2 CURVE SMOOTH"
);
}
);
width = 747;
},
{
anchors = (
{
name = top;
position = "{374, 523}";
}
);
layerId = "2C16E7AF-C861-4509-900A-75D3055B0FF7";
paths = (
{
closed = 1;
nodes = (
"250 -2 LINE SMOOTH",
"278 -2 OFFCURVE",
"302 5 OFFCURVE",
"305 19 CURVE SMOOTH",
"362 256 LINE",
"365 269 OFFCURVE",
"368 308 OFFCURVE",
"371 323 CURVE",
"375 323 LINE",
"378 309 OFFCURVE",
"381 269 OFFCURVE",
"384 257 CURVE",
"445 19 LINE SMOOTH",
"449 5 OFFCURVE",
"468 -2 OFFCURVE",
"500 -2 CURVE SMOOTH",
"549 -2 LINE SMOOTH",
"577 -2 OFFCURVE",
"601 5 OFFCURVE",
"604 19 CURVE SMOOTH",
"722 484 LINE SMOOTH",
"724 490 OFFCURVE",
"724 495 OFFCURVE",
"724 499 CURVE SMOOTH",
"724 515 OFFCURVE",
"705 525 OFFCURVE",
"662 525 CURVE SMOOTH",
"626 525 OFFCURVE",
"606 518 OFFCURVE",
"603 504 CURVE SMOOTH",
"539 240 LINE",
"535 227 OFFCURVE",
"530 186 OFFCURVE",
"526 171 CURVE",
"524 171 LINE",
"521 185 OFFCURVE",
"515 225 OFFCURVE",
"512 237 CURVE",
"448 504 LINE SMOOTH",
"445 518 OFFCURVE",
"421 525 OFFCURVE",
"393 525 CURVE SMOOTH",
"369 525 LINE SMOOTH",
"337 525 OFFCURVE",
"318 518 OFFCURVE",
"314 504 CURVE SMOOTH",
"250 243 LINE",
"247 230 OFFCURVE",
"240 190 OFFCURVE",
"237 175 CURVE",
"233 175 LINE",
"230 189 OFFCURVE",
"226 228 OFFCURVE",
"223 240 CURVE",
"159 504 LINE SMOOTH",
"155 519 OFFCURVE",
"134 525 OFFCURVE",
"80 525 CURVE SMOOTH",
"37 525 OFFCURVE",
"18 515 OFFCURVE",
"18 499 CURVE SMOOTH",
"18 495 OFFCURVE",
"18 490 OFFCURVE",
"20 484 CURVE SMOOTH",
"146 19 LINE SMOOTH",
"150 5 OFFCURVE",
"168 -2 OFFCURVE",
"201 -2 CURVE SMOOTH"
);
}
);
width = 747;
}
);
leftKerningGroup = v;
rightKerningGroup = v;
unicode = 0077;
userData = {
RMXScaler = {
source = w;
};
};
},
{
color = 4;
glyphname = x;
layers = (
{
layerId = UUID0;
paths = (
{
closed = 1;
nodes = (
"66 -2 LINE",
"86 -2 OFFCURVE",
"103 1 OFFCURVE",
"111 12 CURVE SMOOTH",
"219 172 LINE SMOOTH",
"231 190 OFFCURVE",
"236 200 OFFCURVE",
"240 207 CURVE",
"244 200 OFFCURVE",
"249 190 OFFCURVE",
"261 172 CURVE SMOOTH",
"367 13 LINE SMOOTH",
"375 1 OFFCURVE",
"389 -2 OFFCURVE",
"410 -2 CURVE SMOOTH",
"419 -2 LINE SMOOTH",
"453 -2 OFFCURVE",
"465 4 OFFCURVE",
"465 15 CURVE SMOOTH",
"465 20 OFFCURVE",
"462 26 OFFCURVE",
"457 33 CURVE SMOOTH",
"295 270 LINE",
"446 490 LINE SMOOTH",
"451 497 OFFCURVE",
"454 503 OFFCURVE",
"454 508 CURVE SMOOTH",
"454 520 OFFCURVE",
"442 525 OFFCURVE",
"412 525 CURVE",
"408 525 LINE",
"388 525 OFFCURVE",
"370 522 OFFCURVE",
"363 511 CURVE SMOOTH",
"267 367 LINE SMOOTH",
"255 349 OFFCURVE",
"250 339 OFFCURVE",
"246 332 CURVE",
"242 339 OFFCURVE",
"237 349 OFFCURVE",
"225 367 CURVE SMOOTH",
"130 510 LINE SMOOTH",
"122 522 OFFCURVE",
"108 525 OFFCURVE",
"87 525 CURVE SMOOTH",
"78 525 LINE SMOOTH",
"44 525 OFFCURVE",
"32 519 OFFCURVE",
"32 508 CURVE SMOOTH",
"32 503 OFFCURVE",
"35 497 OFFCURVE",
"40 490 CURVE SMOOTH",
"190 268 LINE",
"28 33 LINE SMOOTH",
"23 26 OFFCURVE",
"20 20 OFFCURVE",
"20 15 CURVE SMOOTH",
"20 3 OFFCURVE",
"32 -2 OFFCURVE",
"63 -2 CURVE"
);
}
);
width = 485;
},
{
layerId = "2C16E7AF-C861-4509-900A-75D3055B0FF7";
paths = (
{
closed = 1;
nodes = (
"98 -2 LINE SMOOTH",
"127 -2 OFFCURVE",
"148 -1 OFFCURVE",
"159 17 CURVE SMOOTH",
"229 127 LINE SMOOTH",
"233 134 OFFCURVE",
"238 141 OFFCURVE",
"242 148 CURVE",
"246 141 OFFCURVE",
"251 134 OFFCURVE",
"255 127 CURVE SMOOTH",
"324 17 LINE SMOOTH",
"335 -1 OFFCURVE",
"356 -2 OFFCURVE",
"385 -2 CURVE SMOOTH",
"417 -2 LINE SMOOTH",
"460 -2 OFFCURVE",
"480 5 OFFCURVE",
"480 16 CURVE SMOOTH",
"480 23 OFFCURVE",
"476 31 OFFCURVE",
"469 42 CURVE SMOOTH",
"321 266 LINE",
"467 482 LINE SMOOTH",
"474 493 OFFCURVE",
"478 501 OFFCURVE",
"478 507 CURVE SMOOTH",
"478 518 OFFCURVE",
"458 525 OFFCURVE",
"415 525 CURVE SMOOTH",
"386 525 LINE SMOOTH",
"357 525 OFFCURVE",
"336 524 OFFCURVE",
"325 506 CURVE SMOOTH",
"263 409 LINE SMOOTH",
"257 400 OFFCURVE",
"252 392 OFFCURVE",
"246 383 CURVE",
"241 391 OFFCURVE",
"236 399 OFFCURVE",
"231 407 CURVE SMOOTH",
"170 506 LINE SMOOTH",
"159 524 OFFCURVE",
"138 525 OFFCURVE",
"109 525 CURVE SMOOTH",
"77 525 LINE SMOOTH",
"34 525 OFFCURVE",
"14 518 OFFCURVE",
"14 507 CURVE SMOOTH",
"14 500 OFFCURVE",
"18 492 OFFCURVE",
"25 481 CURVE SMOOTH",
"167 265 LINE",
"16 41 LINE SMOOTH",
"9 30 OFFCURVE",
"5 22 OFFCURVE",
"5 16 CURVE SMOOTH",
"5 5 OFFCURVE",
"25 -2 OFFCURVE",
"68 -2 CURVE SMOOTH"
);
}
);
width = 485;
}
);
leftKerningGroup = x;
rightKerningGroup = x;
unicode = 0078;
userData = {
RMXScaler = {
source = x;
};
};
},
{
color = 4;
glyphname = y;
layers = (
{
anchors = (
{
name = bottom;
position = "{346, 0}";
},
{
name = top;
position = "{241, 523}";
}
);
layerId = UUID0;
paths = (
{
closed = 1;
nodes = (
"155 -208 LINE SMOOTH",
"179 -208 OFFCURVE",
"196 -202 OFFCURVE",
"202 -187 CURVE SMOOTH",
"459 494 LINE SMOOTH",
"461 500 OFFCURVE",
"462 504 OFFCURVE",
"462 508 CURVE SMOOTH",
"462 519 OFFCURVE",
"450 525 OFFCURVE",
"422 525 CURVE",
"419 525 LINE",
"398 525 OFFCURVE",
"382 521 OFFCURVE",
"378 509 CURVE SMOOTH",
"278 238 LINE SMOOTH",
"266.5 207 OFFCURVE",
"255 168 OFFCURVE",
"245 137 CURVE",
"243 137 LINE",
"234 169 OFFCURVE",
"223 205 OFFCURVE",
"211 238 CURVE SMOOTH",
"109 509 LINE SMOOTH",
"104.5 521 OFFCURVE",
"89 525 OFFCURVE",
"69 525 CURVE SMOOTH",
"61 525 LINE SMOOTH",
"31 525 OFFCURVE",
"18 518 OFFCURVE",
"18 508 CURVE SMOOTH",
"18 504 OFFCURVE",
"20 498 OFFCURVE",
"21 495 CURVE SMOOTH",
"198 24 LINE SMOOTH",
"201 15 OFFCURVE",
"207 8 OFFCURVE",
"221 8 CURVE SMOOTH",
"234 8 LINE",
"209 60 LINE",
"112 -175 LINE",
"107 -188 OFFCURVE",
"107 -190 OFFCURVE",
"107 -192 CURVE SMOOTH",
"107 -202 OFFCURVE",
"118 -208 OFFCURVE",
"140 -208 CURVE SMOOTH"
);
}
);
width = 481;
},
{
anchors = (
{
name = bottom;
position = "{361, 0}";
},
{
name = top;
position = "{241, 523}";
}
);
layerId = "2C16E7AF-C861-4509-900A-75D3055B0FF7";
paths = (
{
closed = 1;
nodes = (
"189 -206 LINE SMOOTH",
"218 -206 OFFCURVE",
"239.5 -201 OFFCURVE",
"245 -185 CURVE SMOOTH",
"474 485 LINE SMOOTH",
"476 492 OFFCURVE",
"477 498 OFFCURVE",
"477 503 CURVE SMOOTH",
"477 517 OFFCURVE",
"459 525 OFFCURVE",
"417 525 CURVE SMOOTH",
"393 525 LINE SMOOTH",
"364 525 OFFCURVE",
"342 520 OFFCURVE",
"337 504 CURVE SMOOTH",
"278 319 LINE SMOOTH",
"271 297 OFFCURVE",
"259 241 OFFCURVE",
"250 198 CURVE",
"246 198 LINE",
"237 241 OFFCURVE",
"225 296 OFFCURVE",
"218 319 CURVE SMOOTH",
"159 504 LINE SMOOTH",
"154 520 OFFCURVE",
"132 525 OFFCURVE",
"103 525 CURVE SMOOTH",
"71 525 LINE SMOOTH",
"29 525 OFFCURVE",
"10 517 OFFCURVE",
"10 503 CURVE SMOOTH",
"10 498 OFFCURVE",
"12 492 OFFCURVE",
"14 485 CURVE SMOOTH",
"181 -4 LINE SMOOTH",
"187 -21 OFFCURVE",
"199 -28 OFFCURVE",
"217 -28 CURVE SMOOTH",
"232 -28 LINE",
"199 54 LINE",
"116 -167 LINE SMOOTH",
"113 -174 OFFCURVE",
"112 -180 OFFCURVE",
"112 -185 CURVE SMOOTH",
"112 -198 OFFCURVE",
"131 -206 OFFCURVE",
"172 -206 CURVE SMOOTH"
);
}
);
width = 481;
}
);
leftKerningGroup = v;
rightKerningGroup = y;
unicode = 0079;
userData = {
RMXScaler = {
source = y;
};
};
},
{
color = 4;
glyphname = z;
layers = (
{
anchors = (
{
name = bottom;
position = "{238, 0}";
},
{
name = top;
position = "{245, 523}";
}
);
layerId = UUID0;
paths = (
{
closed = 1;
nodes = (
"429 0 LINE SMOOTH",
"443 0 OFFCURVE",
"449 9 OFFCURVE",
"449 30 CURVE SMOOTH",
"449 42 LINE SMOOTH",
"449 63 OFFCURVE",
"443 72 OFFCURVE",
"429 72 CURVE SMOOTH",
"154 72 LINE",
"446 461 LINE SMOOTH",
"447 463 OFFCURVE",
"448 466 OFFCURVE",
"448 471 CURVE SMOOTH",
"448 489 OFFCURVE",
"438 523 OFFCURVE",
"428 523 CURVE SMOOTH",
"77 523 LINE SMOOTH",
"63 523 OFFCURVE",
"57 514 OFFCURVE",
"57 493 CURVE SMOOTH",
"57 481 LINE SMOOTH",
"57 460 OFFCURVE",
"63 451 OFFCURVE",
"77 451 CURVE SMOOTH",
"333 451 LINE",
"40 62 LINE SMOOTH",
"38 59 OFFCURVE",
"37 55 OFFCURVE",
"37 51 CURVE SMOOTH",
"37 31 OFFCURVE",
"51 0 OFFCURVE",
"59 0 CURVE"
);
}
);
width = 489;
},
{
anchors = (
{
name = bottom;
position = "{241, 0}";
},
{
name = top;
position = "{245, 523}";
}
);
layerId = "2C16E7AF-C861-4509-900A-75D3055B0FF7";
paths = (
{
closed = 1;
nodes = (
"430 0 LINE SMOOTH",
"451 0 OFFCURVE",
"460 15 OFFCURVE",
"460 50 CURVE SMOOTH",
"460 67 LINE SMOOTH",
"460 102 OFFCURVE",
"451 117 OFFCURVE",
"430 117 CURVE SMOOTH",
"225 117 LINE",
"453 431 LINE SMOOTH",
"455 434 OFFCURVE",
"456 439 OFFCURVE",
"456 446 CURVE SMOOTH",
"456 474 OFFCURVE",
"438 523 OFFCURVE",
"427 523 CURVE SMOOTH",
"73 523 LINE SMOOTH",
"52 523 OFFCURVE",
"43 508 OFFCURVE",
"43 473 CURVE SMOOTH",
"43 456 LINE SMOOTH",
"43 421 OFFCURVE",
"52 406 OFFCURVE",
"73 406 CURVE SMOOTH",
"259 406 LINE",
"30 90 LINE SMOOTH",
"28 87 OFFCURVE",
"27 82 OFFCURVE",
"27 76 CURVE SMOOTH",
"27 50 OFFCURVE",
"43 0 OFFCURVE",
"56 0 CURVE"
);
}
);
width = 489;
}
);
leftKerningGroup = z;
rightKerningGroup = z;
unicode = 007A;
userData = {
RMXScaler = {
source = z;
};
};
},
{
color = 11;
glyphname = y.loclGUA;
layers = (
{
anchors = (
{
name = bottom;
position = "{496, -61}";
},
{
name = top;
position = "{273, 523}";
}
);
background = {
components = (
{
name = u;
}
);
};
layerId = UUID0;
paths = (
{
closed = 1;
nodes = (
"405 -213 OFFCURVE",
"471 -135 OFFCURVE",
"471 65 CURVE SMOOTH",
"471 503 LINE SMOOTH",
"471 517 OFFCURVE",
"459 525 OFFCURVE",
"431 525 CURVE SMOOTH",
"427 525 LINE SMOOTH",
"399 525 OFFCURVE",
"387 517 OFFCURVE",
"387 503 CURVE SMOOTH",
"387 137 LINE",
"353 92 OFFCURVE",
"304 67 OFFCURVE",
"253 67 CURVE SMOOTH",
"192 67 OFFCURVE",
"159 107 OFFCURVE",
"159 178 CURVE SMOOTH",
"159 503 LINE SMOOTH",
"159 517 OFFCURVE",
"147 525 OFFCURVE",
"119 525 CURVE SMOOTH",
"115 525 LINE SMOOTH",
"87 525 OFFCURVE",
"75 517 OFFCURVE",
"75 503 CURVE SMOOTH",
"75 170 LINE SMOOTH",
"75 63 OFFCURVE",
"121 -7 OFFCURVE",
"223 -7 CURVE SMOOTH",
"297 -7 OFFCURVE",
"363 25 OFFCURVE",
"405 96 CURVE",
"388 104 LINE",
"388 33 LINE",
"388 -88 OFFCURVE",
"341 -140 OFFCURVE",
"250 -140 CURVE SMOOTH",
"153 -140 OFFCURVE",
"97 -94 OFFCURVE",
"82 -94 CURVE SMOOTH",
"72 -94 OFFCURVE",
"69 -116 OFFCURVE",
"69 -134 CURVE SMOOTH",
"69 -142 OFFCURVE",
"71 -152 OFFCURVE",
"75 -160 CURVE SMOOTH",
"88 -182 OFFCURVE",
"164 -213 OFFCURVE",
"255 -213 CURVE SMOOTH"
);
}
);
width = 557;
},
{
anchors = (
{
name = bottom;
position = "{497, -60}";
},
{
name = top;
position = "{277, 523}";
}
);
background = {
components = (
{
name = u;
}
);
};
layerId = "2C16E7AF-C861-4509-900A-75D3055B0FF7";
paths = (
{
closed = 1;
nodes = (
"429 -211 OFFCURVE",
"497 -110 OFFCURVE",
"495 93 CURVE",
"495 493 LINE SMOOTH",
"495 514 OFFCURVE",
"477 525 OFFCURVE",
"435 525 CURVE SMOOTH",
"407 525 LINE SMOOTH",
"365 525 OFFCURVE",
"347 514 OFFCURVE",
"347 493 CURVE SMOOTH",
"347 149 LINE",
"320 122 OFFCURVE",
"284 114 OFFCURVE",
"266 114 CURVE SMOOTH",
"222 114 OFFCURVE",
"207 132 OFFCURVE",
"207 163 CURVE SMOOTH",
"207 493 LINE SMOOTH",
"207 514 OFFCURVE",
"189 525 OFFCURVE",
"147 525 CURVE SMOOTH",
"119 525 LINE SMOOTH",
"77 525 OFFCURVE",
"59 514 OFFCURVE",
"59 493 CURVE SMOOTH",
"59 144 LINE SMOOTH",
"59 40 OFFCURVE",
"103 -9 OFFCURVE",
"191 -9 CURVE SMOOTH",
"267 -9 OFFCURVE",
"328 29 OFFCURVE",
"369 96 CURVE",
"345 122 LINE",
"345 33 LINE SMOOTH",
"345 -50 OFFCURVE",
"304 -95 OFFCURVE",
"237 -95 CURVE SMOOTH",
"150 -95 OFFCURVE",
"93 -60 OFFCURVE",
"80 -60 CURVE SMOOTH",
"73 -60 OFFCURVE",
"67 -70 OFFCURVE",
"67 -100 CURVE SMOOTH",
"67 -112 OFFCURVE",
"68 -128 OFFCURVE",
"70 -147 CURVE SMOOTH",
"75 -185 OFFCURVE",
"164 -211 OFFCURVE",
"275 -211 CURVE SMOOTH"
);
}
);
width = 557;
}
);
leftKerningGroup = y.loclGUA;
rightKerningGroup = j;
userData = {
RMXScaler = {
source = y;
};
};
},
{
color = 11;
glyphname = g.ss01;
layers = (
{
anchors = (
{
name = top;
position = "{273, 523}";
}
);
background = {
paths = (
{
closed = 0;
nodes = (
"401 444 LINE",
"420 464 LINE",
"402 486 OFFCURVE",
"362 529 OFFCURVE",
"298 529 CURVE SMOOTH",
"193 529 OFFCURVE",
"127 427 OFFCURVE",
"127 263 CURVE SMOOTH",
"127 133 OFFCURVE",
"170 0 OFFCURVE",
"283 0 CURVE SMOOTH",
"335 0 OFFCURVE",
"386 29 OFFCURVE",
"411 117 CURVE",
"399 130 LINE"
);
},
{
closed = 1;
nodes = (
"230 73 OFFCURVE",
"213 169 OFFCURVE",
"213 267 CURVE SMOOTH",
"213 377 OFFCURVE",
"237 456 OFFCURVE",
"318 456 CURVE SMOOTH",
"358 456 OFFCURVE",
"384 433 OFFCURVE",
"401 417 CURVE",
"400 401 OFFCURVE",
"398 385 OFFCURVE",
"398 367 CURVE",
"398 198 LINE",
"378 100 OFFCURVE",
"332 73 OFFCURVE",
"300 73 CURVE SMOOTH"
);
},
{
closed = 0;
nodes = (
"399 130 LINE",
"399 67 LINE",
"399 -85 OFFCURVE",
"354 -140 OFFCURVE",
"242 -140 CURVE SMOOTH",
"160 -140 OFFCURVE",
"117 -96 OFFCURVE",
"105 -96 CURVE SMOOTH",
"101 -96 OFFCURVE",
"95 -100 OFFCURVE",
"95 -126 CURVE SMOOTH",
"95 -133 OFFCURVE",
"95 -141 OFFCURVE",
"96 -151 CURVE SMOOTH",
"99 -177 OFFCURVE",
"165 -212 OFFCURVE",
"255 -212 CURVE SMOOTH",
"406 -212 OFFCURVE",
"481 -139 OFFCURVE",
"482 82 CURVE SMOOTH",
"483 504 LINE",
"481 517 OFFCURVE",
"475 525 OFFCURVE",
"455 525 CURVE SMOOTH",
"449 525 LINE SMOOTH",
"412 525 OFFCURVE",
"417 488 OFFCURVE",
"401 444 CURVE"
);
}
);
};
layerId = UUID0;
paths = (
{
closed = 1;
nodes = (
"406 -212 OFFCURVE",
"481 -139 OFFCURVE",
"482 82 CURVE SMOOTH",
"483 504 LINE",
"481 517 OFFCURVE",
"475 525 OFFCURVE",
"455 525 CURVE SMOOTH",
"449 525 LINE SMOOTH",
"415 525 OFFCURVE",
"411 488 OFFCURVE",
"401 444 CURVE",
"424 433 LINE",
"369 498 OFFCURVE",
"310 529 OFFCURVE",
"246 529 CURVE SMOOTH",
"126 529 OFFCURVE",
"52 417 OFFCURVE",
"52 260 CURVE SMOOTH",
"52 88 OFFCURVE",
"136 -6 OFFCURVE",
"255 -6 CURVE SMOOTH",
"326 -6 OFFCURVE",
"371 22 OFFCURVE",
"415 59 CURVE",
"399 79 LINE",
"399 67 LINE SMOOTH",
"399 -85 OFFCURVE",
"354 -140 OFFCURVE",
"242 -140 CURVE SMOOTH",
"160 -140 OFFCURVE",
"117 -96 OFFCURVE",
"105 -96 CURVE SMOOTH",
"101 -96 OFFCURVE",
"95 -100 OFFCURVE",
"95 -126 CURVE SMOOTH",
"95 -133 OFFCURVE",
"95 -141 OFFCURVE",
"96 -151 CURVE SMOOTH",
"99 -177 OFFCURVE",
"165 -212 OFFCURVE",
"255 -212 CURVE SMOOTH"
);
},
{
closed = 1;
nodes = (
"185 68 OFFCURVE",
"140 135 OFFCURVE",
"140 254 CURVE SMOOTH",
"140 383 OFFCURVE",
"184 456 OFFCURVE",
"263 456 CURVE SMOOTH",
"307 456 OFFCURVE",
"357 432 OFFCURVE",
"398 387 CURVE",
"398 371 OFFCURVE",
"398 356 OFFCURVE",
"398 340 CURVE",
"398 113 LINE",
"362 83 OFFCURVE",
"320 68 OFFCURVE",
"274 68 CURVE SMOOTH"
);
}
);
width = 566;
},
{
anchors = (
{
name = top;
position = "{273, 523}";
}
);
background = {
paths = (
{
closed = 0;
nodes = (
"365 420 LINE",
"377 465 LINE",
"388 481 OFFCURVE",
"320 531 OFFCURVE",
"242 531 CURVE SMOOTH",
"123 531 OFFCURVE",
"42 444 OFFCURVE",
"42 270 CURVE SMOOTH",
"42 145 OFFCURVE",
"82 4 OFFCURVE",
"238 4 CURVE SMOOTH",
"312 4 OFFCURVE",
"360 47 OFFCURVE",
"379 99 CURVE",
"360 130 LINE"
);
},
{
closed = 1;
nodes = (
"205 125 OFFCURVE",
"191 188 OFFCURVE",
"191 267 CURVE SMOOTH",
"191 381 OFFCURVE",
"228 414 OFFCURVE",
"291 414 CURVE SMOOTH",
"320 414 OFFCURVE",
"356 405 OFFCURVE",
"363 394 CURVE",
"362 381 OFFCURVE",
"360 355 OFFCURVE",
"360 325 CURVE",
"360 166 LINE",
"342 143 OFFCURVE",
"320 125 OFFCURVE",
"285 125 CURVE SMOOTH"
);
},
{
closed = 0;
nodes = (
"360 130 LINE",
"360 27 LINE SMOOTH",
"360 -53 OFFCURVE",
"308 -95 OFFCURVE",
"202 -95 CURVE SMOOTH",
"142 -95 OFFCURVE",
"104 -61 OFFCURVE",
"91 -61 CURVE SMOOTH",
"81 -61 OFFCURVE",
"75 -74 OFFCURVE",
"75 -99 CURVE SMOOTH",
"75 -114 OFFCURVE",
"77 -133 OFFCURVE",
"82 -150 CURVE SMOOTH",
"92 -185 OFFCURVE",
"163 -212 OFFCURVE",
"247 -212 CURVE SMOOTH",
"433 -212 OFFCURVE",
"508 -117 OFFCURVE",
"508 82 CURVE SMOOTH",
"508 500 LINE",
"507 516 OFFCURVE",
"487 525 OFFCURVE",
"447 525 CURVE SMOOTH",
"435 525 LINE SMOOTH",
"364 525 OFFCURVE",
"379 500 OFFCURVE",
"365 420 CURVE"
);
}
);
};
layerId = "2C16E7AF-C861-4509-900A-75D3055B0FF7";
paths = (
{
closed = 1;
nodes = (
"433 -212 OFFCURVE",
"508 -117 OFFCURVE",
"508 82 CURVE SMOOTH",
"508 500 LINE",
"507 516 OFFCURVE",
"487 525 OFFCURVE",
"447 525 CURVE SMOOTH",
"435 525 LINE SMOOTH",
"368 525 OFFCURVE",
"372 497 OFFCURVE",
"361 430 CURVE",
"380 423 LINE",
"368 482 OFFCURVE",
"311 531 OFFCURVE",
"234 531 CURVE SMOOTH",
"123 531 OFFCURVE",
"42 435 OFFCURVE",
"42 261 CURVE SMOOTH",
"42 98 OFFCURVE",
"113 -8 OFFCURVE",
"238 -8 CURVE SMOOTH",
"313 -8 OFFCURVE",
"359 34 OFFCURVE",
"378 58 CURVE",
"360 61 LINE",
"360 27 LINE SMOOTH",
"360 -53 OFFCURVE",
"308 -95 OFFCURVE",
"202 -95 CURVE SMOOTH",
"142 -95 OFFCURVE",
"104 -61 OFFCURVE",
"91 -61 CURVE SMOOTH",
"81 -61 OFFCURVE",
"75 -74 OFFCURVE",
"75 -99 CURVE SMOOTH",
"75 -114 OFFCURVE",
"77 -133 OFFCURVE",
"82 -150 CURVE SMOOTH",
"92 -185 OFFCURVE",
"163 -212 OFFCURVE",
"247 -212 CURVE SMOOTH"
);
},
{
closed = 1;
nodes = (
"224 109 OFFCURVE",
"192 161 OFFCURVE",
"192 261 CURVE SMOOTH",
"192 358 OFFCURVE",
"220 410 OFFCURVE",
"278 410 CURVE SMOOTH",
"316 410 OFFCURVE",
"342 382 OFFCURVE",
"360 351 CURVE",
"360 340 OFFCURVE",
"360 328 OFFCURVE",
"360 317 CURVE",
"360 128 LINE",
"344 119 OFFCURVE",
"320 109 OFFCURVE",
"290 109 CURVE SMOOTH"
);
}
);
width = 566;
}
);
leftKerningGroup = g.ss01;
rightKerningGroup = j;
userData = {
RMXScaler = {
source = g;
};
};
},
